<svg xmlns="http://www.w3.org/2000/svg" viewBox="0 0 596.53 699.11"><defs><style>.cls-1{fill:#fff;}</style></defs><title>logo</title><g id="Layer_2" data-name="Layer 2"><g id="Layer_1-2" data-name="Layer 1"><path class="cls-1" d="M596.53,699.11H0V0H596.53ZM2.85,696.26H593.68V2.85H2.85Z"/><path class="cls-1" d="M114,605.23h-2.42a21.88,21.88,0,0,1-10.28-2.54q-5.76-3-6.41-7.78a29.89,29.89,0,0,0-10,7.32q-4.29,4.93-4.28,10.12,0,6.1,6.52,12.1a53.52,53.52,0,0,0,12.13,8.15q5.76,3,6.56,3l-.61,1.1c-.93,0-3.45-.75-7.54-2.24a47,47,0,0,1-14-7.66q-7.59-6.33-7.58-14.41a16.64,16.64,0,0,1,2.12-7.81A27.45,27.45,0,0,1,85,596.39a41.29,41.29,0,0,1,12.1-6.78l-9.75-7.78a15.59,15.59,0,0,0-3-1.89,6.84,6.84,0,0,0-2.88-.84H80.7a5.4,5.4,0,0,0-3.77,1.8A5.56,5.56,0,0,0,75.09,585v2.24l-.68.26a11.47,11.47,0,0,1-.61-1.17,7.24,7.24,0,0,1-.61-2.77,9.94,9.94,0,0,1,1.94-6.26,6.66,6.66,0,0,1,5.57-2.73h.76a12,12,0,0,1,4.4.93,16.7,16.7,0,0,1,4.43,2.64L99,585.28a11.28,11.28,0,0,0,3.47,1.69,13.8,13.8,0,0,0,4.38.78H114l-4.47,4.55h-4a22.39,22.39,0,0,0-6.15,1c.46,2.22,2.09,4.07,4.9,5.53a15.66,15.66,0,0,0,7.28,1.9H114Z"/><path class="cls-1" d="M155.85,605.23H146a16.87,16.87,0,0,1-7.24-1.56,13.54,13.54,0,0,1-5.35-4.32,8.94,8.94,0,0,1-3.71,4.28,13.63,13.63,0,0,1-7,1.6h-10.4v-4.55h10.4a7.51,7.51,0,0,0,5.84-2.24,7.76,7.76,0,0,0,1.86-5.42v-2.39A15.56,15.56,0,0,1,134,580.2a11.48,11.48,0,0,1,9.16-4.17,11.26,11.26,0,0,1,9.16,4.38,17,17,0,0,1,3.54,11.05Zm-4.55-4.55v-9.22a12.91,12.91,0,0,0-2.16-7.66,7,7,0,0,0-6-3.22,7.1,7.1,0,0,0-5.9,2.92,11.33,11.33,0,0,0-2.25,7.13,9.3,9.3,0,0,0,3.26,7,11.07,11.07,0,0,0,7.77,3Z"/><path class="cls-1" d="M171.22,605.23H160V545.7l4.55-4.55v59.53h6.67Z"/><path class="cls-1" d="M198.62,605.19l-30.18,0v-4.59l30.18,0Z"/><path class="cls-1" d="M242.8,605.23h-1.33a10.73,10.73,0,0,1-7.66-2.85,5.54,5.54,0,0,1-2.22,2.13,7.84,7.84,0,0,1-3.62.72,9.74,9.74,0,0,1-3.75-.76,8.26,8.26,0,0,1-3-2.13,6.88,6.88,0,0,1-2.39,2.18,7.79,7.79,0,0,1-3.64.71,10.6,10.6,0,0,1-4.32-.88,8.1,8.1,0,0,1-3.22-2.42,7.89,7.89,0,0,1-2.54,2.46,7,7,0,0,1-3.57.84h-2.88v-4.55H201a3.33,3.33,0,0,0,3-1.46A7.85,7.85,0,0,0,205,595V580.58L209.5,576v19a5.64,5.64,0,0,0,1.58,4,4.83,4.83,0,0,0,3.58,1.65,3.27,3.27,0,0,0,3.11-1.6,8.46,8.46,0,0,0,.76-4.09V580.58l4.55-4.55v19a6.53,6.53,0,0,0,1.25,4,3.79,3.79,0,0,0,3.15,1.67,2.64,2.64,0,0,0,2.69-1.67,11.66,11.66,0,0,0,.49-4V580.58l4.55-4.55v19a5.12,5.12,0,0,0,1.92,4.06,6.53,6.53,0,0,0,4.34,1.63h1.33Z"/><path class="cls-1" d="M261.34,605.23h-1.67a10.26,10.26,0,0,1-4.67-.91,6.89,6.89,0,0,1-2.8-2.81,4.83,4.83,0,0,1-2.39,2.71,9.15,9.15,0,0,1-4.47,1H242.8v-4.55h2.54a3.83,3.83,0,0,0,3.22-1.24,6.79,6.79,0,0,0,.95-4.07V580.58l4.55-4.55v18.28a6.54,6.54,0,0,0,1.66,4.47,5.13,5.13,0,0,0,4,1.9h1.67Zm-10.24-36.9a3.11,3.11,0,0,1-.95,2.28,3.15,3.15,0,0,1-2.31.95,3.21,3.21,0,0,1-2.3-.93,3.08,3.08,0,0,1-1-2.3,3.14,3.14,0,0,1,.94-2.31,3.19,3.19,0,0,1,2.32-.95,3.24,3.24,0,0,1,3.26,3.26Zm8,0a3.11,3.11,0,0,1-1,2.28,3.15,3.15,0,0,1-2.31.95,3.21,3.21,0,0,1-2.3-.93,3.26,3.26,0,0,1,0-4.61,3.26,3.26,0,0,1,5.57,2.31Z"/><path class="cls-1" d="M273.2,595.37c0,3.33-.86,5.84-2.57,7.51a9.55,9.55,0,0,1-6.9,2.35h-2.39v-4.55h2.39a4.87,4.87,0,0,0,3.64-1.33,5.55,5.55,0,0,0,1.28-4V545.7l4.55-4.55Z"/><path class="cls-1" d="M289.62,605.23a61.67,61.67,0,0,1-1.51,14.67,26.6,26.6,0,0,1-3.38,8.19,14.61,14.61,0,0,1-3.41,3.68h-.53c.12,0,.49-.65,1.1-1.94a28.67,28.67,0,0,0,2.08-6.48,57.5,57.5,0,0,0,1.1-11.87V545.7l4.55-4.55Z"/><path class="cls-1" d="M361,595q0,5-2.58,7.51t-6.9,2.35H321.65q-6.67,0-10.58-2.47a8.62,8.62,0,0,1-4.28-7.77,12.18,12.18,0,0,1,2.61-7,49.32,49.32,0,0,1,4.7-5.19l2.17-2.17.72,1-1.63,2.16q-1.78,2.36-2.58,3.57-2.47,3.7-2.47,6.29c0,2.43,1.33,4.28,4,5.57a16.79,16.79,0,0,0,7.36,1.52h29.88a5.12,5.12,0,0,0,3.6-1.1c.88-.83,1.33-2.24,1.33-4.21V580.22l4.55-4.55Zm-24.23-18a3.23,3.23,0,0,1-3.26,3.22,3.2,3.2,0,0,1-2.3-.92,3.08,3.08,0,0,1-1-2.3,3.14,3.14,0,0,1,.94-2.31,3.19,3.19,0,0,1,2.32-1,3.24,3.24,0,0,1,3.26,3.26Zm8,0a3.23,3.23,0,0,1-3.26,3.22,3.2,3.2,0,0,1-2.3-.92,3.26,3.26,0,0,1,0-4.61,3.26,3.26,0,0,1,5.57,2.31Z"/><path class="cls-1" d="M401.65,604.87H394a57.37,57.37,0,0,1-1.56,14.71,21.07,21.07,0,0,1-3.6,7.62q-.49.64-4.06,4.21h-.53a14.37,14.37,0,0,0,1.33-2.43,38.55,38.55,0,0,0,2.54-6.4,32.22,32.22,0,0,0,1.37-9.07v-8.64h-8.16a11.55,11.55,0,0,1-9.4-4.25,15.78,15.78,0,0,1-3.3-10.35,15.52,15.52,0,0,1,3.57-10.39,12.12,12.12,0,0,1,18.29-.09A15.5,15.5,0,0,1,394,590.27v10.05h7.65Zm-12.2-4.55V590.27a11.18,11.18,0,0,0-2.17-6.9,7.33,7.33,0,0,0-11.88-.23,12.48,12.48,0,0,0-.1,14.18,7.22,7.22,0,0,0,6,3Z"/><path class="cls-1" d="M523.34,595.35a9.46,9.46,0,0,1-2.43,6.64,9.19,9.19,0,0,1-7.17,2.88H481.39a31.17,31.17,0,0,1-10.71-2q-5.42-2-7.76-4.55a8.85,8.85,0,0,1-3.35,4.6,9.24,9.24,0,0,1-5.67,1.92H400.64v-4.55H453.9a4.74,4.74,0,0,0,3.75-1.86,6.32,6.32,0,0,0,1.56-4.17V580.22l4.55-4.55v11.87a10.72,10.72,0,0,0,2,6.83,13.78,13.78,0,0,0,2.91,2.39l5-9.94a20.92,20.92,0,0,1,6.79-8.07,17.24,17.24,0,0,1,10.05-3.08h32.85Zm-4.55,0V580.22h-28.3a12.89,12.89,0,0,0-7.62,2.39,16.28,16.28,0,0,0-5.12,6.26l-4.93,9.9A25.45,25.45,0,0,0,477,599.9a23.68,23.68,0,0,0,4.44.42h32.35a4.76,4.76,0,0,0,3.64-1.48A4.88,4.88,0,0,0,518.79,595.35Z"/><path class="cls-1" d="M379.38,637.42h1.76l2.48,8.33h0l2.5-8.33h1.75l-3.62,11H383Z"/><path class="cls-1" d="M388.42,642.89a19.25,19.25,0,0,1,.11-2.55,3.07,3.07,0,0,1,.37-1,3.9,3.9,0,0,1,3.43-2,3.84,3.84,0,0,1,2.18.62,3.58,3.58,0,0,1,1.24,1.35,2.41,2.41,0,0,1,.39,1,36,36,0,0,1,0,5.09,2.5,2.5,0,0,1-.39,1.06,3.64,3.64,0,0,1-1.24,1.34,3.92,3.92,0,0,1-2.18.63,3.82,3.82,0,0,1-2.15-.63,3.77,3.77,0,0,1-1.28-1.34l-.22-.47a3.14,3.14,0,0,1-.15-.59A19.28,19.28,0,0,1,388.42,642.89Zm1.67,0a12.83,12.83,0,0,0,.12,2.19,1.76,1.76,0,0,0,.43.92,1.81,1.81,0,0,0,.69.55,2,2,0,0,0,1,.25,2.09,2.09,0,0,0,1-.25A1.71,1.71,0,0,0,394,646a1.85,1.85,0,0,0,.44-.92,12.83,12.83,0,0,0,.12-2.19,13.13,13.13,0,0,0-.12-2.2,1.82,1.82,0,0,0-.44-.9,1.85,1.85,0,0,0-.66-.57,2.48,2.48,0,0,0-1-.23,2.34,2.34,0,0,0-1,.23,2,2,0,0,0-.69.57,1.73,1.73,0,0,0-.43.9A13.13,13.13,0,0,0,390.09,642.89Z"/><path class="cls-1" d="M398.17,637.42h1.66v11h-1.66Z"/><path class="cls-1" d="M409.52,645.3a4.17,4.17,0,0,1-1.38,2.35,3.9,3.9,0,0,1-2.47.81,3.82,3.82,0,0,1-2.15-.63,3.77,3.77,0,0,1-1.28-1.34L402,646a3.14,3.14,0,0,1-.15-.59,29.5,29.5,0,0,1,0-5.09,3.07,3.07,0,0,1,.37-1,3.9,3.9,0,0,1,3.43-2,3.67,3.67,0,0,1,2.58.94,4.15,4.15,0,0,1,1.27,2.3h-1.76a2.4,2.4,0,0,0-.74-1.12,2.14,2.14,0,0,0-1.35-.46,2.34,2.34,0,0,0-1,.23,2,2,0,0,0-.69.57,1.73,1.73,0,0,0-.43.9,13.13,13.13,0,0,0-.12,2.2,12.83,12.83,0,0,0,.12,2.19,1.76,1.76,0,0,0,.43.92,1.81,1.81,0,0,0,.69.55,2,2,0,0,0,1,.25,2.23,2.23,0,0,0,2.09-1.5Z"/><path class="cls-1" d="M410.69,637.42h7V639h-5.32v3.12h4.54v1.47h-4.54v3.22h5.32v1.57h-7Z"/><path class="cls-1" d="M422.55,642.89a17.6,17.6,0,0,1,.11-2.55,2.87,2.87,0,0,1,.37-1A3.68,3.68,0,0,1,424.3,638a4.09,4.09,0,0,1,4.33,0,3.54,3.54,0,0,1,1.25,1.35,2.41,2.41,0,0,1,.38,1,32.44,32.44,0,0,1,0,5.09,2.5,2.5,0,0,1-.38,1.06,3.59,3.59,0,0,1-1.25,1.34,4,4,0,0,1-4.33,0,3.74,3.74,0,0,1-1.27-1.34c-.08-.17-.16-.32-.22-.47a3.14,3.14,0,0,1-.15-.59A17.61,17.61,0,0,1,422.55,642.89Zm1.66,0a12.83,12.83,0,0,0,.12,2.19,1.84,1.84,0,0,0,.43.92,2,2,0,0,0,.69.55,2,2,0,0,0,1,.25,2.12,2.12,0,0,0,1-.25,1.87,1.87,0,0,0,.66-.55,1.93,1.93,0,0,0,.44-.92,14.42,14.42,0,0,0,.11-2.19,14.77,14.77,0,0,0-.11-2.2,1.91,1.91,0,0,0-.44-.9,2,2,0,0,0-.66-.57,2.52,2.52,0,0,0-1-.23,2.39,2.39,0,0,0-1,.23,2.15,2.15,0,0,0-.69.57,1.81,1.81,0,0,0-.43.9A13.13,13.13,0,0,0,424.21,642.89Z"/><path class="cls-1" d="M432.3,637.42h7V639H434v3.23h4.55v1.47H434v4.68H432.3Z"/><path class="cls-1" d="M446.09,638.9h-3v-1.48h7.66v1.48h-3v9.47h-1.67Z"/><path class="cls-1" d="M451.27,642.89a17.12,17.12,0,0,1,.12-2.55,3.08,3.08,0,0,1,.36-1,4,4,0,0,1,5.61-1.35,3.62,3.62,0,0,1,1.25,1.35,2.54,2.54,0,0,1,.38,1,32.44,32.44,0,0,1,0,5.09,2.64,2.64,0,0,1-.38,1.06,3.67,3.67,0,0,1-1.25,1.34,4,4,0,0,1-5.61-1.34c-.08-.17-.15-.32-.21-.47a3.14,3.14,0,0,1-.15-.59A17.15,17.15,0,0,1,451.27,642.89Zm1.67,0a12.83,12.83,0,0,0,.12,2.19,1.76,1.76,0,0,0,.43.92,1.81,1.81,0,0,0,.69.55,2,2,0,0,0,1,.25,2.08,2.08,0,0,0,1-.25,1.71,1.71,0,0,0,.66-.55,1.86,1.86,0,0,0,.45-.92,14.42,14.42,0,0,0,.11-2.19,14.77,14.77,0,0,0-.11-2.2,1.83,1.83,0,0,0-.45-.9,1.85,1.85,0,0,0-.66-.57,2.47,2.47,0,0,0-1-.23,2.39,2.39,0,0,0-1,.23,2,2,0,0,0-.69.57,1.73,1.73,0,0,0-.43.9A13.13,13.13,0,0,0,452.94,642.89Z"/><path class="cls-1" d="M461,637.42h1.66v9.38H468v1.57h-7Z"/><path class="cls-1" d="M469.58,637.42h7V639h-5.33v3.12h4.55v1.47h-4.55v3.22h5.33v1.57h-7Z"/><path class="cls-1" d="M478.13,637.42h4.27a3.38,3.38,0,0,1,2.23.72,3,3,0,0,1,1.09,2.34,3.06,3.06,0,0,1-2.12,3l2.54,4.86h-2l-2.26-4.68h-2.11v4.68h-1.66Zm1.66,4.8h2.5a1.82,1.82,0,0,0,1.4-.54,1.73,1.73,0,0,0,.46-1.2,1.47,1.47,0,0,0-.55-1.24,1.89,1.89,0,0,0-1.22-.34h-2.59Z"/><path class="cls-1" d="M493.11,645.92H489l-.84,2.45h-1.76l4-11h1.39l4,11H494Zm-.47-1.47-1.59-4.78h0l-1.58,4.78Z"/><path class="cls-1" d="M496.88,637.42h1.56l4.95,7.78h0v-7.78h1.66v11h-1.57l-4.94-7.78h0v7.78h-1.66Z"/><path class="cls-1" d="M514.77,645.3a4.1,4.1,0,0,1-1.37,2.35,3.92,3.92,0,0,1-2.47.81,3.82,3.82,0,0,1-2.15-.63,3.77,3.77,0,0,1-1.28-1.34l-.22-.47a3.14,3.14,0,0,1-.15-.59,29.5,29.5,0,0,1,0-5.09,2.87,2.87,0,0,1,.37-1,3.9,3.9,0,0,1,3.43-2,3.67,3.67,0,0,1,2.58.94,4.08,4.08,0,0,1,1.26,2.3H513a2.4,2.4,0,0,0-.74-1.12,2.14,2.14,0,0,0-1.35-.46,2.39,2.39,0,0,0-1,.23,2.15,2.15,0,0,0-.69.57,1.8,1.8,0,0,0-.42.9,13.13,13.13,0,0,0-.12,2.2,12.83,12.83,0,0,0,.12,2.19,1.83,1.83,0,0,0,.42.92,2,2,0,0,0,.69.55,2,2,0,0,0,1,.25,2.23,2.23,0,0,0,2.09-1.5Z"/><path class="cls-1" d="M515.94,637.42h7V639H517.6v3.12h4.55v1.47H517.6v3.22h5.33v1.57h-7Z"/><path class="cls-1" d="M137.39,334.22s-.82-10.11-1.41-25.29c-.32-7.59-.58-16.44-.76-25.92-.06-4.74-.2-9.64-.21-14.62s-.06-10-.09-15.1.06-10.11.08-15.09.15-9.88.21-14.62c.18-9.49.44-18.34.76-25.93.59-15.17,1.42-25.29,1.42-25.29s.84,10.12,1.43,25.29c.31,7.59.58,16.44.75,25.93.07,4.74.22,9.64.22,14.62s.05,10,.08,15.09-.06,10.12-.09,15.1-.15,9.88-.21,14.62c-.18,9.48-.44,18.33-.76,25.92C138.22,324.11,137.39,334.22,137.39,334.22Z"/><path class="cls-1" d="M123.4,324.31s-.83-9-1.41-22.46c-.32-6.74-.59-14.6-.76-23-.07-4.21-.21-8.56-.22-13s-.05-8.92-.08-13.41,0-9,.08-13.4.15-8.78.21-13c.17-8.42.44-16.28.76-23,.59-13.48,1.42-22.46,1.42-22.46s.83,9,1.42,22.46c.32,6.74.59,14.6.76,23,.06,4.21.21,8.56.21,13s.06,8.91.08,13.4-.05,9-.08,13.41-.15,8.77-.22,13c-.17,8.42-.44,16.28-.75,23C124.23,315.32,123.4,324.31,123.4,324.31Z"/><path class="cls-1" d="M112.43,319.5s-.83-7.71-1.42-19.26c-.32-5.78-.58-12.52-.76-19.75-.06-3.61-.2-7.34-.21-11.13s-.06-7.65-.09-11.5.06-7.71.09-11.49.14-7.53.21-11.14c.17-7.23.44-14,.76-19.75.59-11.55,1.42-19.26,1.42-19.26s.83,7.71,1.42,19.26c.32,5.78.58,12.52.76,19.75.06,3.61.21,7.34.21,11.14s.05,7.64.08,11.49-.06,7.7-.08,11.5-.15,7.52-.22,11.13c-.17,7.23-.44,14-.76,19.75C113.26,311.79,112.43,319.5,112.43,319.5Z"/><path class="cls-1" d="M101.39,323.18s-.82-6.32-1.41-15.79c-.31-4.74-.58-10.27-.75-16.19-.07-3-.2-6-.22-9.13s-.05-6.27-.08-9.43.06-6.31.08-9.42.15-6.17.21-9.13c.17-5.92.44-11.45.76-16.19.58-9.47,1.41-15.79,1.41-15.79s.83,6.32,1.42,15.79c.32,4.74.58,10.27.76,16.19.06,3,.2,6,.2,9.13s.06,6.27.09,9.42-.06,6.32-.09,9.43-.15,6.17-.21,9.13c-.18,5.92-.44,11.45-.76,16.19C102.22,316.86,101.39,323.18,101.39,323.18Z"/><path class="cls-1" d="M90.68,327.37s-.69-5.24-1.18-13.11c-.27-3.93-.49-8.52-.63-13.43-.06-2.46-.17-5-.18-7.58s0-5.2-.07-7.82,0-5.24.07-7.82.12-5.12.17-7.58c.15-4.91.37-9.5.63-13.43.49-7.87,1.19-13.11,1.19-13.11s.69,5.24,1.18,13.11c.27,3.93.49,8.52.63,13.43.05,2.46.18,5,.18,7.58s0,5.2.07,7.82,0,5.24-.07,7.82-.13,5.12-.18,7.58c-.15,4.91-.37,9.5-.63,13.43C91.37,322.13,90.68,327.37,90.68,327.37Z"/><path class="cls-1" d="M526.33,279.92s-.69-5.24-1.18-13.11c-.26-3.93-.48-8.52-.63-13.43,0-2.46-.17-5-.18-7.58s0-5.2-.07-7.82.05-5.24.07-7.82.12-5.12.18-7.58c.14-4.92.36-9.5.63-13.44.49-7.86,1.18-13.1,1.18-13.1s.7,5.24,1.19,13.1c.26,3.94.48,8.52.63,13.44.05,2.46.17,5,.17,7.58s0,5.2.07,7.82,0,5.24-.07,7.82-.12,5.12-.18,7.58c-.14,4.91-.36,9.5-.63,13.43C527,274.68,526.33,279.92,526.33,279.92Z"/><path class="cls-1" d="M80.42,327.37s-.66-3.23-1.13-8.07c-.26-2.42-.47-5.24-.61-8.27-.05-1.51-.16-3.07-.17-4.66s0-3.2-.07-4.82,0-3.22.07-4.81.12-3.15.17-4.66c.14-3,.35-5.85.6-8.27.47-4.84,1.14-8.07,1.14-8.07s.66,3.23,1.13,8.07c.25,2.42.47,5.24.6,8.27,0,1.51.17,3.07.17,4.66s.05,3.2.07,4.81,0,3.23-.07,4.82-.12,3.15-.17,4.66c-.14,3-.35,5.85-.61,8.27C81.08,324.14,80.42,327.37,80.42,327.37Z"/><path class="cls-1" d="M537.56,260.07s-.66-3.22-1.13-8.06c-.26-2.42-.47-5.25-.61-8.27-.05-1.52-.16-3.08-.17-4.67s0-3.2-.07-4.81,0-3.23.07-4.82.12-3.15.17-4.66c.14-3,.35-5.85.6-8.27.47-4.84,1.14-8.07,1.14-8.07s.66,3.23,1.13,8.07c.25,2.42.47,5.24.61,8.27.05,1.51.16,3.08.16,4.66s0,3.2.07,4.82,0,3.23-.07,4.81-.12,3.15-.17,4.67c-.14,3-.35,5.85-.6,8.27C538.22,256.85,537.56,260.07,537.56,260.07Z"/><path class="cls-1" d="M69.5,324.58s-.46-2.45-.78-6.12c-.18-1.83-.32-4-.42-6.27,0-1.14-.11-2.33-.12-3.53s0-2.43,0-3.65,0-2.45,0-3.65.08-2.4.12-3.54c.09-2.3.24-4.44.41-6.27.33-3.67.79-6.12.79-6.12s.45,2.45.78,6.12c.17,1.83.32,4,.41,6.27,0,1.14.12,2.33.12,3.54s0,2.42,0,3.65,0,2.44,0,3.65-.08,2.39-.12,3.53c-.1,2.3-.24,4.44-.42,6.27C70,322.13,69.5,324.58,69.5,324.58Z"/><path class="cls-1" d="M151.39,322.09s-.22-2.54-.48-7-.66-10.81-.93-18.44-.59-16.54-.76-26.08c-.07-4.78-.21-9.71-.22-14.72s-.05-10.09-.08-15.18.05-10.18.08-15.19.15-9.94.21-14.71c.17-9.54.44-18.45.76-26.08s.73-14,.94-18.45.48-7,.48-7,.22,2.55.48,7,.67,10.81.94,18.45.59,16.54.76,26.08c.06,4.77.21,9.7.21,14.71s.06,10.1.08,15.19-.05,10.18-.08,15.18-.15,9.94-.22,14.72c-.17,9.54-.44,18.44-.75,26.08s-.73,14-.94,18.44S151.39,322.09,151.39,322.09Z"/><path class="cls-1" d="M165.38,336.65s-.21-2.95-.47-8.11-.66-12.54-.94-21.39-.58-19.18-.76-30.24c-.07-5.53-.14-11.25-.21-17.06s-.06-11.71-.09-17.61.06-11.8.09-17.61.14-11.52.21-17.06c.17-11.06.43-21.39.75-30.24s.73-16.22.94-21.39.48-8.11.48-8.11.22,2.95.49,8.11.66,12.54.94,21.39.58,19.18.75,30.24c.07,5.54.22,11.25.22,17.06s.05,11.71.08,17.61-.06,11.8-.09,17.61-.14,11.53-.21,17.06c-.18,11.06-.44,21.39-.76,30.24s-.72,16.23-.93,21.39S165.38,336.65,165.38,336.65Z"/><path class="cls-1" d="M179.38,318.37s-.22-3.11-.48-8.55-.66-13.2-.93-22.52-.59-20.19-.76-31.84c-.07-5.83-.14-11.85-.22-18s-.05-12.33-.08-18.55.05-12.42.08-18.54.15-12.14.21-18c.17-11.65.44-22.53.76-31.85s.73-17.08.94-22.52.48-8.54.48-8.54.22,3.1.48,8.54.67,13.2.94,22.52.59,20.2.76,31.85c.06,5.82.21,11.84.21,18s.06,12.33.08,18.54,0,12.43-.08,18.55-.15,12.13-.22,18c-.17,11.65-.43,22.52-.75,31.84s-.73,17.09-.94,22.52S179.38,318.37,179.38,318.37Z"/><path class="cls-1" d="M193.37,325.41S192.55,311.64,192,291c-.32-10.33-.58-22.38-.76-35.29-.06-6.45-.2-13.12-.21-19.9s-.06-13.66-.09-20.55.06-13.77.09-20.54.14-13.45.21-19.9c.17-12.91.43-25,.75-35.29.59-20.65,1.42-34.42,1.42-34.42s.84,13.77,1.43,34.42c.32,10.33.58,22.38.75,35.29.07,6.45.21,13.12.21,19.9s.06,13.66.09,20.54-.06,13.77-.09,20.55-.15,13.45-.21,19.9c-.18,12.91-.44,25-.76,35.29C194.2,311.64,193.37,325.41,193.37,325.41Z"/><path class="cls-1" d="M207.37,347.42s-.22-3.52-.48-9.68-.66-15-.93-25.53-.59-22.88-.76-36.09c-.07-6.6-.14-13.42-.22-20.35s0-14-.08-21,0-14.08.08-21,.15-13.75.21-20.36c.17-13.2.44-25.52.76-36.08s.73-19.37.94-25.53.48-9.68.48-9.68.22,3.52.48,9.68.67,15,.94,25.53.59,22.88.76,36.08c.06,6.61.21,13.43.21,20.36s.06,14,.08,21-.05,14.09-.08,21-.15,13.75-.22,20.35c-.17,13.21-.43,25.53-.75,36.09s-.73,19.37-.94,25.53S207.37,347.42,207.37,347.42Z"/><path class="cls-1" d="M221.36,335.17s-.21-3.72-.47-10.22-.66-15.78-.94-26.92-.58-24.15-.76-38.08c-.07-7-.14-14.16-.21-21.47s-.06-14.74-.09-22.17.06-14.86.09-22.17.14-14.51.21-21.47c.17-13.93.43-26.93.75-38.07s.73-20.43.94-26.93.48-10.22.48-10.22.22,3.72.49,10.22.66,15.78.94,26.93.58,24.14.75,38.07c.07,7,.21,14.16.21,21.47s.06,14.74.09,22.17-.06,14.86-.09,22.17-.14,14.51-.21,21.47c-.18,13.93-.44,26.93-.76,38.08s-.72,20.42-.93,26.92S221.36,335.17,221.36,335.17Z"/><path class="cls-1" d="M235.36,310.37s-.83-13.57-1.41-33.93c-.32-10.18-.59-22.05-.76-34.78-.07-6.36-.21-12.93-.22-19.61s-.05-13.47-.08-20.25.05-13.58.08-20.25.15-13.26.21-19.62c.17-12.72.44-24.6.76-34.78.59-20.35,1.42-33.93,1.42-33.93s.83,13.58,1.42,33.93c.32,10.18.59,22.06.76,34.78.06,6.36.21,12.94.21,19.62s.06,13.46.08,20.25-.05,13.57-.08,20.25-.15,13.25-.22,19.61c-.17,12.73-.44,24.6-.75,34.78C236.19,296.8,235.36,310.37,235.36,310.37Z"/><path class="cls-1" d="M249.35,315.3s-.82-7.16-1.41-17.91c-.32-5.38-.58-20.45-.76-27.17-.06-3.36-.2-6.84-.21-10.36s-.06-7.12-.09-10.7.06-7.17.09-10.7.14-7,.21-10.36c.17-6.72.43-93,.75-98.41.59-10.75,1.42-17.92,1.42-17.92s.84,7.17,1.43,17.92c.32,5.38.58,91.69.75,98.41.07,3.36.21,6.84.21,10.36s.06,7.12.09,10.7-.06,7.17-.09,10.7-.15,7-.21,10.36c-.18,6.72-.44,21.79-.76,27.17C250.18,308.14,249.35,315.3,249.35,315.3Z"/><path class="cls-1" d="M263.35,356.9s-.22-3.86-.48-10.6-.66-16.38-.93-27.94-.59-25.05-.76-39.5c-.07-7.23-.21-14.7-.22-22.29s0-15.29-.08-23,.05-15.41.08-23,.15-15.06.21-22.28c.17-14.45.44-27.94.76-39.5s.73-21.2.94-27.94.48-10.6.48-10.6.22,3.85.48,10.6.67,16.37.94,27.94.59,25.05.76,39.5c.06,7.22.21,14.69.21,22.28s.06,15.29.08,23-.05,15.42-.08,23-.15,15.06-.22,22.29c-.17,14.45-.44,27.94-.75,39.5s-.73,21.2-.94,27.94S263.35,356.9,263.35,356.9Z"/><path class="cls-1" d="M277.34,331s-.82-14.49-1.41-36.22c-.32-10.87-.58-23.54-.76-37.13-.06-6.79-.2-13.8-.21-20.94s-.06-14.37-.09-21.61.06-14.49.09-21.62.14-14.15.21-20.94c.17-13.59.43-26.26.75-37.13.59-21.73,1.42-36.22,1.42-36.22s.84,14.49,1.43,36.22c.32,10.87.58,23.54.75,37.13.07,6.79.21,13.81.21,20.94s.06,14.37.09,21.62-.06,14.48-.09,21.61-.14,14.15-.21,20.94c-.18,13.59-.44,26.26-.76,37.13C278.17,316.49,277.34,331,277.34,331Z"/><path class="cls-1" d="M291.34,347.42s-.83-17-1.41-42.47c-.32-12.74-.59-27.6-.76-43.53-.07-8-.21-16.19-.22-24.55s-.05-16.86-.08-25.35.05-17,.08-25.35.15-16.59.21-24.55c.17-15.93.44-30.79.76-43.53.59-25.48,1.42-42.47,1.42-42.47s.83,17,1.42,42.47c.32,12.74.59,27.6.76,43.53.06,8,.21,16.19.21,24.55s.06,16.85.08,25.35-.05,17-.08,25.35-.15,16.59-.22,24.55c-.17,15.93-.44,30.79-.75,43.53C292.17,330.43,291.34,347.42,291.34,347.42Z"/><path class="cls-1" d="M305.34,450.23s-.83-25-1.42-62.38c-.32-18.71-.58-11.32-.76-34.72s-.3-48.34-.3-73.3.11-49.9.3-73.29.43-45.23.76-63.95c.58-37.43,1.42-62.38,1.42-62.38s.83,25,1.42,62.38c.32,18.72.58,40.56.75,63.95s.3,48.34.3,73.29-.11,49.91-.3,73.3-.44,16-.76,34.72C306.16,425.28,305.34,450.23,305.34,450.23Z"/><path class="cls-1" d="M319.33,517.35s-.83-28.14-1.41-70.34c-.32-21.11-.59-45.73-.76-72.11-.07-13.18-.21-26.82-.22-40.66s-.05-27.93-.08-42,.05-28.13.08-42,.15-27.48.21-40.67c.17-26.38.44-51,.76-72.11.59-42.21,1.42-70.34,1.42-70.34s.83,28.13,1.42,70.34c.32,21.11.59,45.73.76,72.11.06,13.19.21,26.83.21,40.67s.06,27.91.08,42-.05,28.14-.08,42-.15,27.48-.22,40.66c-.17,26.38-.44,51-.75,72.11C320.16,489.21,319.33,517.35,319.33,517.35Z"/><path class="cls-1" d="M333.33,387.85s-.83-22.77-1.42-56.92c-.32-17.08-.58,5-.76-16.31-.06-10.67-.2-21.7-.21-32.91s-.06-22.59-.09-34,.06-22.77.09-34,.14-22.24.21-32.91c.17-21.35.43-41.28.76-58.36.58-34.15,1.42-56.92,1.42-56.92s.83,22.77,1.42,56.92c.32,17.08.58,37,.75,58.36.07,10.67.21,21.7.21,32.91s.06,22.6.09,34-.06,22.78-.09,34-.15,22.24-.21,32.91c-.18,21.35-.44-.77-.76,16.31C334.15,365.08,333.33,387.85,333.33,387.85Z"/><path class="cls-1" d="M347.32,310.81s-.22-3.66-.48-10.06-.66-15.54-.93-26.51-.59-23.77-.76-37.48c-.07-6.86-.14-13.94-.22-21.14s-.05-14.51-.08-21.82,0-14.63.08-21.83.15-14.28.21-21.14c.17-13.71.44-26.51.76-37.48s.73-20.11.94-26.51.48-10,.48-10,.22,3.65.48,10,.66,15.54.94,26.51.59,23.77.76,37.48c.06,6.86.21,13.94.21,21.14s.06,14.51.08,21.83-.05,14.62-.08,21.82-.15,14.28-.22,21.14c-.17,13.71-.44,26.51-.75,37.48s-.73,20.11-.94,26.51S347.32,310.81,347.32,310.81Z"/><path class="cls-1" d="M361.32,330.42s-.22-3.39-.48-9.31-.66-14.39-.94-24.54-.58-22-.76-34.69c-.07-6.35-.14-12.91-.21-19.57s-.06-13.43-.09-20.2.06-13.54.09-20.2.14-13.22.21-19.57c.17-12.69.43-24.54.76-34.69s.72-18.62.93-24.54.49-9.31.49-9.31.21,3.39.48,9.31.66,14.38.94,24.54.58,22,.75,34.69c.07,6.35.21,12.91.21,19.57s.06,13.43.09,20.2-.06,13.54-.09,20.2-.14,13.22-.21,19.57c-.18,12.69-.44,24.54-.76,34.69s-.72,18.62-.93,24.54S361.32,330.42,361.32,330.42Z"/><path class="cls-1" d="M375.31,343.14s-.22-3.18-.48-8.73-.65-13.5-.93-23-.59-20.63-.76-32.54c-.07-6-.14-12.1-.22-18.35s-.05-12.6-.08-18.95.05-12.7.08-19,.15-12.4.21-18.35c.17-11.91.44-23,.76-32.54s.73-17.46.94-23,.48-8.73.48-8.73.22,3.17.48,8.73.66,13.49.94,23,.59,20.63.76,32.54c.06,5.95.21,12.1.21,18.35s.06,12.6.08,19,0,12.7-.08,18.95-.15,12.4-.22,18.35c-.17,11.91-.44,23-.75,32.54s-.73,17.46-.94,23S375.31,343.14,375.31,343.14Z"/><path class="cls-1" d="M389.31,331s-.22-2.74-.48-7.54-.66-11.66-.94-19.89-.58-17.82-.76-28.11c-.07-5.14-.14-10.45-.21-15.85s-.06-10.89-.09-16.37.06-11,.09-16.37.14-10.71.21-15.86c.17-10.28.43-19.88.76-28.11s.72-15.08.93-19.88.49-7.54.49-7.54.21,2.74.48,7.54.66,11.65.94,19.88.58,17.83.75,28.11c.07,5.15.21,10.46.21,15.86s.06,10.88.09,16.37-.06,11-.09,16.37-.14,10.71-.21,15.85c-.18,10.29-.44,19.89-.76,28.11s-.72,15.09-.93,19.89S389.31,331,389.31,331Z"/><path class="cls-1" d="M403.3,314.52s-.83-9-1.41-22.41c-.32-6.72-.59-14.57-.76-23-.07-4.2-.21-8.54-.22-13s-.05-8.89-.08-13.37.05-9,.08-13.38.15-8.75.21-13c.17-8.4.44-16.25.76-23,.59-13.45,1.42-22.41,1.42-22.41s.83,9,1.42,22.41c.32,6.72.59,14.57.76,23,.06,4.21.21,8.55.21,13s.06,8.89.08,13.38,0,9-.08,13.37-.15,8.76-.22,13c-.17,8.4-.44,16.25-.75,23C404.13,305.56,403.3,314.52,403.3,314.52Z"/><path class="cls-1" d="M417.3,319.5s-.83-9.13-1.42-22.82c-.32-6.84-.58-14.83-.76-23.39-.06-4.27-.2-8.7-.21-13.19s-.06-9.05-.09-13.62.06-9.12.09-13.62.14-8.91.21-13.19c.17-8.55.43-16.54.76-23.39.58-13.69,1.42-22.81,1.42-22.81s.83,9.12,1.42,22.81c.32,6.85.58,14.84.75,23.39.07,4.28.21,8.7.21,13.19s.06,9.06.09,13.62-.06,9.13-.09,13.62-.15,8.92-.21,13.19c-.18,8.56-.44,16.55-.76,23.39C418.12,310.37,417.3,319.5,417.3,319.5Z"/><path class="cls-1" d="M431.29,334.38s-.22-2.56-.48-7-.65-10.87-.93-18.53-.59-16.62-.76-26.21c-.07-4.79-.14-9.74-.22-14.78s0-10.14-.08-15.26.05-10.22.08-15.25.15-10,.21-14.79c.17-9.58.44-18.53.76-26.2s.73-14.06.94-18.53.48-7,.48-7,.22,2.55.48,7,.66,10.86.94,18.53.59,16.62.76,26.2c.06,4.8.21,9.75.21,14.79s.06,10.14.08,15.25-.05,10.23-.08,15.26-.15,10-.22,14.78c-.17,9.59-.44,18.54-.75,26.21s-.73,14.06-.94,18.53S431.29,334.38,431.29,334.38Z"/><path class="cls-1" d="M445.29,334.38s-.22-2.56-.48-7-.66-10.87-.94-18.53-.58-16.62-.76-26.21c-.07-4.79-.14-9.74-.21-14.78s-.06-10.14-.09-15.26.06-10.22.09-15.25.14-10,.21-14.79c.17-9.58.44-18.53.76-26.2s.72-14.06.94-18.53.48-7,.48-7,.22,2.55.48,7,.66,10.86.94,18.53.58,16.62.76,26.2c.06,4.8.2,9.75.21,14.79s.05,10.14.08,15.25-.06,10.23-.09,15.26-.14,10-.21,14.78c-.18,9.59-.44,18.54-.76,26.21s-.72,14.06-.93,18.53S445.29,334.38,445.29,334.38Z"/><path class="cls-1" d="M459.28,320.48s-.22-2.26-.48-6.21-.65-9.59-.93-16.37-.59-14.67-.76-23.14c-.07-4.24-.21-8.61-.22-13.06s-.05-9-.08-13.47.05-9,.08-13.48.15-8.82.21-13.05c.18-8.47.44-16.37.76-23.15s.73-12.42.94-16.37.48-6.21.48-6.21.22,2.26.48,6.21.66,9.6.94,16.37.59,14.68.76,23.15c.06,4.23.21,8.6.21,13.05s.06,9,.08,13.48-.05,9-.08,13.47-.15,8.82-.22,13.06c-.17,8.47-.44,16.37-.75,23.14s-.73,12.42-.94,16.37S459.28,320.48,459.28,320.48Z"/><path class="cls-1" d="M473.28,322.29s-.83-8.54-1.42-21.36c-.32-6.41-.58-13.88-.76-21.89-.06-4-.2-8.14-.21-12.35s-.06-8.48-.09-12.75.06-8.54.09-12.74.14-8.35.21-12.35c.17-8,.43-15.49.76-21.9.58-12.81,1.42-21.35,1.42-21.35s.83,8.54,1.42,21.35c.32,6.41.58,13.89.76,21.9.06,4,.2,8.14.21,12.35s.05,8.47.08,12.74-.06,8.55-.09,12.75-.15,8.34-.21,12.35c-.18,8-.44,15.48-.76,21.89C474.1,313.75,473.28,322.29,473.28,322.29Z"/><path class="cls-1" d="M487.27,298.83s-.83-6.7-1.41-16.74c-.32-5-.59-10.89-.76-17.16s-.3-13-.3-19.67.1-13.39.29-19.67.44-12.14.76-17.16c.59-10,1.42-16.74,1.42-16.74s.83,6.7,1.42,16.74c.32,5,.59,10.88.76,17.16s.3,13,.3,19.67-.12,13.39-.31,19.67-.44,12.14-.75,17.16C488.1,292.13,487.27,298.83,487.27,298.83Z"/><path class="cls-1" d="M499,284.93s-.83-6.31-1.42-15.78c-.31-4.74-.58-10.26-.75-16.18s-.31-12.23-.31-18.55.11-12.62.3-18.54.44-11.44.76-16.18c.59-9.47,1.42-15.78,1.42-15.78s.83,6.31,1.42,15.78c.32,4.74.59,10.26.76,16.18s.29,12.23.29,18.54-.11,12.63-.3,18.55-.44,11.44-.76,16.18C499.8,278.62,499,284.93,499,284.93Z"/><path class="cls-1" d="M512.86,284.93s-.83-6.31-1.42-15.78c-.31-4.74-.58-10.26-.75-16.18s-.31-12.23-.31-18.55.11-12.62.3-18.54.44-11.44.76-16.18c.58-9.47,1.42-15.78,1.42-15.78s.83,6.31,1.42,15.78c.32,4.74.58,10.26.76,16.18s.29,12.23.29,18.54-.11,12.63-.3,18.55-.44,11.44-.76,16.18C513.69,278.62,512.86,284.93,512.86,284.93Z"/></g></g></svg>