<svg xmlns="http://www.w3.org/2000/svg" viewBox="0 0 266.84 361.71"><defs><style>.cls-1{fill:#fff;}.cls-2{fill:#3dbfbb;}.cls-3{fill:#2fb9b2;}.cls-4{fill:#2fa8a5;}.cls-5{fill:#297d77;}.cls-6{fill:#4cc1bc;}.cls-7{fill:#54c3bb;}.cls-8{fill:#63c6bd;}.cls-9{fill:#6fc9bf;}.cls-10{fill:#78cbbf;}.cls-11{fill:#83cec2;}.cls-12{fill:#7eced1;}</style></defs><title>logo</title><g id="Layer_2" data-name="Layer 2"><g id="Layer_1-2" data-name="Layer 1"><path class="cls-1" d="M23.67,336.63H22.26a12.59,12.59,0,0,1-6-1.48c-2.23-1.15-3.47-2.66-3.72-4.5a17.32,17.32,0,0,0-5.78,4.24,8.91,8.91,0,0,0-2.49,5.87c0,2.37,1.26,4.7,3.79,7a30.92,30.92,0,0,0,7,4.73,19.75,19.75,0,0,0,3.81,1.72l-.35.63a20.21,20.21,0,0,1-4.38-1.29,27.27,27.27,0,0,1-8.14-4.45q-4.4-3.67-4.4-8.36a9.72,9.72,0,0,1,1.23-4.53,16.17,16.17,0,0,1,4-4.73,24,24,0,0,1,7-3.93l-5.65-4.51A9.56,9.56,0,0,0,6.47,322a3.91,3.91,0,0,0-1.67-.49H4.36a3.13,3.13,0,0,0-2.19,1,3.22,3.22,0,0,0-1.07,2.36v1.3l-.4.15a5,5,0,0,1-.35-.68,4.21,4.21,0,0,1-.35-1.6,5.72,5.72,0,0,1,1.12-3.63,3.87,3.87,0,0,1,3.24-1.59H4.8a7,7,0,0,1,2.55.54,9.71,9.71,0,0,1,2.57,1.53l5,4.16a6.69,6.69,0,0,0,2,1,8.06,8.06,0,0,0,2.54.45h4.16l-2.6,2.64H18.76a13,13,0,0,0-3.56.55A4.85,4.85,0,0,0,18,332.89a9.1,9.1,0,0,0,4.22,1.1h1.41Z"/><path class="cls-1" d="M48,336.63H42.26a9.84,9.84,0,0,1-4.2-.9A7.89,7.89,0,0,1,35,333.22a5.15,5.15,0,0,1-2.15,2.48,7.93,7.93,0,0,1-4,.93h-6V334h6a4.34,4.34,0,0,0,3.39-1.3,4.49,4.49,0,0,0,1.08-3.14v-1.39a9,9,0,0,1,2.05-6.05,6.66,6.66,0,0,1,5.32-2.42,6.53,6.53,0,0,1,5.31,2.54A9.87,9.87,0,0,1,48,328.64ZM45.31,334v-5.35a7.42,7.42,0,0,0-1.25-4.44,4.06,4.06,0,0,0-3.47-1.87A4.14,4.14,0,0,0,37.16,324a6.58,6.58,0,0,0-1.3,4.14,5.39,5.39,0,0,0,1.89,4.09A6.42,6.42,0,0,0,42.26,334Z"/><path class="cls-1" d="M56.87,336.63H50.36V302.09L53,299.45V334h3.87Z"/><path class="cls-1" d="M72.77,336.61l-17.51,0V334l17.51,0Z"/><path class="cls-1" d="M98.39,336.63h-.77A6.23,6.23,0,0,1,93.18,335a3.18,3.18,0,0,1-1.29,1.23,4.5,4.5,0,0,1-2.1.42,5.65,5.65,0,0,1-2.17-.44A4.69,4.69,0,0,1,85.86,335a4.19,4.19,0,0,1-1.39,1.26,4.57,4.57,0,0,1-2.11.41,6.19,6.19,0,0,1-2.51-.51A4.53,4.53,0,0,1,78,334.71a4.43,4.43,0,0,1-1.47,1.43,4,4,0,0,1-2.07.49H72.77V334h1.38a1.92,1.92,0,0,0,1.74-.85,4.47,4.47,0,0,0,.55-2.45v-8.36l2.64-2.64v11A3.26,3.26,0,0,0,80,333a2.8,2.8,0,0,0,2.08,1,1.93,1.93,0,0,0,1.81-.92,5,5,0,0,0,.44-2.38v-8.36L87,319.69v11a3.78,3.78,0,0,0,.72,2.33,2.2,2.2,0,0,0,1.83,1,1.52,1.52,0,0,0,1.56-1,6.83,6.83,0,0,0,.28-2.33v-8.36L94,319.69v11A2.94,2.94,0,0,0,95.11,333a3.78,3.78,0,0,0,2.51.95h.77Z"/><path class="cls-1" d="M109.15,336.63h-1a5.86,5.86,0,0,1-2.7-.53,3.88,3.88,0,0,1-1.63-1.63,2.8,2.8,0,0,1-1.39,1.58,5.39,5.39,0,0,1-2.59.58H98.39V334h1.48a2.21,2.21,0,0,0,1.87-.72,4,4,0,0,0,.55-2.36v-8.58l2.64-2.64v10.6a3.78,3.78,0,0,0,1,2.6,2.94,2.94,0,0,0,2.28,1.1h1Zm-5.94-21.41a1.8,1.8,0,0,1-.55,1.33,1.91,1.91,0,0,1-2.67,0,1.8,1.8,0,0,1-.56-1.34,1.88,1.88,0,0,1,1.89-1.89,1.85,1.85,0,0,1,1.34.55A1.83,1.83,0,0,1,103.21,315.22Zm4.64,0a1.8,1.8,0,0,1-.55,1.33,1.91,1.91,0,0,1-2.67,0,1.8,1.8,0,0,1-.56-1.34,1.83,1.83,0,0,1,.55-1.34,1.91,1.91,0,0,1,2.68,0A1.83,1.83,0,0,1,107.85,315.22Z"/><path class="cls-1" d="M116,330.91a5.78,5.78,0,0,1-1.5,4.35,5.51,5.51,0,0,1-4,1.37h-1.39V334h1.39a2.82,2.82,0,0,0,2.11-.77,3.18,3.18,0,0,0,.75-2.31V302.09l2.64-2.64Z"/><path class="cls-1" d="M125.56,336.63a35.55,35.55,0,0,1-.88,8.51,15.26,15.26,0,0,1-2,4.75,8.35,8.35,0,0,1-2,2.14h-.3c.07,0,.28-.38.63-1.13a16,16,0,0,0,1.21-3.76,33.28,33.28,0,0,0,.64-6.88V302.09l2.64-2.64Z"/><path class="cls-1" d="M167,330.7a5.81,5.81,0,0,1-1.5,4.36,5.51,5.51,0,0,1-4,1.36H144.14A11.37,11.37,0,0,1,138,335a5,5,0,0,1-2.48-4.51,7,7,0,0,1,1.52-4.09,28.49,28.49,0,0,1,2.72-3l1.26-1.26.42.58-.95,1.25q-1,1.37-1.5,2.07a7,7,0,0,0-1.43,3.65,3.51,3.51,0,0,0,2.31,3.23,9.69,9.69,0,0,0,4.27.88h17.34a3,3,0,0,0,2.09-.64,3.24,3.24,0,0,0,.77-2.44v-8.58l2.64-2.64Zm-14.06-10.45a1.77,1.77,0,0,1-.55,1.32,1.81,1.81,0,0,1-1.34.55,1.83,1.83,0,0,1-1.33-.54,1.74,1.74,0,0,1-.57-1.33,1.9,1.9,0,0,1,3.24-1.34A1.83,1.83,0,0,1,152.92,320.25Zm4.64,0a1.77,1.77,0,0,1-.55,1.32,1.81,1.81,0,0,1-1.34.55,1.85,1.85,0,0,1-1.33-.54,1.73,1.73,0,0,1-.56-1.33,1.88,1.88,0,0,1,1.89-1.89,1.85,1.85,0,0,1,1.34.55A1.83,1.83,0,0,1,157.56,320.25Z"/><path class="cls-1" d="M190.56,336.42h-4.47a33.5,33.5,0,0,1-.9,8.54,12.34,12.34,0,0,1-2.09,4.42c-.19.25-1,1.06-2.35,2.44h-.31a9.06,9.06,0,0,0,.77-1.41,23.17,23.17,0,0,0,1.47-3.72,18.53,18.53,0,0,0,.79-5.25v-5h-4.73a6.7,6.7,0,0,1-5.45-2.46,9.16,9.16,0,0,1-1.92-6,9,9,0,0,1,2.07-6,6.64,6.64,0,0,1,5.3-2.45,6.72,6.72,0,0,1,5.32,2.39,9,9,0,0,1,2.05,6.08v5.83h4.45Zm-7.09-2.64V328a6.44,6.44,0,0,0-1.25-4,4.26,4.26,0,0,0-6.9-.13A6.56,6.56,0,0,0,174,328a6.46,6.46,0,0,0,1.26,4.09,4.18,4.18,0,0,0,3.47,1.74Z"/><path class="cls-1" d="M261.15,330.9a5.49,5.49,0,0,1-1.41,3.85,5.35,5.35,0,0,1-4.16,1.67H236.81a18.08,18.08,0,0,1-6.21-1.14,11.25,11.25,0,0,1-4.5-2.64,5.15,5.15,0,0,1-1.95,2.67,5.35,5.35,0,0,1-3.28,1.11H190v-2.64h30.9A2.73,2.73,0,0,0,223,332.7a3.65,3.65,0,0,0,.9-2.42v-8.16l2.64-2.64v6.89a6.18,6.18,0,0,0,1.17,4,7.8,7.8,0,0,0,1.69,1.38l2.89-5.76a12.21,12.21,0,0,1,3.93-4.68,10,10,0,0,1,5.83-1.79h19.06Zm-2.64,0v-8.78H242.09a7.51,7.51,0,0,0-4.42,1.39,9.52,9.52,0,0,0-3,3.63l-2.86,5.74a14.54,14.54,0,0,0,2.4.66,13.89,13.89,0,0,0,2.57.24h18.77a2.77,2.77,0,0,0,2.12-.86A2.83,2.83,0,0,0,258.51,330.9Z"/><path class="cls-2" d="M177.64,355.3h1l1.45,4.84h0l1.45-4.84h1l-2.1,6.35h-.75Z"/><path class="cls-2" d="M182.88,358.48a11.49,11.49,0,0,1,.06-1.48,1.81,1.81,0,0,1,.22-.61,2.18,2.18,0,0,1,.74-.78,2.22,2.22,0,0,1,1.25-.36,2.28,2.28,0,0,1,1.26.36,2.11,2.11,0,0,1,.72.78,1.47,1.47,0,0,1,.23.61,21.78,21.78,0,0,1,0,2.95,1.46,1.46,0,0,1-.23.62,2,2,0,0,1-.72.77,2.29,2.29,0,0,1-1.26.37,2.23,2.23,0,0,1-1.25-.37,2.08,2.08,0,0,1-.74-.77l-.13-.28a3.19,3.19,0,0,1-.09-.34A11.41,11.41,0,0,1,182.88,358.48Zm1,0a7.1,7.1,0,0,0,.07,1.27,1,1,0,0,0,.24.53,1.16,1.16,0,0,0,.4.32,1.12,1.12,0,0,0,.59.14,1.1,1.1,0,0,0,.59-.14,1.12,1.12,0,0,0,.39-.32,1.05,1.05,0,0,0,.25-.53,7.1,7.1,0,0,0,.07-1.27,7.31,7.31,0,0,0-.07-1.28,1.06,1.06,0,0,0-.25-.52,1.27,1.27,0,0,0-.39-.33,1.32,1.32,0,0,0-.59-.13,1.35,1.35,0,0,0-.59.13,1.31,1.31,0,0,0-.4.33,1,1,0,0,0-.24.52A7.31,7.31,0,0,0,183.85,358.48Z"/><path class="cls-2" d="M188.54,355.3h1v6.35h-1Z"/><path class="cls-2" d="M195.12,359.88a2.42,2.42,0,0,1-.8,1.36,2.28,2.28,0,0,1-1.43.47,2.23,2.23,0,0,1-1.25-.37,2.08,2.08,0,0,1-.74-.77l-.13-.28a3.19,3.19,0,0,1-.09-.34,18.16,18.16,0,0,1,0-2.95,1.81,1.81,0,0,1,.22-.61,2.18,2.18,0,0,1,.74-.78,2.22,2.22,0,0,1,1.25-.36,2.13,2.13,0,0,1,1.49.55,2.42,2.42,0,0,1,.74,1.33h-1a1.4,1.4,0,0,0-.43-.65,1.22,1.22,0,0,0-.78-.26,1.35,1.35,0,0,0-.59.13,1.31,1.31,0,0,0-.4.33,1.15,1.15,0,0,0-.25.52,8.5,8.5,0,0,0-.07,1.28,8.24,8.24,0,0,0,.07,1.27,1.14,1.14,0,0,0,.25.53,1.16,1.16,0,0,0,.4.32,1.12,1.12,0,0,0,.59.14,1.28,1.28,0,0,0,1.21-.86Z"/><path class="cls-2" d="M195.8,355.3h4v.92h-3.09V358h2.64v.85h-2.64v1.86h3.09v.91h-4Z"/><path class="cls-2" d="M202.68,358.48a11.49,11.49,0,0,1,.06-1.48,1.81,1.81,0,0,1,.22-.61,2.18,2.18,0,0,1,.74-.78,2.22,2.22,0,0,1,1.25-.36,2.28,2.28,0,0,1,1.26.36,2.2,2.2,0,0,1,.72.78,1.47,1.47,0,0,1,.22.61,18.16,18.16,0,0,1,0,2.95,1.46,1.46,0,0,1-.22.62,2.09,2.09,0,0,1-.72.77,2.29,2.29,0,0,1-1.26.37,2.23,2.23,0,0,1-1.25-.37,2.08,2.08,0,0,1-.74-.77l-.13-.28a1.28,1.28,0,0,1-.09-.34A11.41,11.41,0,0,1,202.68,358.48Zm1,0a8.24,8.24,0,0,0,.07,1.27,1.05,1.05,0,0,0,.25.53,1.16,1.16,0,0,0,.4.32,1.1,1.1,0,0,0,.59.14,1.15,1.15,0,0,0,.59-.14,1.12,1.12,0,0,0,.39-.32,1.05,1.05,0,0,0,.25-.53,7.1,7.1,0,0,0,.07-1.27,7.31,7.31,0,0,0-.07-1.28,1.06,1.06,0,0,0-.25-.52,1.27,1.27,0,0,0-.39-.33,1.38,1.38,0,0,0-.59-.13,1.2,1.2,0,0,0-1,.46,1.06,1.06,0,0,0-.25.52A8.5,8.5,0,0,0,203.64,358.48Z"/><path class="cls-2" d="M208.33,355.3h4.06v.92H209.3v1.87h2.64v.85H209.3v2.71h-1Z"/><path class="cls-2" d="M216.34,356.16H214.6v-.86H219v.86H217.3v5.49h-1Z"/><path class="cls-2" d="M219.34,358.48a10.9,10.9,0,0,1,.07-1.48,2.07,2.07,0,0,1,.21-.61,2.26,2.26,0,0,1,2-1.14,2.23,2.23,0,0,1,1.26.36,2.14,2.14,0,0,1,.73.78,1.47,1.47,0,0,1,.22.61,18.16,18.16,0,0,1,0,2.95,1.46,1.46,0,0,1-.22.62,2,2,0,0,1-.73.77,2.31,2.31,0,0,1-2.51,0,2.16,2.16,0,0,1-.74-.77c0-.1-.09-.19-.12-.28a1.28,1.28,0,0,1-.09-.34A10.83,10.83,0,0,1,219.34,358.48Zm1,0a7.1,7.1,0,0,0,.07,1.27,1,1,0,0,0,.25.53,1.07,1.07,0,0,0,.4.32,1.09,1.09,0,0,0,.58.14,1.16,1.16,0,0,0,.6-.14,1,1,0,0,0,.38-.32,1.06,1.06,0,0,0,.26-.53,8.24,8.24,0,0,0,.07-1.27,8.5,8.5,0,0,0-.07-1.28,1.07,1.07,0,0,0-.26-.52,1.12,1.12,0,0,0-.38-.33,1.4,1.4,0,0,0-.6-.13,1.31,1.31,0,0,0-.58.13,1.2,1.2,0,0,0-.4.33,1,1,0,0,0-.25.52A7.31,7.31,0,0,0,220.31,358.48Z"/><path class="cls-2" d="M225,355.3h1v5.44h3.1v.91H225Z"/><path class="cls-2" d="M230,355.3H234v.92h-3.1V358h2.64v.85h-2.64v1.86H234v.91H230Z"/><path class="cls-2" d="M234.92,355.3h2.48a1.93,1.93,0,0,1,1.29.42,1.66,1.66,0,0,1,.63,1.36,1.77,1.77,0,0,1-1.22,1.76l1.47,2.81h-1.15l-1.31-2.71h-1.23v2.71h-1Zm1,2.79h1.46a1,1,0,0,0,.81-.32.94.94,0,0,0,.26-.69.85.85,0,0,0-.31-.72,1.13,1.13,0,0,0-.71-.2h-1.51Z"/><path class="cls-2" d="M243.61,360.23h-2.4l-.49,1.42h-1L242,355.3h.8l2.31,6.35h-1Zm-.27-.85-.92-2.77h0l-.92,2.77Z"/><path class="cls-2" d="M245.8,355.3h.91l2.87,4.52h0V355.3h1v6.35h-.91l-2.87-4.51h0v4.51h-1Z"/><path class="cls-2" d="M256.18,359.88a2.36,2.36,0,0,1-.8,1.36,2.28,2.28,0,0,1-1.43.47,2.25,2.25,0,0,1-1.25-.37,2.16,2.16,0,0,1-.74-.77c0-.1-.09-.19-.12-.28a1.28,1.28,0,0,1-.09-.34,15.58,15.58,0,0,1,0-2.95,1.81,1.81,0,0,1,.21-.61,2.26,2.26,0,0,1,2-1.14,2.18,2.18,0,0,1,1.5.55,2.35,2.35,0,0,1,.73,1.33h-1a1.46,1.46,0,0,0-.42-.65,1.25,1.25,0,0,0-.79-.26,1.31,1.31,0,0,0-.58.13,1.2,1.2,0,0,0-.4.33,1,1,0,0,0-.25.52,7.31,7.31,0,0,0-.07,1.28,7.1,7.1,0,0,0,.07,1.27,1,1,0,0,0,.25.53,1.07,1.07,0,0,0,.4.32,1.09,1.09,0,0,0,.58.14,1.27,1.27,0,0,0,1.21-.86Z"/><path class="cls-2" d="M256.86,355.3h4.06v.92h-3.1V358h2.64v.85h-2.64v1.86h3.1v.91h-4.06Z"/><path class="cls-3" d="M36.8,140.17S36.32,135,36,127.22c-.19-3.89-.34-8.42-.44-13.28,0-2.42-.12-4.93-.13-7.48s0-5.14,0-7.73,0-5.19,0-7.73.09-5.06.12-7.49c.1-4.86.26-9.39.44-13.28.34-7.77.83-13,.83-13s.48,5.18.82,13c.19,3.89.34,8.42.44,13.28,0,2.43.12,4.94.12,7.49s0,5.14,0,7.73,0,5.18,0,7.73-.09,5.06-.12,7.48c-.1,4.86-.26,9.39-.44,13.28C37.28,135,36.8,140.17,36.8,140.17Z"/><path class="cls-4" d="M29.55,137.24s-.32-4.3-.55-10.74c-.13-3.22-.23-7-.3-11,0-2-.08-4.09-.09-6.2s0-4.26,0-6.41,0-4.3,0-6.41.06-4.19.09-6.21c.06-4,.17-7.78.29-11,.24-6.44.56-10.74.56-10.74s.33,4.3.56,10.74c.13,3.22.23,7,.3,11,0,2,.09,4.1.09,6.21s0,4.26,0,6.41,0,4.29,0,6.41,0,4.19-.08,6.2c-.07,4-.17,7.79-.3,11C29.88,132.94,29.55,137.24,29.55,137.24Z"/><path class="cls-4" d="M22.31,132.23s-.28-3.47-.48-8.66c-.11-2.6-.2-5.63-.26-8.87,0-1.63-.06-3.3-.07-5s0-3.43,0-5.16,0-3.47,0-5.17.05-3.38.07-5c.06-3.24.15-6.27.26-8.87.2-5.19.48-8.66.48-8.66s.29,3.47.48,8.66c.11,2.6.2,5.63.26,8.87,0,1.63.07,3.31.07,5s0,3.43,0,5.17,0,3.46,0,5.16-.05,3.38-.07,5c-.06,3.24-.15,6.27-.26,8.87C22.59,128.76,22.31,132.23,22.31,132.23Z"/><path class="cls-4" d="M15.91,123.5s-.3-2.47-.51-6.18c-.11-1.85-.21-4-.27-6.33,0-1.16-.08-2.35-.08-3.57s0-2.45,0-3.69,0-2.47,0-3.68,0-2.41.07-3.57c.07-2.32.16-4.48.28-6.33.21-3.71.51-6.18.51-6.18s.3,2.47.51,6.18c.12,1.85.21,4,.28,6.33,0,1.16.07,2.35.07,3.57s0,2.45,0,3.68,0,2.48,0,3.69-.05,2.41-.07,3.57c-.07,2.32-.16,4.48-.28,6.33C16.21,121,15.91,123.5,15.91,123.5Z"/><path class="cls-4" d="M11.25,112.24a26.75,26.75,0,0,1-.37-2.66c-.08-.79-.15-1.72-.2-2.72,0-.5,0-1,0-1.54s0-1,0-1.59,0-1.06,0-1.58,0-1,0-1.54c.05-1,.12-1.93.2-2.72a26.75,26.75,0,0,1,.37-2.66s.21,1.06.36,2.66c.09.79.16,1.72.2,2.72,0,.5.06,1,.06,1.54s0,1,0,1.58,0,1.07,0,1.59,0,1-.06,1.54c-.05,1-.11,1.93-.2,2.72C11.46,111.18,11.25,112.24,11.25,112.24Z"/><path class="cls-5" d="M260.05,114.6s-.24-3.94-.41-9.85c-.09-3-.16-6.41-.22-10.1,0-1.85-.05-3.76-.06-5.7s0-3.91,0-5.88,0-3.94,0-5.88,0-3.85.06-5.7c.05-3.69.13-7.14.22-10.1.17-5.91.41-9.85.41-9.85s.24,3.94.41,9.85c.09,3,.16,6.41.21,10.1,0,1.85.06,3.76.06,5.7s0,3.91,0,5.88,0,3.94,0,5.88,0,3.85-.06,5.7c-.05,3.69-.13,7.14-.22,10.1C260.29,110.66,260.05,114.6,260.05,114.6Z"/><path class="cls-5" d="M265.7,99.44s-.38-2.52-.66-6.29c-.14-1.89-.27-4.09-.35-6.45,0-1.18-.09-2.4-.1-3.64s0-2.5,0-3.75,0-2.52,0-3.76.07-2.46.1-3.64c.08-2.35.2-4.56.35-6.44.27-3.78.66-6.29.66-6.29s.38,2.51.66,6.29c.14,1.88.27,4.09.35,6.44,0,1.18.09,2.4.09,3.64s0,2.5,0,3.76,0,2.51,0,3.75-.07,2.46-.09,3.64c-.09,2.36-.21,4.56-.36,6.45C266.08,96.92,265.7,99.44,265.7,99.44Z"/><path class="cls-3" d="M44.92,143s-.13-1.59-.28-4.38-.38-6.78-.54-11.56-.34-10.37-.45-16.35c0-3-.11-6.08-.12-9.22s0-6.33-.05-9.52,0-6.38.05-9.52.08-6.23.12-9.22c.1-6,.26-11.56.44-16.34s.42-8.78.55-11.57.28-4.38.28-4.38.12,1.59.28,4.38.38,6.78.54,11.57.34,10.36.44,16.34c0,3,.12,6.08.12,9.22s0,6.33.05,9.52,0,6.38-.05,9.52-.09,6.23-.12,9.22c-.1,6-.26,11.56-.44,16.35s-.42,8.77-.55,11.56S44.92,143,44.92,143Z"/><path class="cls-3" d="M53,146.41s-.12-1.8-.27-4.95-.38-7.64-.55-13-.33-11.69-.44-18.44c0-3.37-.08-6.85-.12-10.4s0-7.13,0-10.73,0-7.2,0-10.74.08-7,.12-10.4c.1-6.74.26-13,.44-18.43s.42-9.9.55-13,.27-5,.27-5,.13,1.8.29,5,.38,7.64.54,13S54.2,61,54.3,67.71c0,3.38.12,6.86.12,10.4s0,7.14,0,10.74,0,7.19,0,10.73-.08,7-.12,10.4c-.11,6.75-.26,13-.44,18.44s-.42,9.89-.55,13S53,146.41,53,146.41Z"/><path class="cls-3" d="M61.15,149.49s-.12-2-.27-5.36-.39-8.28-.55-14.12-.33-12.67-.44-20c0-3.65-.08-7.43-.12-11.26s0-7.73-.05-11.63,0-7.79.05-11.63.08-7.61.12-11.26c.1-7.3.25-14.12.44-20s.42-10.71.54-14.12.28-5.36.28-5.36.13,2,.28,5.36.39,8.28.55,14.12.34,12.67.44,20c0,3.65.12,7.43.12,11.26s0,7.73.05,11.63,0,7.79-.05,11.63-.08,7.61-.12,11.26c-.11,7.3-.26,14.12-.44,20s-.43,10.71-.55,14.12S61.15,149.49,61.15,149.49Z"/><path class="cls-2" d="M69.27,149.49s-.48-8-.82-20c-.18-6-.34-13-.44-20.49,0-3.75-.12-7.62-.12-11.55s0-7.94,0-11.94,0-8,0-11.93S68,65.79,68,62c.1-7.5.25-14.49.44-20.49.34-12,.82-20,.82-20s.49,8,.83,20c.18,6,.34,13,.44,20.49,0,3.75.12,7.62.12,11.55s0,7.94,0,11.93,0,8,0,11.94-.09,7.8-.12,11.55c-.11,7.5-.26,14.49-.45,20.49C69.75,141.49,69.27,149.49,69.27,149.49Z"/><path class="cls-2" d="M77.39,150.11s-.12-2-.28-5.58-.38-8.62-.54-14.7-.34-13.18-.44-20.79c0-3.8-.08-7.73-.12-11.72s0-8-.05-12.11,0-8.11.05-12.1.08-7.93.12-11.73c.1-7.6.25-14.7.44-20.79s.42-11.15.54-14.7.28-5.58.28-5.58.13,2,.28,5.58.39,8.62.55,14.7.34,13.19.44,20.79c0,3.8.12,7.73.12,11.73s0,8,0,12.1,0,8.11,0,12.11-.09,7.92-.13,11.72c-.1,7.61-.25,14.71-.44,20.79s-.42,11.15-.54,14.7S77.39,150.11,77.39,150.11Z"/><path class="cls-6" d="M85.51,145.93s-.12-2-.28-5.5-.38-8.5-.54-14.5-.34-13-.44-20.5c0-3.75-.08-7.62-.12-11.56s0-7.94,0-11.94,0-8,0-11.93.08-7.82.12-11.57c.1-7.5.25-14.5.44-20.5s.42-11,.54-14.5.28-5.5.28-5.5.13,2,.28,5.5.39,8.5.55,14.5.34,13,.44,20.5c0,3.75.12,7.63.12,11.57s0,7.93,0,11.93,0,8,0,11.94-.09,7.81-.13,11.56c-.1,7.5-.25,14.5-.44,20.5s-.42,11-.54,14.5S85.51,145.93,85.51,145.93Z"/><path class="cls-7" d="M93.63,142.14s-.48-7.87-.82-19.68c-.18-5.91-.34-12.8-.44-20.18,0-3.69-.12-7.51-.12-11.38s0-7.82,0-11.75,0-7.88,0-11.75.08-7.69.12-11.38c.1-7.38.25-14.27.44-20.18.34-11.81.82-19.68.82-19.68s.48,7.87.83,19.68c.18,5.91.34,12.8.44,20.18,0,3.69.12,7.51.12,11.38s0,7.81,0,11.75S95,87,95,90.9s-.09,7.69-.13,11.38c-.1,7.38-.25,14.27-.44,20.18C94.11,134.27,93.63,142.14,93.63,142.14Z"/><path class="cls-8" d="M101.75,143.82s-.48-4.66-.82-11.66c-.19-3.5-.34-13.31-.44-17.69,0-2.18-.12-4.44-.12-6.74s0-4.63-.05-7,0-4.67,0-7,.09-4.56.13-6.75c.1-4.37.25-60.56.44-64,.34-7,.82-11.67.82-11.67s.48,4.67.82,11.67c.19,3.49.34,59.68.44,64.05,0,2.19.13,4.45.13,6.75s0,4.63,0,7,0,4.66,0,7-.09,4.56-.13,6.74c-.1,4.38-.25,14.19-.44,17.69C102.23,139.16,101.75,143.82,101.75,143.82Z"/><path class="cls-9" d="M109.87,135.8s-.13-2.12-.28-5.83-.38-9-.54-15.39-.34-13.79-.44-21.75c0-4-.12-8.08-.13-12.26s0-8.42,0-12.67,0-8.49,0-12.66.09-8.29.13-12.27c.09-8,.25-15.38.43-21.75s.43-11.67.55-15.38.28-5.84.28-5.84.13,2.12.28,5.84.38,9,.54,15.38S111,35,111.13,43c0,4,.13,8.09.13,12.27s0,8.42,0,12.66,0,8.49,0,12.67-.08,8.29-.12,12.26c-.1,8-.25,15.39-.44,21.75s-.42,11.68-.54,15.39S109.87,135.8,109.87,135.8Z"/><path class="cls-9" d="M109.87,155.07s0-.25-.07-.7-.1-1.08-.14-1.84-.09-1.65-.11-2.61c0-.48,0-1,0-1.47s0-1,0-1.52,0-1,0-1.52,0-1,0-1.47c0-.95.06-1.84.11-2.6s.11-1.4.14-1.85.07-.7.07-.7,0,.26.07.7.1,1.08.14,1.85.09,1.65.11,2.6c0,.48,0,1,0,1.47s0,1,0,1.52,0,1,0,1.52,0,1,0,1.47c0,1-.06,1.85-.11,2.61s-.11,1.4-.14,1.84S109.87,155.07,109.87,155.07Z"/><path class="cls-10" d="M118,163.21s0-.25-.07-.7-.09-1.08-.12-1.84-.08-1.65-.11-2.61c0-.47,0-1,0-1.47s0-1,0-1.52,0-1,0-1.51,0-1,0-1.48c0-1,.06-1.84.1-2.6s.1-1.4.13-1.85.07-.7.07-.7,0,.26.06.7.1,1.08.13,1.85.08,1.65.11,2.6c0,.48,0,1,0,1.48s0,1,0,1.51,0,1,0,1.52,0,1,0,1.47c0,1-.06,1.85-.11,2.61s-.1,1.4-.13,1.84S118,163.21,118,163.21Z"/><path class="cls-11" d="M126.11,172.13s0-.2-.06-.56-.08-.86-.11-1.47-.07-1.32-.09-2.08c0-.38,0-.77,0-1.17s0-.81,0-1.22,0-.81,0-1.21,0-.79,0-1.17c0-.76.05-1.48.09-2.08s.09-1.12.11-1.48.06-.56.06-.56,0,.21.06.56.07.87.11,1.48.07,1.32.09,2.08c0,.38,0,.77,0,1.17s0,.81,0,1.21,0,.82,0,1.22,0,.79,0,1.17c0,.76-.06,1.47-.09,2.08s-.09,1.12-.11,1.47S126.11,172.13,126.11,172.13Z"/><path class="cls-12" d="M150.47,184.54s-.05-.39-.1-1.07-.14-1.65-.19-2.81-.12-2.52-.16-4c0-.73,0-1.48,0-2.24s0-1.54,0-2.32,0-1.55,0-2.31,0-1.52,0-2.24c0-1.46.09-2.81.15-4s.15-2.13.2-2.81.1-1.06.1-1.06,0,.39.09,1.06.14,1.65.2,2.81.12,2.52.15,4c0,.72,0,1.48,0,2.24s0,1.54,0,2.31,0,1.55,0,2.32,0,1.51,0,2.24c0,1.45-.09,2.81-.15,4s-.15,2.13-.2,2.81S150.47,184.54,150.47,184.54Z"/><path class="cls-11" d="M158.58,164.25s0-.39-.06-1.06-.08-1.65-.12-2.81-.07-2.52-.09-4c0-.72,0-1.48,0-2.24s0-1.54,0-2.31,0-1.55,0-2.32,0-1.51,0-2.24c0-1.45.06-2.81.1-4s.1-2.13.12-2.81.06-1.07.06-1.07,0,.39.07,1.07.08,1.65.12,2.81.07,2.52.09,4c0,.73,0,1.48,0,2.24s0,1.54,0,2.32,0,1.55,0,2.31,0,1.52,0,2.24c0,1.46-.05,2.81-.09,4s-.1,2.13-.12,2.81S158.58,164.25,158.58,164.25Z"/><path class="cls-10" d="M174.51,150.12s0-.35-.07-1-.08-1.5-.12-2.56-.07-2.29-.09-3.61c0-.66,0-1.34,0-2s0-1.4,0-2.1,0-1.41,0-2.11,0-1.37,0-2c0-1.33.05-2.56.09-3.62s.1-1.94.12-2.55.07-1,.07-1,0,.35.06,1,.08,1.49.12,2.55.07,2.29.1,3.62c0,.66,0,1.34,0,2s0,1.4,0,2.11,0,1.41,0,2.1,0,1.38,0,2c0,1.32-.05,2.55-.09,3.61s-.1,1.94-.12,2.56S174.51,150.12,174.51,150.12Z"/><path class="cls-10" d="M166.7,155.6s0-.21-.06-.57-.09-.9-.13-1.53-.08-1.37-.1-2.16c0-.39,0-.8,0-1.21s0-.84,0-1.26,0-.84,0-1.25,0-.82,0-1.22c0-.79.06-1.52.1-2.16s.1-1.15.13-1.52.06-.58.06-.58,0,.21.07.58.09.89.13,1.52.07,1.37.1,2.16c0,.4,0,.8,0,1.22s0,.83,0,1.25,0,.84,0,1.26,0,.82,0,1.21c0,.79-.06,1.53-.11,2.16s-.09,1.16-.12,1.53S166.7,155.6,166.7,155.6Z"/><path class="cls-10" d="M118,140s-.48-8.75-.82-21.87c-.19-6.56-.34-14.21-.44-22.41,0-4.1-.12-8.34-.13-12.65s0-8.68,0-13,0-8.75,0-13.05.09-8.54.12-12.65c.1-8.2.26-15.85.44-22.41C117.51,8.75,118,0,118,0s.48,8.75.82,21.87c.19,6.56.34,14.21.44,22.41,0,4.11.12,8.34.12,12.65s0,8.68,0,13.05,0,8.75,0,13-.08,8.55-.12,12.65c-.1,8.2-.26,15.85-.44,22.41C118.47,131.21,118,140,118,140Z"/><path class="cls-11" d="M126.11,155.07s-.48-9.62-.82-24.06c-.19-7.22-.34-15.64-.44-24.66,0-4.51-.12-9.18-.13-13.91s0-9.55,0-14.37,0-9.62,0-14.36.09-9.4.12-13.91c.1-9,.26-17.44.44-24.66.34-14.44.83-24.06.83-24.06s.48,9.62.82,24.06c.19,7.22.34,15.64.44,24.66,0,4.51.12,9.18.12,13.91s0,9.55.05,14.36,0,9.63-.05,14.37-.08,9.4-.12,13.91c-.1,9-.26,17.44-.44,24.66C126.59,145.45,126.11,155.07,126.11,155.07Z"/><path class="cls-12" d="M134.23,225.75s-.48-15-.82-37.44c-.19-11.23-.34-6.8-.44-20.84s-.18-29-.18-44,.06-29.94.17-44,.26-27.15.44-38.38c.34-22.47.83-37.44.83-37.44s.48,15,.82,37.44c.19,11.23.34,24.34.44,38.38s.17,29,.17,44-.06,30-.17,44-.26,9.61-.44,20.84C134.71,210.77,134.23,225.75,134.23,225.75Z"/><path class="cls-12" d="M142.35,278.43s-.48-17.12-.82-42.8c-.19-12.84-.34-27.82-.45-43.87,0-8-.11-16.32-.12-24.74s0-17-.05-25.55,0-17.12.05-25.55.09-16.72.12-24.75c.1-16,.26-31,.44-43.87.34-25.68.83-42.8.83-42.8s.48,17.12.82,42.8c.19,12.84.34,27.82.44,43.87,0,8,.12,16.33.12,24.75s0,17,.05,25.55,0,17.12-.05,25.55-.08,16.72-.12,24.74c-.1,16.05-.26,31-.44,43.87C142.83,261.31,142.35,278.43,142.35,278.43Z"/><path class="cls-12" d="M150.47,151.05s-1.16-23.73-1.27-33.5c0-4.88-.11-9.92-.12-15s0-10.33-.05-15.54,0-10.42.05-15.54.08-10.17.12-15.05c.1-9.77.26-18.88.44-26.69.34-15.63.83-26,.83-26s.48,10.41.82,26c.19,7.81.34,16.92.44,26.69,0,4.88.12,9.92.12,15.05s0,10.33.05,15.54,0,10.42-.05,15.54-.09,10.17-.12,15C151.62,127.32,150.47,151.05,150.47,151.05Z"/><path class="cls-11" d="M158.59,137.48s-.13-2.1-.28-5.76-.39-8.9-.55-15.19-.33-13.61-.44-21.47c0-3.93-.08-8-.12-12.11s0-8.31,0-12.5,0-8.38,0-12.5.08-8.19.12-12.12c.1-7.85.25-15.18.44-21.47s.42-11.52.54-15.18.29-5.76.29-5.76.12,2.09.27,5.76.39,8.9.55,15.18.34,13.62.44,21.47c0,3.93.12,8,.12,12.12s0,8.31.05,12.5,0,8.38-.05,12.5-.08,8.18-.12,12.11c-.11,7.86-.26,15.19-.44,21.47s-.42,11.52-.55,15.19S158.59,137.48,158.59,137.48Z"/><path class="cls-10" d="M166.7,140.25s-.12-2.16-.27-5.92-.38-9.14-.55-15.59-.34-14-.44-22c0-4-.08-8.2-.12-12.43s0-8.54,0-12.84,0-8.6,0-12.84.08-8.4.12-12.43c.1-8.07.25-15.6.44-22s.42-11.83.54-15.59.28-5.92.28-5.92.13,2.15.28,5.92.39,9.14.55,15.59.34,14,.44,22c0,4,.12,8.2.12,12.43s0,8.54,0,12.84,0,8.6,0,12.84-.08,8.4-.12,12.43c-.11,8.07-.26,15.59-.45,22s-.42,11.83-.54,15.59S166.7,140.25,166.7,140.25Z"/><path class="cls-8" d="M174.82,124.47s-.12-1.85-.28-5.09-.38-7.87-.54-13.42-.34-12-.44-19c0-3.47-.08-7-.12-10.7s0-7.34-.05-11,0-7.41.05-11,.08-7.23.12-10.7c.1-6.94.25-13.42.44-19s.42-10.18.54-13.42.28-5.09.28-5.09.13,1.85.28,5.09.39,7.86.55,13.42.34,12,.44,19c0,3.47.12,7.06.12,10.7s0,7.34,0,11,0,7.4,0,11-.09,7.23-.13,10.7c-.1,7-.25,13.42-.44,19s-.42,10.18-.54,13.42S174.82,124.47,174.82,124.47Z"/><path class="cls-8" d="M182.94,129.86s-.12-1.9-.28-5.22-.38-8.06-.54-13.76-.34-12.33-.44-19.44c0-3.56-.08-7.24-.12-11s0-7.53-.05-11.33,0-7.59.05-11.32.08-7.41.12-11c.1-7.12.25-13.76.44-19.45s.42-10.43.54-13.75.28-5.22.28-5.22.13,1.9.28,5.22.39,8.06.55,13.75.34,12.33.44,19.45c0,3.56.12,7.23.12,11s0,7.53,0,11.32,0,7.59,0,11.33-.09,7.41-.13,11c-.1,7.11-.25,13.75-.44,19.44s-.42,10.44-.54,13.76S182.94,129.86,182.94,129.86Z"/><path class="cls-7" d="M191.06,128s-.48-7.2-.82-18c-.18-5.4-.34-11.7-.44-18.45,0-3.37-.12-6.86-.12-10.4s0-7.14-.05-10.74,0-7.2.05-10.74.08-7,.12-10.4c.1-6.75.25-13.05.44-18.45.34-10.8.82-18,.82-18s.48,7.19.83,18c.18,5.4.34,11.7.44,18.45,0,3.37.12,6.86.12,10.4s0,7.14.05,10.74,0,7.2-.05,10.74-.09,7-.13,10.4c-.1,6.75-.25,13-.44,18.45C191.54,120.83,191.06,128,191.06,128Z"/><path class="cls-6" d="M199.18,130.73s-.48-7.25-.82-18.12c-.19-5.44-.34-11.78-.44-18.58,0-3.39-.12-6.91-.12-10.47s0-7.19-.05-10.82,0-7.25,0-10.82.09-7.07.13-10.47c.1-6.79.25-13.14.44-18.57.34-10.88.82-18.12.82-18.12s.48,7.24.83,18.12c.18,5.43.34,11.78.43,18.57,0,3.4.13,6.91.13,10.47s0,7.2.05,10.82,0,7.25-.05,10.82-.09,7.08-.13,10.47c-.1,6.8-.25,13.14-.44,18.58C199.66,123.48,199.18,130.73,199.18,130.73Z"/><path class="cls-2" d="M207.3,128.71s-.13-1.81-.28-5-.38-7.7-.54-13.15S206.14,98.78,206,92c0-3.4-.08-6.92-.13-10.49s0-7.2,0-10.83,0-7.25,0-10.82.09-7.09.13-10.49c.1-6.8.25-13.16.44-18.6s.42-10,.54-13.15.28-5,.28-5,.13,1.82.28,5,.38,7.71.54,13.15.34,11.8.44,18.6c0,3.4.13,6.91.13,10.49s0,7.19,0,10.82,0,7.26,0,10.83-.08,7.09-.12,10.49c-.1,6.8-.25,13.15-.44,18.59s-.42,10-.54,13.15S207.3,128.71,207.3,128.71Z"/><path class="cls-2" d="M215.42,128.71s-.13-1.75-.28-4.81-.38-7.44-.54-12.7-.34-11.38-.44-18c0-3.28-.08-6.67-.13-10.12s0-6.95-.05-10.45,0-7,.05-10.45.09-6.84.12-10.13c.1-6.56.26-12.69.44-17.94s.43-9.64.55-12.7.28-4.82.28-4.82.13,1.76.28,4.82.38,7.44.54,12.7.34,11.38.44,17.94c0,3.29.13,6.68.13,10.13s0,7,0,10.45,0,7,0,10.45-.09,6.84-.13,10.12c-.1,6.57-.26,12.7-.44,18s-.42,9.63-.54,12.7S215.42,128.71,215.42,128.71Z"/><path class="cls-3" d="M223.54,131.89s-.13-1.67-.28-4.61-.38-7.11-.54-12.14-.34-10.88-.44-17.17c0-3.14-.12-6.38-.13-9.68s0-6.65-.05-10,0-6.69.05-10,.09-6.54.12-9.69c.1-6.28.26-12.14.44-17.16s.43-9.21.55-12.15.28-4.6.28-4.6.13,1.67.28,4.6.38,7.12.54,12.15.34,10.88.44,17.16c0,3.15.12,6.39.13,9.69s0,6.64,0,10,0,6.7-.05,10-.08,6.54-.12,9.68c-.1,6.29-.26,12.15-.44,17.17s-.42,9.21-.54,12.14S223.54,131.89,223.54,131.89Z"/><path class="cls-3" d="M231.66,135.53s-.48-6.59-.82-16.47c-.19-4.94-.34-10.71-.44-16.88,0-3.09-.12-6.28-.13-9.52s0-6.54-.05-9.84,0-6.59.05-9.82.09-6.44.12-9.53c.1-6.18.26-11.94.44-16.88.34-9.89.83-16.47.83-16.47s.48,6.58.82,16.47c.19,4.94.34,10.7.44,16.88,0,3.09.12,6.28.12,9.53s0,6.53.05,9.82,0,6.59-.05,9.84-.08,6.43-.12,9.52c-.1,6.17-.26,11.94-.44,16.88C232.14,128.94,231.66,135.53,231.66,135.53Z"/><path class="cls-3" d="M239.78,133.93s-.41-5.89-.69-14.73c-.16-4.43-.28-9.59-.37-15.11s-.15-11.42-.15-17.32.05-11.79.15-17.32.21-10.69.37-15.11c.28-8.84.69-14.73.69-14.73s.4,5.89.69,14.73c.15,4.42.28,9.58.37,15.11s.14,11.42.14,17.32-.06,11.79-.15,17.32-.21,10.68-.37,15.11C240.18,128,239.78,133.93,239.78,133.93Z"/><path class="cls-4" d="M246.67,129.59s-.41-5.36-.69-13.4c-.16-4-.29-8.72-.37-13.74s-.15-10.39-.15-15.76,0-10.72.15-15.75.21-9.72.37-13.74c.28-8.05.69-13.41.69-13.41s.4,5.36.69,13.41c.15,4,.28,8.71.37,13.74s.14,10.39.14,15.75-.06,10.73-.15,15.76-.21,9.72-.37,13.74C247.07,124.23,246.67,129.59,246.67,129.59Z"/><path class="cls-5" d="M253.42,125.77s-.4-5.13-.69-12.81c-.15-3.84-.28-8.33-.37-13.13s-.14-9.93-.14-15,.05-10.25.14-15,.21-9.29.37-13.13c.28-7.69.69-12.81.69-12.81s.4,5.12.69,12.81c.15,3.84.28,8.33.37,13.13s.14,9.92.14,15-.05,10.25-.15,15-.21,9.29-.36,13.13C253.82,120.64,253.42,125.77,253.42,125.77Z"/></g></g></svg>