<svg xmlns="http://www.w3.org/2000/svg" viewBox="0 0 43.31 22.23"><defs><style>.cls-1{fill:#6f7271;}.cls-2{fill:#a81b8d;}.cls-3{fill:#c2d500;}</style></defs><title>11</title><g id="Layer_2" data-name="Layer 2"><g id="Layer_1-2" data-name="Layer 1"><path class="cls-1" d="M.7,21.54l-.16-.1a.66.66,0,0,1-.19-.14.2.2,0,0,1-.06-.14A.17.17,0,0,1,.35,21,.21.21,0,0,1,.52,21a.26.26,0,0,1,.14,0,.4.4,0,0,1,.1.12v0L.86,21h0a.39.39,0,0,0-.32-.15.33.33,0,0,0-.27.11.3.3,0,0,0-.1.23.29.29,0,0,0,.09.22,1.74,1.74,0,0,0,.24.17l.19.13a.19.19,0,0,1,.07.16A.21.21,0,0,1,.68,22a.28.28,0,0,1-.21.07A.31.31,0,0,1,.27,22a.27.27,0,0,1-.09-.12v0l-.08.17h0a.48.48,0,0,0,.16.13.65.65,0,0,0,.2,0,.41.41,0,0,0,.16,0,.46.46,0,0,0,.14-.07A.3.3,0,0,0,.85,22a.29.29,0,0,0,0-.16.32.32,0,0,0-.11-.24A.21.21,0,0,0,.7,21.54Zm1.38-.08H1.26v-.61H1.13V22.2h.13v-.63h.82v.63h.13V20.85H2.08Zm.85-.61-.6,1.35h.16l.2-.48h.6l.22.48h.15L3,20.85Zm-.19.75L3,21.05l.26.55Zm1.73-.19a.4.4,0,0,0,.08-.23A.33.33,0,0,0,4.49,21a.35.35,0,0,0-.13-.11,1,1,0,0,0-.29,0H3.78V22.2h.14v-.63h.15l.49.63h.18l-.5-.64A.42.42,0,0,0,4.47,21.41Zm-.42,0H3.92V21h.35a.18.18,0,0,1,.13.2.28.28,0,0,1,0,.13.16.16,0,0,1-.08.1.29.29,0,0,1-.1,0Zm1.22.37a.39.39,0,0,1,0,.18s0,0,0,0a.19.19,0,0,1-.12.07h0l-.12,0s0,0-.06,0l.05,0A.18.18,0,0,1,4.85,22h0l-.09.11h0a.39.39,0,0,0,.31.13h0a.32.32,0,0,0,.28-.14A.37.37,0,0,0,5.4,22s0-.09,0-.17v-1H5.27Zm.81-1L5.49,22.2h.15l.21-.48h.59l.23.48h.14l-.63-1.35Zm-.18.75.23-.55.26.55Zm2-.14H7.07v-.61H6.94V22.2h.13v-.63h.81v.63H8V20.85H7.88ZM9.33,22l-.61-1.17h-.1V22.2h.13v-1l.52,1h.11l.52-1v1H10V20.85h-.1Zm1.19-.45h.54v-.12h-.54V21h.54v-.12h-.67V22.2h.75v-.11h-.62Zm1.52-.7-.29,0h-.41V22.2h.42a.82.82,0,0,0,.4-.08.55.55,0,0,0,.25-.23.79.79,0,0,0,.09-.38.68.68,0,0,0-.11-.41A.52.52,0,0,0,12,20.87ZM12.17,22a.48.48,0,0,1-.16.08.78.78,0,0,1-.22,0h-.31V21h.31a.67.67,0,0,1,.37.07.54.54,0,0,1,.2.47A.57.57,0,0,1,12.17,22Zm.58.22h.13V20.85h-.13Zm.85-1.35L13,22.2h.15l.21-.48H14l.23.48h.15l-.64-1.35Zm-.18.75.23-.55.26.55Zm1.85-.75-.6,1.35h.16l.2-.48h.59l.23.48H16l-.64-1.35Zm-.19.75.23-.55.26.55Zm1.73-.19a.39.39,0,0,0,.07-.23.32.32,0,0,0-.05-.19.38.38,0,0,0-.14-.11,1,1,0,0,0-.29,0h-.28V22.2h.13v-.63h.16l.48.63h.19l-.5-.64A.42.42,0,0,0,16.81,21.41Zm-.43,0h-.13V21h.36a.19.19,0,0,1,.13.2.28.28,0,0,1,0,.13.21.21,0,0,1-.08.1l-.1,0Zm1.61-.6H17V21h.43V22.2h.13V21H18Zm.6.69-.16-.1a.74.74,0,0,1-.2-.14.24.24,0,0,1-.05-.14.22.22,0,0,1,.05-.14.23.23,0,0,1,.18-.07.23.23,0,0,1,.14,0,.27.27,0,0,1,.1.11v0l.08-.12h0a.42.42,0,0,0-.32-.15.36.36,0,0,0-.28.11.33.33,0,0,0-.09.23.29.29,0,0,0,.09.22,1.5,1.5,0,0,0,.23.17,1.38,1.38,0,0,1,.2.13.2.2,0,0,1,.07.16.21.21,0,0,1-.07.18.3.3,0,0,1-.21.07.31.31,0,0,1-.21-.07l-.09-.12v0l-.07.17h0a.52.52,0,0,0,.17.13.54.54,0,0,0,.2,0,.45.45,0,0,0,.16,0,.4.4,0,0,0,.13-.07.45.45,0,0,0,.1-.13.41.41,0,0,0,0-.16.29.29,0,0,0-.11-.24Zm.87.66h.13v-.63h.47v-.11h-.47V21h.53v-.12h-.66Zm1.43-1.37h0a.69.69,0,0,0-.49.17.67.67,0,0,0-.2.52.64.64,0,0,0,.69.71h0a.69.69,0,0,0,.48-.17.8.8,0,0,0,0-1.06A.64.64,0,0,0,20.89,20.83Zm.48,1a.45.45,0,0,1-.22.23.75.75,0,0,1-.26.05.76.76,0,0,1-.21,0,.42.42,0,0,1-.16-.09.57.57,0,0,1-.17-.47.73.73,0,0,1,0-.3.43.43,0,0,1,.22-.22.63.63,0,0,1,.27-.06h0a.78.78,0,0,1,.22,0,.43.43,0,0,1,.24.2.79.79,0,0,1,0,.65Zm.91-.27a.42.42,0,0,0,.23-.15.38.38,0,0,0,.08-.23.33.33,0,0,0-.06-.19.26.26,0,0,0-.13-.1.71.71,0,0,0-.29,0h-.29V22.2H22v-.63h.15l.48.63h.19Zm-.2-.11H22V21h.35a.18.18,0,0,1,.13.2.35.35,0,0,1,0,.14.24.24,0,0,1-.08.09.29.29,0,0,1-.1,0Z"/><path class="cls-2" d="M24.08,20.85h0l-.39.6-.39-.61h-.18l.5.74v.61h.14v-.61l.49-.74Zm.78,0a.69.69,0,0,0-.48.17.64.64,0,0,0-.21.52.65.65,0,0,0,.69.71h0a.7.7,0,0,0,.48-.17.8.8,0,0,0,0-1.06A.68.68,0,0,0,24.86,20.83Zm.48,1a.41.41,0,0,1-.22.23.71.71,0,0,1-.26.05.64.64,0,0,1-.2,0A.35.35,0,0,1,24.5,22a.57.57,0,0,1-.18-.47.73.73,0,0,1,.06-.3A.43.43,0,0,1,24.6,21a.58.58,0,0,1,.26-.06h0a.72.72,0,0,1,.22,0,.4.4,0,0,1,.24.2.63.63,0,0,1,.08.35A.73.73,0,0,1,25.34,21.83Zm1.41-.17a.87.87,0,0,1,0,.19.27.27,0,0,1-.13.19.61.61,0,0,1-.28.07.6.6,0,0,1-.27-.07.27.27,0,0,1-.13-.19.82.82,0,0,1,0-.19v-.81h-.14v.8a1.09,1.09,0,0,0,0,.22.28.28,0,0,0,0,.13.51.51,0,0,0,.49.23h0q.47,0,.54-.36a1.16,1.16,0,0,0,0-.22v-.8h-.13ZM27,21h.44V22.2h.13V21H28v-.12H27Zm2.1-.12h0v.61h-.81v-.61h-.13V22.2h.13v-.63h.81v.63h.14V20.85h-.12Zm1.28,0-.6,1.35h.16l.2-.48h.6l.22.48h.15l-.63-1.35Zm-.19.75.24-.55.25.55Zm2.07.38-.91-1.13h-.12V22.2h.13V21.07l.91,1.13h.12V20.85h-.13Zm1.18-1.11-.29,0h-.41V22.2h.42a.91.91,0,0,0,.39-.07.53.53,0,0,0,.25-.24.7.7,0,0,0,.1-.38.76.76,0,0,0-.11-.41A.55.55,0,0,0,33.42,20.87ZM33.55,22a.6.6,0,0,1-.16.08.78.78,0,0,1-.22,0h-.32V21h.32a.63.63,0,0,1,.36.07.52.52,0,0,1,.2.47A.57.57,0,0,1,33.55,22Zm2.1-.07v0a.52.52,0,0,1-.43.18.75.75,0,0,1-.26-.05.44.44,0,0,1-.25-.19.59.59,0,0,1,.51-.92.59.59,0,0,1,.31.08.35.35,0,0,1,.12.1h0l.08-.12h0a.64.64,0,0,0-.22-.14,1,1,0,0,0-.3,0,.88.88,0,0,0-.33.06.63.63,0,0,0-.32.28.79.79,0,0,0-.09.38.8.8,0,0,0,.06.3.66.66,0,0,0,.17.23.8.8,0,0,0,.5.15,1.06,1.06,0,0,0,.37-.07.42.42,0,0,0,.15-.11h0l-.07-.11Zm1.18-.45H36v-.61h-.13V22.2H36v-.63h.82v.63H37V20.85h-.13Zm.48.74h.14V20.85h-.14Zm.62-1.35H37.8V22.2h.74v-.11h-.61Zm1.44,0-.29,0h-.41V22.2h.42a.88.88,0,0,0,.39-.07.53.53,0,0,0,.25-.24.7.7,0,0,0,.1-.38.76.76,0,0,0-.11-.41A.55.55,0,0,0,39.37,20.87ZM39.5,22a.6.6,0,0,1-.16.08.78.78,0,0,1-.22,0H38.8V21h.32a.72.72,0,0,1,.36.07.56.56,0,0,1,.21.47A.57.57,0,0,1,39.5,22Zm1.27-.57a.37.37,0,0,0,.07-.23.32.32,0,0,0-.05-.19.28.28,0,0,0-.14-.1.68.68,0,0,0-.29,0h-.28V22.2h.13v-.63h.16l.48.63H41l-.5-.64A.42.42,0,0,0,40.77,21.41Zm-.43,0h-.13V21h.36a.19.19,0,0,1,.13.2.35.35,0,0,1,0,.14.24.24,0,0,1-.08.09.19.19,0,0,1-.1,0Zm1,.12h.55v-.12h-.55V21h.55v-.12h-.68V22.2h.75v-.11h-.62Zm1.86-.72V22l-.91-1.13h-.12V22.2h.12V21.07l.91,1.13h.12V20.85Z"/><path class="cls-2" d="M11.34,18.69h-.28v0c0-.1,0-.13.09-.13a.09.09,0,0,1,.08,0h0l.06-.07h0v0a.2.2,0,0,0-.14-.06.23.23,0,0,0-.23.25v0h-.07l-.07.08,0,0h.57Zm-1.5,0s0-.07-.08-.08-.08,0-.08.08a.08.08,0,0,0,.16,0Zm-.21,0a.08.08,0,0,0-.07-.08c-.05,0-.08,0-.08.08a.08.08,0,0,0,.08.08A.07.07,0,0,0,9.63,18.74Zm4.77,0a.07.07,0,0,0-.08-.08.08.08,0,1,0,0,.16A.07.07,0,0,0,14.4,18.74Zm.13.08a.08.08,0,0,0,0-.16.08.08,0,1,0,0,.16Zm0-.25a.07.07,0,0,0-.08-.07.07.07,0,0,0-.07.07.07.07,0,0,0,.07.08A.07.07,0,0,0,14.5,18.57Zm3,.17a.07.07,0,0,0-.07-.08.08.08,0,1,0,0,.16A.07.07,0,0,0,17.48,18.74Zm2.74.3c-.21,0-.32.15-.32.41s.11.41.32.41a.34.34,0,0,0,.2-.06.32.32,0,0,1-.06.2.2.2,0,0,1-.18.09.41.41,0,0,1-.19,0l0,0,.06.14h0a.47.47,0,0,0,.17,0h0a.32.32,0,0,0,.27-.12.47.47,0,0,0,.09-.3v-.37a.41.41,0,0,0-.08-.25A.29.29,0,0,0,20.22,19Zm0,.71c-.13,0-.2-.09-.2-.3s.07-.29.2-.3.2.09.21.3S20.36,19.74,20.22,19.75Zm-.56-1.05v1.16h.12v-1.2l-.11,0Zm-.26,0v.83c0,.15-.07.21-.21.21H17.68c-.14,0-.2-.06-.2-.2V19l-.11,0h0v.49c0,.15-.06.21-.2.21H15.4c-.08,0-.1,0-.11-.11v-1l-.11,0h0v.93c0,.15.07.23.21.23h1.78a.31.31,0,0,0,.26-.12.28.28,0,0,0,.23.12H19.2a.3.3,0,0,0,.32-.32v-.88l-.11,0ZM14.9,19v.49c0,.15-.06.21-.2.21h-.21v-.65l-.11,0h0v.61H14v-.57l-.11,0h0v.53H11.37c-.14,0-.2-.06-.2-.2V19l-.11,0h0v.49c0,.15-.06.21-.2.21h-.69c-.14,0-.2-.06-.2-.21V19H9.61a.25.25,0,0,0-.21.08.44.44,0,0,0-.11.34c0,.27.11.43.32.43a.27.27,0,0,0,.26-.13.32.32,0,0,0,.26.13h.72a.3.3,0,0,0,.26-.12.29.29,0,0,0,.25.12h3.35a.3.3,0,0,0,.31-.32V19l-.11,0Zm-5.08.39c0,.22-.06.31-.2.31s-.21-.09-.21-.31.07-.32.21-.32h.2Zm14.61-.69s0-.07-.08-.08a.08.08,0,0,0-.07.08.07.07,0,0,0,.07.08A.08.08,0,0,0,24.43,18.74ZM28,18.58h-.15s0,0,0,0h0a.05.05,0,0,1,0,0l0,0,0-.06,0,0h0a.13.13,0,0,0-.09,0c-.08,0-.13.06-.14.15h0l-.05.06,0,0H28Zm2.32.11h0v.83c0,.15-.06.21-.2.21H28.62c-.14,0-.2-.06-.2-.2v-.88l-.11,0h0v.83c0,.15-.06.21-.2.21H28v-1l-.11,0h0v.95h-.19l0,.09,0,0h.51a.25.25,0,0,0,.22-.12.26.26,0,0,0,.24.12h1.55a.3.3,0,0,0,.32-.32v-.88Zm-8.45,0h0v1.14s0,.05,0,.07a.19.19,0,0,1-.05.1l0,0a.7.7,0,0,1-.24,0c-.27,0-.37-.12-.37-.44v0l-.11,0h0v0a.72.72,0,0,0,.11.39.46.46,0,0,0,.38.14h0c.3,0,.46-.11.46-.36V18.66h0ZM27,19h0a.57.57,0,0,0-.51.38V18.7l-.11,0h0v1H24.56a.31.31,0,0,0,.11-.14.43.43,0,0,0,.06-.22.39.39,0,0,0-.08-.25.34.34,0,0,0-.27-.12h0a.32.32,0,0,0-.24.08.3.3,0,0,0-.1.2v0a.49.49,0,0,0,.24.41H22.38c-.07,0-.1,0-.1-.11v-1l-.11,0h0v.93a.2.2,0,0,0,.22.23h1.89a.41.41,0,0,0,.16,0l.15,0h2.89v-.23a.66.66,0,0,0-.08-.37A.38.38,0,0,0,27,19Zm-2.61.66a.37.37,0,0,1-.21-.16.44.44,0,0,1-.07-.21.19.19,0,0,1,.21-.21h0a.23.23,0,0,1,.19.08.29.29,0,0,1,.06.19.33.33,0,0,1-.06.19A.22.22,0,0,1,24.42,19.7Zm2.92,0h-.85a.79.79,0,0,1,.15-.36.45.45,0,0,1,.36-.22h0a.29.29,0,0,1,.25.14.66.66,0,0,1,.08.32S27.34,19.71,27.34,19.74Z"/><path class="cls-1" d="M2.31,19.29a.28.28,0,0,0-.08-.2A.32.32,0,0,0,2,19c-.22,0-.34.12-.34.28a.34.34,0,0,0,.05.22.28.28,0,0,0,.22.07h.26v0c0,.12,0,.14-.2.14H.86c-.14,0-.2-.06-.2-.21V19H.32a.25.25,0,0,0-.21.08.44.44,0,0,0-.11.34c0,.27.11.43.32.43a.3.3,0,0,0,.27-.13.29.29,0,0,0,.26.13H2a.38.38,0,0,0,.24-.06.28.28,0,0,0,.07-.22Zm-1.77.14c0,.22-.07.31-.21.31s-.2-.09-.21-.31.07-.32.21-.32H.54Zm1.64,0H2q-.13,0-.15,0a.19.19,0,0,1,0-.14c0-.11.08-.17.22-.17a.17.17,0,0,1,.19.17Zm3.41-.72a.07.07,0,0,0-.08-.08.08.08,0,0,0,0,.16A.07.07,0,0,0,5.59,18.74Zm1.79,0v.83c0,.15-.06.21-.2.21h-1V19L6.1,19h0v.7H5.68v-.65l-.11,0h0v.61h-.4v-.57l-.11,0H5v.53H3.25c-.07,0-.1,0-.1-.11v-1l-.11,0H3v.93a.2.2,0,0,0,.21.23h4a.3.3,0,0,0,.32-.32v-.88l-.11,0ZM2.76,19v.74A.38.38,0,0,1,2.7,20a.2.2,0,0,1-.18.09.41.41,0,0,1-.19,0l-.05,0,.06.13h0a.47.47,0,0,0,.17,0h0a.32.32,0,0,0,.27-.12.45.45,0,0,0,.09-.3V19l-.11,0Zm-.6-.3a.07.07,0,0,0-.07-.08.08.08,0,0,0,0,.16A.07.07,0,0,0,2.16,18.74Zm-1.61,0s0-.07-.08-.08a.08.08,0,0,0-.07.08.08.08,0,0,0,.07.08A.07.07,0,0,0,.55,18.74Zm1.41,0a.07.07,0,0,0-.08-.08.07.07,0,0,0-.07.08.08.08,0,0,0,.07.08A.07.07,0,0,0,2,18.74Zm-1.61,0s0-.07-.08-.08-.08,0-.08.08a.08.08,0,1,0,.16,0Zm7.82.76h.77v-.13H8.17Zm-2.45-.68a.08.08,0,1,0,0-.16.08.08,0,1,0,0,.16Zm0-.25a.07.07,0,0,0-.07-.07.07.07,0,0,0-.08.07.07.07,0,0,0,.08.08A.07.07,0,0,0,5.69,18.57Zm1.95.13v1.16h.13v-1.2l-.11,0Zm29.53,0v1.16h.13v-1.2l-.11,0Zm-6,1.71a.07.07,0,0,0,.07.07.07.07,0,0,0,.08-.07.07.07,0,0,0-.08-.08A.07.07,0,0,0,31.22,20.41Zm.2,0a.07.07,0,0,0,.07.07.07.07,0,0,0,.08-.07.07.07,0,0,0-.08-.08A.07.07,0,0,0,31.42,20.41Zm5.49-1.71v.83c0,.15-.06.21-.2.21h-.09v-1l-.11,0h0v.95h-.19l-.05.09v0h.47a.3.3,0,0,0,.32-.32v-.88l-.11,0Zm-4.51.35c-.21,0-.32.14-.32.4v.08c0,.15-.06.21-.2.21h-.13a.18.18,0,0,1-.19-.12v0l-.05.11h0c0,.1.11.15.24.15s-.12.21-.34.22h0a.31.31,0,0,1-.25-.11.48.48,0,0,1-.07-.27,1.12,1.12,0,0,1,.06-.35l0-.06-.13.09h0a.86.86,0,0,0-.07.34.49.49,0,0,0,.11.33.39.39,0,0,0,.34.14h0c.28,0,.44-.11.45-.34h0a.37.37,0,0,0,.15,0,.2.2,0,0,0,.11-.09.29.29,0,0,0,.25.12h0c.22,0,.32-.15.32-.41S32.62,19.05,32.4,19.05Zm0,.69c-.13,0-.2-.08-.2-.29s.07-.28.2-.29.2.09.2.29S32.53,19.74,32.4,19.74Zm4.09.34h0s0,0,0,0l0,0v0l0-.07h0a.12.12,0,0,0-.09,0,.13.13,0,0,0-.14.14h0l0,.06,0,0h.36v-.09h-.16S36.48,20.09,36.49,20.08Zm-.41-.33h-.47v-.39c0-.13.07-.23.19-.23a.14.14,0,0,1,.13.06l0,0,.08-.08h0v0a.32.32,0,0,0-.21-.08.32.32,0,0,0-.25.1.4.4,0,0,0-.09.27v.36H33.82c-.15,0-.2-.06-.21-.2v-.88l-.11,0h0v.84c0,.15-.06.21-.2.21H33.2v-1l-.11,0h0v.95h-.19l0,.09v0h.5a.25.25,0,0,0,.22-.12.29.29,0,0,0,.25.12h2.37l0,0Zm4.81-1a.11.11,0,0,0-.08-.08s-.08,0-.08.08a.07.07,0,0,0,.08.08S40.88,18.78,40.89,18.74Zm-2.56.56a.08.08,0,0,0-.07-.08.08.08,0,0,0-.08.08.07.07,0,0,0,.08.08A.08.08,0,0,0,38.33,19.3Zm4.59-.6v.83c0,.15-.06.21-.2.21H41a.35.35,0,0,0,.11-.13.42.42,0,0,0,0-.22.34.34,0,0,0-.08-.25.32.32,0,0,0-.27-.12h0a.32.32,0,0,0-.24.08.29.29,0,0,0-.09.2v0a.46.46,0,0,0,.22.4h-2v-.57l-.11,0h0v.63s0,.05,0,.07a.19.19,0,0,1-.05.1l0,0a.7.7,0,0,1-.24,0c-.27,0-.37-.12-.37-.44v-.16l-.11,0h0v0a.06.06,0,0,0,0,0s0,.07,0,.09a.64.64,0,0,0,.12.39.4.4,0,0,0,.37.14h0a.58.58,0,0,0,.14,0l.09,0a.36.36,0,0,0,.14-.1.37.37,0,0,0,.05-.11s0,0,0-.08h2a.37.37,0,0,0,.15,0l.16,0h1.7a.3.3,0,0,0,.32-.32v-.88l-.11,0Zm-2.05,1a.39.39,0,0,1-.2-.16.35.35,0,0,1-.07-.21.19.19,0,0,1,.21-.21h0a.26.26,0,0,1,.19.08.29.29,0,0,1,.05.19.32.32,0,0,1-.05.19A.24.24,0,0,1,40.87,19.7Zm2.33-1h0v1.16h.13v-1.2Z"/><path class="cls-3" d="M25.93,2.22A1.15,1.15,0,0,1,23.65,2a1.15,1.15,0,1,1,2.28.25"/><path class="cls-3" d="M19.38,9.64a1.15,1.15,0,1,1-1-1.27,1.15,1.15,0,0,1,1,1.27"/><path class="cls-2" d="M18.49,7a.39.39,0,0,0-.39.42.4.4,0,1,0,.79,0A.39.39,0,0,0,18.49,7Zm0,.68a.25.25,0,0,1-.21-.27c0-.13.06-.27.21-.27s.22.14.22.27A.25.25,0,0,1,18.49,7.65ZM24.05.18,24,.42l.71-.18L24.76,0Z"/><path class="cls-2" d="M24.1,6.71h-.69l0,0v1a.14.14,0,0,0,0,.06l.05,0h.06s0,0,0,0a0,0,0,0,0,0,0V7.35H24l.05,0a.09.09,0,0,0,0-.06v0l0,0h-.47V6.86h.59l0,0,0,0v0a.07.07,0,0,0,0-.06Z"/><path class="cls-2" d="M25.15,6.71h0l0,0a0,0,0,0,0,0,0v.55a.33.33,0,0,1-.1.25.37.37,0,0,1-.24.1.33.33,0,0,1-.24-.1.34.34,0,0,1-.11-.25V6.79a.07.07,0,0,0,0-.06l-.05,0h0l0,0a0,0,0,0,0,0,0v.55a.45.45,0,0,0,.15.35.47.47,0,0,0,.35.15.49.49,0,0,0,.35-.15.45.45,0,0,0,.14-.35V6.79a.07.07,0,0,0,0-.06Z"/><path class="cls-2" d="M26.22,6.71h0l0,0v.79l-.71-.82-.05,0h-.05l0,0v1a.09.09,0,0,0,0,.06l.05,0h.05l0,0V7l.71.82a.09.09,0,0,0,.06,0h.05l0,0v-1a.07.07,0,0,0,0-.06Z"/><path class="cls-2" d="M27.36,6.73l-.06,0h-.05l0,0v.79l-.71-.82-.06,0h-.05l0,0v1a.07.07,0,0,0,0,.06l.05,0h.06s0,0,0,0a0,0,0,0,0,0,0V7l.7.82.06,0h.06s0,0,0,0a0,0,0,0,0,0,0v-1A.14.14,0,0,0,27.36,6.73Z"/><path class="cls-2" d="M25.78,3.75a3.54,3.54,0,1,0-.79,7A3.42,3.42,0,0,0,27,10.4C26.19,13,25.34,14,24.79,14c-.3,0-.45-.42-.67-1.35s-.53-2.29-1.88-2.12c-.78.1-1.25.89-1.81,1.8s-1.26,2.1-2.23,2.1c-.79,0-2-1.28-2.51-3.11a4.89,4.89,0,0,1,2.09-5.48.56.56,0,0,0-.56-1,5.92,5.92,0,0,0-2.61,6.75c.6,2.25,2.14,3.94,3.59,3.94,1.6,0,2.49-1.46,3.2-2.63.29-.5.75-1.24,1-1.27s.4.22.64,1.26.51,2.21,1.76,2.21c1.59,0,2.94-2.31,4-6.87a.74.74,0,0,0,0-.12,3.35,3.35,0,0,0,.07-.44A3.54,3.54,0,0,0,25.78,3.75ZM25.11,9.7a2.44,2.44,0,1,1,2.7-2.15c0,.13,0,.26-.08.39a0,0,0,0,0,0,0l0,.06A2.44,2.44,0,0,1,25.11,9.7Z"/></g></g></svg>