<svg xmlns="http://www.w3.org/2000/svg" viewBox="0 0 42.56 16.57"><title>2</title><g id="Layer_2" data-name="Layer 2"><g id="Layer_1-2" data-name="Layer 1"><g id="oy8aDj"><path d="M9.93,9.31,11.05,8.2l5.5,5.5H12.39c0,.17.06.32.07.47a2.21,2.21,0,1,1-2.59-2l.46,0h2.44Zm-.32,5a.65.65,0,0,0,.64.66.66.66,0,0,0,.66-.65.64.64,0,0,0-.65-.65A.63.63,0,0,0,9.61,14.35Z"/><path d="M0,7.9H1.56v2.21a.6.6,0,0,0,.38.59.59.59,0,0,0,.68-.08.64.64,0,0,0,.25-.52c0-1.51,0-3,0-4.53V5.42H4.42V7.89H6.49V9.46H4.42v.17a4.46,4.46,0,0,1-.06,1,2.22,2.22,0,0,1-2.22,1.66A2.19,2.19,0,0,1,.05,10.55a2.3,2.3,0,0,1,0-.45V7.9Z"/><path d="M27.13,13.71H26V9.22h1.57c.09,0,.12,0,.15.11.25.71.5,1.41.76,2.12a1.14,1.14,0,0,0,.06.15c.17-.49.34-.95.5-1.42.11-.29.22-.58.32-.87,0-.06,0-.09.11-.09H31v4.48H29.74V11h0l-.28.72-.75,1.93a.14.14,0,0,1-.15.1c-.32,0-.32,0-.43-.3l-.9-2.32a.37.37,0,0,0-.07-.12Z"/><path d="M12.14,4.73a2.22,2.22,0,1,1,2.2,2.21A2.21,2.21,0,0,1,12.14,4.73Zm2.87,0a.66.66,0,0,0-.66-.65.65.65,0,0,0,0,1.3A.66.66,0,0,0,15,4.73Z"/><path d="M6.5,2.53H8.05V4.71a.66.66,0,0,0,.71.68.65.65,0,0,0,.59-.57,1.27,1.27,0,0,0,0-.2V2.53h1.55s0,.05,0,.07c0,.75,0,1.5,0,2.25a2.21,2.21,0,0,1-4.39.24,1.87,1.87,0,0,1,0-.34V2.62S6.5,2.57,6.5,2.53Z"/><path d="M26,5.1,27.09,7H25.85a.17.17,0,0,1-.18-.1c-.24-.44-.49-.88-.74-1.32-.13-.22-.13-.22-.4-.18V7H23.25V2.47h1.94a2.22,2.22,0,0,1,.94.21,1.2,1.2,0,0,1,.69,1,2.33,2.33,0,0,1,0,.53,1.1,1.1,0,0,1-.66.79Zm-1.49-.59H25c.43,0,.64-.24.59-.66a.4.4,0,0,0-.28-.36,2.44,2.44,0,0,0-.76-.05Z"/><path d="M22.72,7H21.36c-.07-.24-.15-.48-.21-.72s-.06-.11-.14-.11H19.75a.13.13,0,0,0-.15.12c-.05.21-.12.42-.18.63a.12.12,0,0,1-.09.08h-1.1l0,0,.18-.57c.4-1.26.81-2.53,1.21-3.8,0-.09.07-.11.16-.11H21.2a.11.11,0,0,1,.13.09L22.71,6.9A.13.13,0,0,0,22.72,7ZM20.86,5.22l-.47-1.66h0l-.48,1.65Z"/><path d="M25.46,13.71H24.15s-.06-.05-.07-.08c-.07-.22-.13-.43-.19-.66a.11.11,0,0,0-.13-.09H22.47c-.07,0-.11,0-.12.09s-.13.44-.19.66c0,0-.06.08-.09.08H20.93c.06-.18.11-.36.17-.54.41-1.28.82-2.55,1.22-3.82,0-.1.07-.14.18-.14h1.43c.08,0,.12,0,.14.1.46,1.44.91,2.87,1.37,4.3A.44.44,0,0,0,25.46,13.71Zm-2.33-3.4h0L22.63,12h1Z"/><path d="M38.84,9.22v1H37V11h1.43v.93H37v.81h1.91v1h-3.2V9.22Z"/><path d="M35.09,12.71v1H31.9V9.22H35v1h-1.8V11h1.43v.93H33.19v.81Z"/><path d="M28.36,7V3.47H27.2v-1h3.61v1H29.65V7Z"/><path d="M40.88,12.71h1.68v1h-3V9.22h1.29Z"/><path d="M18.17,12.68a4.93,4.93,0,0,0,.65,0,.45.45,0,0,0,.47-.47.76.76,0,0,0,0-.15V9.22h1.29s0,0,0,.06c0,1,0,2,0,3A1.4,1.4,0,0,1,20,13.49a1.44,1.44,0,0,1-.75.26,2.2,2.2,0,0,1-1-.1.14.14,0,0,1-.09-.08Z"/><path d="M14.34,0a.78.78,0,1,1-.77.78A.78.78,0,0,1,14.34,0Z"/><path d="M5.73,11.21a.77.77,0,0,1,.77-.78.75.75,0,0,1,.77.77.77.77,0,1,1-1.54,0Z"/><path d="M7.93.78A.76.76,0,0,1,8.72,0a.77.77,0,0,1,.77.78.79.79,0,0,1-.78.77A.78.78,0,0,1,7.93.78Z"/><path d="M5.73,13.14a.77.77,0,1,1,.77.79A.76.76,0,0,1,5.73,13.14Z"/><path d="M13.25,15.79A.75.75,0,0,1,14,15a.77.77,0,0,1,.78.77.77.77,0,0,1-.78.78A.76.76,0,0,1,13.25,15.79Z"/></g></g></g></svg>