<svg xmlns="http://www.w3.org/2000/svg" viewBox="0 0 34.23 7.45"><defs><style>.cls-1{fill:#0c0d0c;}</style></defs><title>3</title><g id="Layer_2" data-name="Layer 2"><g id="Layer_1-2" data-name="Layer 1"><path class="cls-1" d="M3.73,0A3.73,3.73,0,1,0,7.45,3.73,3.73,3.73,0,0,0,3.73,0Zm0,7A3.31,3.31,0,1,1,7,3.73,3.31,3.31,0,0,1,3.73,7Z"/><path class="cls-1" d="M6.43,5.23,5.89,4.6l0,0a.1.1,0,0,0-.09,0h0a.27.27,0,0,1-.26,0,.25.25,0,0,1-.14-.19h0A.71.71,0,0,0,5,3.87l-.24-.14,1.38-.8L6,2.64l-1.55.89-.19-.11V3.21l1.55-.9L5.63,2l-1.38.79V2.53A.73.73,0,0,0,4,2H4a.29.29,0,0,1-.1-.22A.3.3,0,0,1,4,1.52a.07.07,0,0,0,0-.07v0L3.78.63a.07.07,0,0,0,0,0,.07.07,0,0,0-.06,0l-.27.79s0,0,0,0a.08.08,0,0,0,0,.07h0a.28.28,0,0,1,.13.24A.27.27,0,0,1,3.45,2a.73.73,0,0,0-.25.55v.28L1.82,2l-.17.29,1.55.9v.21L3,3.53,1.47,2.64l-.18.29,1.38.8-.24.14a.69.69,0,0,0-.35.5h0a.3.3,0,0,1-.14.19.29.29,0,0,1-.27,0h0a.1.1,0,0,0-.09,0l0,0L1,5.23a0,0,0,0,0,0,.06,0,0,0,0,0,.06,0l.82-.15h0A.14.14,0,0,0,2,5.08a.25.25,0,0,1,.14-.22.26.26,0,0,1,.24,0A.78.78,0,0,0,3,4.78l.24-.14V6.23h.34V4.44l.19-.11.18.11V6.23h.34V4.64l.25.14a.75.75,0,0,0,.6.06.26.26,0,0,1,.24,0,.28.28,0,0,1,.15.22.12.12,0,0,0,0,.08h0l.82.15a0,0,0,0,0,.06,0A0,0,0,0,0,6.43,5.23Zm-3.23-1-.46.26a.18.18,0,0,1-.25-.07.18.18,0,0,1,.07-.25L3,3.92,3.2,4Zm.34-1.76a.18.18,0,0,1,.19-.19.18.18,0,0,1,.18.19V3l-.18.11L3.54,3Zm.4,1.36L3.73,4l-.22-.12V3.6l.22-.12.21.12Zm1,.59a.18.18,0,0,1-.25.07l-.46-.26V4l.19-.11.45.27A.18.18,0,0,1,5,4.44Z"/><polygon class="cls-1" points="28.54 2.97 27.29 2.97 27.29 0.48 26.16 0.48 26.16 6.97 27.29 6.97 27.29 4.12 28.54 4.12 28.54 6.97 29.7 6.97 29.7 0.48 28.54 0.48 28.54 2.97"/><polygon class="cls-1" points="11.05 0.48 10.19 3.01 9.41 0.48 8.28 0.48 9.54 4.46 9.54 6.97 10.8 6.97 10.8 4.33 12.11 0.48 11.05 0.48"/><polygon class="cls-1" points="18.7 3.57 18.06 0.48 16.29 0.48 16.29 6.97 17.31 6.97 17.31 2.08 18.18 6.33 19.13 6.33 19.89 2.01 19.89 6.97 21.09 6.97 21.09 0.48 19.24 0.48 18.7 3.57"/><path class="cls-1" d="M33.16.48H31.4L30.22,7h1.05l.25-1.51h1.31L33.07,7h1.16ZM31.7,4.38l.48-2.9.47,2.9Z"/><path class="cls-1" d="M22.79.48,21.61,7h1.05l.25-1.51h1.31L24.46,7h1.16L24.55.48Zm.3,3.9.48-2.9L24,4.38Z"/><path class="cls-1" d="M12.92.48,11.74,7h1L13,5.46h1.31L14.59,7h1.16L14.68.48Zm.3,3.9.49-2.9.47,2.9Z"/></g></g></svg>