<svg xmlns="http://www.w3.org/2000/svg" viewBox="0 0 36.04 7.54"><defs><style>.cls-1{fill:#ed2224;}</style></defs><title>4</title><g id="Layer_2" data-name="Layer 2"><g id="Layer_1-2" data-name="Layer 1"><g id="AxB7GW"><path class="cls-1" d="M8.91,2l-3,1.73v0L7.49,1.2a3,3,0,0,0-3.6,4.85,2.92,2.92,0,0,0,2.35.73A3,3,0,0,0,8.37,5.52a.17.17,0,0,1,0,.05c0,.11,0,.21.08.31a.11.11,0,0,1,0,.12,3.83,3.83,0,0,1-1,.83,5.22,5.22,0,0,1-1.67.6,6.26,6.26,0,0,1-1.43.1,5.5,5.5,0,0,1-2.56-.74A3.65,3.65,0,0,1,.21,4.94,3.3,3.3,0,0,1,0,3.62,3.48,3.48,0,0,1,.93,1.44,3.66,3.66,0,0,1,2.09.58,5.53,5.53,0,0,1,3.66.08,6.46,6.46,0,0,1,5.18,0,5.83,5.83,0,0,1,6.93.4,4.17,4.17,0,0,1,8.84,1.91Z"/><path class="cls-1" d="M36,7.35h-2.2V3a.68.68,0,0,0,0-.2.56.56,0,0,0-.6-.4.55.55,0,0,0-.48.53V7.35H30.53v-5H29.06l.05,0,2-1a1,1,0,0,1,.94,0,1.07,1.07,0,0,1,.62.75.43.43,0,0,1,0,0h0l.08,0,1.66-.77a1.09,1.09,0,0,1,1.56,1v5Z"/><path class="cls-1" d="M18.9,7.35H16.69v-5H15.21l.06,0c.69-.32,1.37-.65,2.06-1a1.1,1.1,0,0,1,1.54.75.14.14,0,0,0,0,.06l.08,0,1.66-.77a1.06,1.06,0,0,1,1.21.17,1,1,0,0,1,.36.8c0,.4,0,.8,0,1.2V7.35H20V3a.75.75,0,0,0,0-.21.55.55,0,0,0-.6-.41.54.54,0,0,0-.48.54V7.35Z"/><path class="cls-1" d="M12.86,4.16l-.47-1.77H9.62l.05,0,2.64-1a1.8,1.8,0,0,1,2.34,1.23c.42,1.55.83,3.1,1.25,4.65,0,0,0,.05,0,.07s-2,0-2.2,0l-.28-1-.06.06a2.75,2.75,0,0,1-1.73,1.06,2.66,2.66,0,0,1-2-.4,1.86,1.86,0,0,1-.79-1,1.66,1.66,0,0,1,.26-1.58,2.22,2.22,0,0,1,1.1-.78A2.67,2.67,0,0,1,12.68,4l.16.12Zm.29,1.36A1.11,1.11,0,1,0,12,6.62,1.11,1.11,0,0,0,13.15,5.52Z"/><path class="cls-1" d="M26.26,7.54a3.13,3.13,0,1,1,3.12-3.13A3.13,3.13,0,0,1,26.26,7.54Zm1.23-1.13a1.7,1.7,0,0,1,0-.22c-.3-1.1-.6-2.21-.89-3.32-.06-.22-.11-.43-.18-.65a.69.69,0,0,0-1.14-.31.67.67,0,0,0-.18.71c.3,1.11.59,2.23.89,3.34l.18.64a.7.7,0,0,0,.75.5A.71.71,0,0,0,27.49,6.41Z"/></g></g></g></svg>