<svg xmlns="http://www.w3.org/2000/svg" xmlns:xlink="http://www.w3.org/1999/xlink" viewBox="0 0 27.1 24.93"><defs><style>.cls-1{fill:#c2d500;}.cls-2{fill:#636569;}.cls-3{clip-path:url(#clip-path);}.cls-4{fill:#f3c300;}.cls-5{fill:#00afef;}.cls-6{fill:#cf3339;}</style><clipPath id="clip-path"><path class="cls-1" d="M8.44,22.1l-.17.07-.14.11a.64.64,0,0,0-.1.13.77.77,0,0,0-.07.16.88.88,0,0,0,0,.17,1,1,0,0,0,0,.17l.06.15a1,1,0,0,0,.24.24,1.15,1.15,0,0,0,.17.06.64.64,0,0,0,.2,0,.58.58,0,0,0,.19,0L9,23.29l.12-.1.09-.13L9.1,23a.61.61,0,0,1-.07.1.26.26,0,0,1-.09.09.41.41,0,0,1-.11.07.31.31,0,0,1-.13,0,.65.65,0,0,1-.2,0,.5.5,0,0,1-.17-.11A.78.78,0,0,1,8.22,23a.71.71,0,0,1,0-.47.78.78,0,0,1,.11-.18.54.54,0,0,1,.37-.15.34.34,0,0,1,.22.07.58.58,0,0,1,.18.22l.09-.06-.09-.12L9,22.18a.35.35,0,0,0-.15-.07.57.57,0,0,0-.18,0l-.2,0"/></clipPath></defs><title>5</title><g id="Layer_2" data-name="Layer 2"><g id="Layer_1-2" data-name="Layer 1"><path class="cls-2" d="M8.51,15.75a.11.11,0,0,1-.1.1.11.11,0,0,1-.11-.11.11.11,0,0,1,.11-.1.1.1,0,0,1,.1.11m-.15.4H8.27a.24.24,0,0,0-.15.06.25.25,0,0,0-.06.16c0,.15,0,.22.16.22l.14,0Zm-.12-.4a.1.1,0,0,1-.1.1A.11.11,0,0,1,8,15.74a.11.11,0,0,1,.11-.1.1.1,0,0,1,.1.11m.37,1a.26.26,0,0,1-.21-.09.51.51,0,0,1-.22.05.29.29,0,0,1-.29-.33A.3.3,0,0,1,8,16.14a.39.39,0,0,1,.28-.1h.06V16l.2,0v.56c0,.09,0,.14.12.14h.11v.15Z"/><rect class="cls-2" x="8.71" y="16.62" width="0.62" height="0.15"/><rect class="cls-2" x="9.28" y="16.62" width="0.62" height="0.15"/><rect class="cls-2" x="9.85" y="16.62" width="0.62" height="0.15"/><path class="cls-2" d="M11.11,15.79a.11.11,0,1,1-.21,0,.11.11,0,0,1,.1-.1.11.11,0,0,1,.11.11m-.11.48c0-.11,0-.17-.12-.17s-.12.06-.12.18,0,.15.11.15a.28.28,0,0,0,.13,0v-.13m-.16-.48a.11.11,0,1,1-.21,0,.11.11,0,0,1,.1-.1.11.11,0,0,1,.11.11m.32.47v.08c0,.3-.12.43-.37.43h-.36v-.15h.37c.11,0,.17,0,.18-.11a.16.16,0,0,1-.11,0c-.19,0-.28-.09-.28-.27a.27.27,0,0,1,.1-.22.35.35,0,0,1,.18-.05.26.26,0,0,1,.22.08.21.21,0,0,1,.07.18"/><path class="cls-2" d="M11.61,16.7a.44.44,0,0,1-.36.44l0-.07a.3.3,0,0,0,.23-.32v-.42l0-.23.2,0Z"/><path class="cls-2" d="M12.21,16.77h-.14a.23.23,0,0,1-.24-.25v-.58l0-.21.19-.05v.8c0,.09,0,.14.12.14h.1Z"/><rect class="cls-2" x="12.16" y="16.62" width="0.62" height="0.15"/><rect class="cls-2" x="12.73" y="16.62" width="0.62" height="0.15"/><rect class="cls-2" x="13.3" y="16.62" width="0.62" height="0.15"/><rect class="cls-2" x="13.88" y="16.62" width="0.62" height="0.15"/><rect class="cls-2" x="14.45" y="16.62" width="0.62" height="0.15"/><path class="cls-2" d="M16,15.79a.1.1,0,0,1-.1.1.1.1,0,0,1-.1-.11.1.1,0,0,1,.1-.1.11.11,0,0,1,.1.11m-.13-.26a.11.11,0,0,1-.11.1.11.11,0,0,1-.1-.1.11.11,0,0,1,.1-.11.11.11,0,0,1,.11.11m-.14.26a.1.1,0,0,1-.1.1.1.1,0,0,1-.1-.11.1.1,0,0,1,.1-.1.11.11,0,0,1,.1.11m.74,1h-.09a.31.31,0,0,1-.17-.05.25.25,0,0,1-.16.05.27.27,0,0,1-.22-.1.24.24,0,0,1-.21.1.32.32,0,0,1-.22-.1l0,0a.21.21,0,0,1-.18.07H15v-.15h.15a.12.12,0,0,0,.13-.14v-.32l.16,0v.44a.22.22,0,0,0,.15.06c.08,0,.12-.05.12-.14v-.32l.17,0v.44a.2.2,0,0,0,.14.06c.08,0,.12-.05.12-.14v-.16l0-.22.2,0v.42c0,.09,0,.14.12.14h.05Z"/><path class="cls-2" d="M17,16.52a.24.24,0,0,1-.25.25h-.32v-.15h.28c.08,0,.12-.05.12-.14v-.54l0-.22.2-.05Z"/><polygon class="cls-2" points="17.42 15.68 17.4 15.9 17.4 16.77 17.23 16.77 17.23 15.91 17.21 15.7 17.42 15.68"/><path class="cls-2" d="M18.44,16.31a.11.11,0,0,1-.1.1.1.1,0,1,1,0-.2.1.1,0,0,1,.1.1m.39-.25v.59a.48.48,0,0,1-.13.35.52.52,0,0,1-.38.14A.43.43,0,0,1,18,17a.61.61,0,0,1-.11-.38V16.3H18v.3c0,.27.13.43.34.43a.25.25,0,0,0,.22-.11.44.44,0,0,0,.1-.3v-.29l0-.23Z"/><path class="cls-2" d="M19.43,16.77H19.3a.24.24,0,0,1-.25-.25v-.58l0-.21.2-.05v.8c0,.09,0,.14.12.14h.09Z"/><rect class="cls-2" x="19.38" y="16.62" width="0.62" height="0.15"/><rect class="cls-2" x="19.95" y="16.62" width="0.62" height="0.15"/><rect class="cls-2" x="20.53" y="16.62" width="0.62" height="0.15"/><rect class="cls-2" x="21.1" y="16.62" width="0.62" height="0.15"/><path class="cls-2" d="M22.29,17a.11.11,0,0,1-.11.1.1.1,0,1,1,0-.2.1.1,0,0,1,.11.1m.34-.27h-1v-.15h.73a1.46,1.46,0,0,0-.17-.29c-.09-.12-.18-.19-.24-.19s-.08,0-.08.1a.65.65,0,0,0,0,.11l-.17,0c0-.22.13-.35.28-.35s.26.09.39.28a1,1,0,0,1,.2.47"/><path class="cls-2" d="M23.3,16.77h-.22a.43.43,0,0,1-.36.38l0-.07a.3.3,0,0,0,.23-.32v-.42l0-.23.2,0v.42c0,.09,0,.14.12.14h.1Z"/><path class="cls-2" d="M23.84,16.39c0-.06,0-.09-.07-.09a.12.12,0,0,0-.1.06.23.23,0,0,0-.06.16c0,.06,0,.1.12.1h.11Zm.41.23h.09v.15H23.25v-.15h.24a.36.36,0,0,1,0-.11.29.29,0,0,1,.09-.21.33.33,0,0,1,.22-.09.25.25,0,0,1,.15.05.22.22,0,0,1,.07.16v.2h.1v-.31c0-.12-.12-.2-.29-.2a.66.66,0,0,0-.3.07l0-.13a1,1,0,0,1,.31-.05.53.53,0,0,1,.28.06.23.23,0,0,1,.13.22Z"/><rect class="cls-2" x="24.3" y="16.62" width="0.26" height="0.15"/><rect class="cls-2" x="24.51" y="16.62" width="0.62" height="0.15"/><rect class="cls-2" x="25.09" y="16.62" width="0.62" height="0.15"/><rect class="cls-2" x="25.66" y="16.62" width="0.62" height="0.15"/><path class="cls-2" d="M26.92,16.25l0-.1h-.08c-.15,0-.22.09-.22.26s0,.22.15.22.18-.08.18-.23a.71.71,0,0,0,0-.14m.17-.19v.41c0,.2-.13.3-.38.3h-.47v-.15h.26a.31.31,0,0,1,0-.18.37.37,0,0,1,.11-.3.38.38,0,0,1,.3-.12,1,1,0,0,1,.24,0"/><path class="cls-1" d="M8.88,17.7l-.2,0,0,.23v.65a.5.5,0,0,1-.09.31.31.31,0,0,1-.23.11c-.21,0-.33-.16-.33-.43V18.3H7.89v.31A.62.62,0,0,0,8,19a.47.47,0,0,0,.37.15.47.47,0,0,0,.5-.38h.19v-.15H9c-.09,0-.12-.05-.12-.21Z"/><path class="cls-1" d="M9.63,17.7a.1.1,0,1,0,0,.2.11.11,0,0,0,.1-.1.1.1,0,0,0-.1-.1m0,.37a.33.33,0,0,0-.27.1.33.33,0,0,0,0,.46H9.1v.15h.38l.15,0,.14,0h.33v-.15H9.91a.29.29,0,0,0,.08-.22.32.32,0,0,0-.09-.24.36.36,0,0,0-.27-.1m0,.58c-.13,0-.19-.08-.19-.25a.24.24,0,0,1,.06-.17.19.19,0,0,1,.13-.05.17.17,0,0,1,.12.05.24.24,0,0,1,.06.17.31.31,0,0,1,0,.17.16.16,0,0,1-.14.08"/><rect class="cls-1" x="9.06" y="18.63" width="0.04" height="0.15"/><path class="cls-1" d="M10.54,17.75h-.21l0,.21v.66h-.21v.15h1.45v-.15h-.11v-.26a.27.27,0,0,0-.12-.23.49.49,0,0,0-.62.07.74.74,0,0,0-.22.25V18Zm0,.88a.75.75,0,0,1,.19-.25.48.48,0,0,1,.32-.17c.18,0,.28.06.28.19v.23Z"/><rect class="cls-1" x="10.1" y="18.63" width="0.04" height="0.15"/><polygon class="cls-1" points="12.16 18.63 11.59 18.63 11.63 18.63 11.63 18.78 12.21 18.78 12.16 18.78 12.16 18.63"/><rect class="cls-1" x="11.59" y="18.63" width="0.05" height="0.15"/><path class="cls-1" d="M12.61,17.7l-.2,0,0,.23v.52c0,.09,0,.14-.12.14h-.11v.15h.16a.3.3,0,0,0,.16-.05.25.25,0,0,0,.16.05h.07v-.15h0c-.08,0-.12-.05-.12-.14Z"/><rect class="cls-1" x="12.16" y="18.63" width="0.05" height="0.15"/><path class="cls-1" d="M13.32,17.69l-.19,0,0,.22v.54c0,.09,0,.14-.12.14H12.8v.15h.27a.23.23,0,0,0,.25-.25Z"/><rect class="cls-1" x="12.76" y="18.63" width="0.05" height="0.15"/><path class="cls-1" d="M15,18.07h-.31a.4.4,0,0,0-.29.11.44.44,0,0,0-.11.3.32.32,0,0,0,.09.24.29.29,0,0,0,.21.08.24.24,0,0,1-.05.14.21.21,0,0,1-.16.1h-.2c-.21,0-.33-.15-.33-.41v-.31h-.16v.31a.56.56,0,0,0,.11.38.46.46,0,0,0,.36.14h.26a.35.35,0,0,0,.25-.12.41.41,0,0,0,.09-.26v-.11h-.14q-.15,0-.15-.21t.21-.27h.15v.35a.23.23,0,0,0,.25.25h.14v-.15h-.1c-.08,0-.12-.05-.12-.14Zm-.61,1.24a.1.1,0,1,0,0,.2.1.1,0,0,0,.1-.1.09.09,0,0,0-.1-.1m-.26,0a.1.1,0,1,0,0,.2.1.1,0,1,0,0-.2"/><path class="cls-1" d="M15.75,17.69l-.2,0,0,.22v.54c0,.09,0,.14-.13.14h-.23v.15h.27a.23.23,0,0,0,.26-.25Z"/><rect class="cls-1" x="15.18" y="18.63" width="0.04" height="0.15"/><path class="cls-1" d="M16.54,18.07h-.26a.35.35,0,0,0-.28.12.44.44,0,0,0-.09.29.35.35,0,0,0,.07.23.28.28,0,0,0,.21.11.52.52,0,0,0,.18,0,.28.28,0,0,1-.23.29l0,.07a.42.42,0,0,0,.36-.44Zm-.31.63c-.11,0-.16-.08-.16-.25s.08-.28.22-.28h.08v.5a.32.32,0,0,1-.14,0"/><path class="cls-1" d="M17,18.07H17c0,.05,0,.08,0,.1H17a.14.14,0,0,1,.12.06.37.37,0,0,1,.05.2v.21h-.43l0,.15h.71v-.15h-.07v-.19a.37.37,0,0,0-.09-.26.3.3,0,0,0-.25-.11"/><path class="cls-1" d="M18,17.69l-.2,0,0,.22v.54c0,.09,0,.14-.12.14h-.24v.15h.28a.23.23,0,0,0,.25-.25Z"/><rect class="cls-1" x="17.41" y="18.63" width="0.04" height="0.15"/><polygon class="cls-1" points="18.38 17.69 18.17 17.71 18.19 17.92 18.19 18.78 18.36 18.78 18.36 17.92 18.38 17.69"/><path class="cls-1" d="M20,18.07H19.7a.38.38,0,0,0-.28.11.4.4,0,0,0-.11.3.36.36,0,0,0,.08.24.33.33,0,0,0,.22.08.2.2,0,0,1-.06.14.22.22,0,0,1-.15.1h-.2c-.22,0-.34-.15-.34-.41v-.31H18.7v.31a.61.61,0,0,0,.11.38.46.46,0,0,0,.36.14h.27a.39.39,0,0,0,.25-.12.41.41,0,0,0,.09-.26v-.11h-.14c-.11,0-.16-.07-.16-.21s.07-.27.21-.27h.16v.35a.23.23,0,0,0,.25.25h.13v-.15h-.09c-.08,0-.12-.05-.12-.14Zm-.61,1.24a.1.1,0,0,0,0,.2.1.1,0,0,0,0-.2m-.27,0a.1.1,0,0,0,0,.2.1.1,0,0,0,0-.2"/><polygon class="cls-1" points="20.81 18.63 20.23 18.63 20.27 18.63 20.27 18.78 20.85 18.78 20.81 18.78 20.81 18.63"/><rect class="cls-1" x="20.23" y="18.63" width="0.04" height="0.15"/><path class="cls-1" d="M21.16,17.61c-.14,0-.22.1-.22.25h-.07V18h.5l-.09-.11h-.2c0-.09,0-.14.11-.14a.14.14,0,0,1,.09,0l0-.08a.29.29,0,0,0-.16-.06m.15.46-.19,0,0,.22v.16c0,.09,0,.14-.13.14h-.17v.15h.21a.22.22,0,0,0,.25-.24Z"/><rect class="cls-1" x="20.81" y="18.63" width="0.05" height="0.15"/><path class="cls-1" d="M21.7,17.7l-.2,0,0,.22v.57a.23.23,0,0,0,.25.25h.08v-.15h0c-.08,0-.12-.05-.12-.14Z"/><path class="cls-1" d="M22.53,18.13a.38.38,0,0,0-.42.39c0,.07,0,.11-.12.11h-.08v.15H22a.24.24,0,0,0,.12,0,.24.24,0,0,0,.22.12.42.42,0,0,0,.3-.14.25.25,0,0,0,.16.05h.07v-.15h0c-.08,0-.12-.05-.12-.14v-.15l0-.17a.67.67,0,0,0-.24,0m-.11.61c-.08,0-.14-.09-.14-.23s.07-.26.21-.26h.08l0,.09v.31a.25.25,0,0,1-.17.08"/><rect class="cls-1" x="21.86" y="18.63" width="0.05" height="0.15"/><path class="cls-1" d="M23.24,17.7a.1.1,0,0,0,0,.2.11.11,0,0,0,.11-.1.1.1,0,0,0-.11-.1m.12.37-.2,0,0,.22v.16c0,.09,0,.14-.12.14H23v.15h.15a.25.25,0,0,0,.16-.05.31.31,0,0,0,.17.05h.08v-.15h0c-.08,0-.12-.05-.12-.14Z"/><rect class="cls-1" x="22.91" y="18.63" width="0.05" height="0.15"/><path class="cls-1" d="M24,18.06l-.2,0,0,.22v.17c0,.09,0,.14-.13.14h-.11v.15h.16a.28.28,0,0,0,.16-.05.28.28,0,0,0,.16.05h.08v-.15h0c-.09,0-.13-.05-.13-.14Zm-.08.89a.1.1,0,1,0,.1.1.09.09,0,0,0-.1-.1m-.27,0a.1.1,0,0,0,0,.2.11.11,0,0,0,.11-.1.1.1,0,0,0-.11-.1"/><rect class="cls-1" x="23.52" y="18.63" width="0.05" height="0.15"/><polygon class="cls-1" points="24.7 18.63 24.12 18.63 24.17 18.63 24.17 18.78 24.74 18.78 24.7 18.78 24.7 18.63"/><rect class="cls-1" x="24.12" y="18.63" width="0.05" height="0.15"/><path class="cls-1" d="M26,18.07l-.2,0,0,.22v.17c0,.09,0,.13-.12.13a.2.2,0,0,1-.15-.06v-.44l-.16,0v.33c0,.09,0,.13-.12.13a.2.2,0,0,1-.15-.06v-.44l-.17,0v.32c0,.09,0,.14-.12.14h-.11v.15h.15a.26.26,0,0,0,.18-.06l0,0a.3.3,0,0,0,.23.1.21.21,0,0,0,.2-.1.3.3,0,0,0,.23.1.28.28,0,0,0,.16-.05.29.29,0,0,0,.17.05h0v-.15h0A.12.12,0,0,1,26,18.5Z"/><rect class="cls-1" x="24.7" y="18.63" width="0.05" height="0.15"/><path class="cls-1" d="M26.7,17.69l-.2,0,0,.22v.54c0,.09,0,.14-.13.14h-.22v.15h.27a.23.23,0,0,0,.25-.25Z"/><rect class="cls-1" x="26.13" y="18.63" width="0.05" height="0.15"/><polygon class="cls-1" points="27.09 17.69 26.88 17.71 26.91 17.92 26.91 18.78 27.07 18.78 27.07 17.92 27.09 17.69"/><path class="cls-2" d="M8.33,21.12h.1l.08,0A.1.1,0,0,0,8.56,21a.11.11,0,0,0,0-.08.17.17,0,0,0,0-.1.28.28,0,0,0-.07-.09l-.11-.07-.13-.06-.12-.07L8,20.46a.25.25,0,0,1-.08-.1.3.3,0,0,1,0-.26A.26.26,0,0,1,8,20l.13-.07.18,0a.47.47,0,0,1,.28.07.45.45,0,0,1,.15.22l-.11,0a.37.37,0,0,0-.05-.11.27.27,0,0,0-.07-.08L8.42,20a.25.25,0,0,0-.12,0H8.19L8.12,20a.21.21,0,0,0,0,.06.14.14,0,0,0,0,.07.16.16,0,0,0,0,.09l.08.07a.41.41,0,0,0,.11.07l.13.07.13.08a.5.5,0,0,1,.12.08.39.39,0,0,1,.08.1.21.21,0,0,1,0,.12.31.31,0,0,1,0,.13.27.27,0,0,1-.09.12.37.37,0,0,1-.14.08l-.19,0a.41.41,0,0,1-.16,0L8,21.13,7.94,21a.23.23,0,0,1-.06-.12L8,20.86A.37.37,0,0,0,8,21a.34.34,0,0,0,.08.09l.1.05h.11"/><path class="cls-2" d="M9.25,20.39a.6.6,0,0,1,.18-.15.45.45,0,0,1,.19,0l.1,0a.23.23,0,0,1,.07.07.2.2,0,0,1,.06.09.43.43,0,0,1,0,.11v.69h-.2v-.65a.21.21,0,0,0,0-.15.14.14,0,0,0-.11-.05H9.46l-.07,0-.07,0-.07.06v.71H9.06v-1.4l.14-.05h.05Z"/><path class="cls-2" d="M10.71,20.61l-.09,0-.09,0-.08.05-.06.05-.05.06a.14.14,0,0,0,0,.06.14.14,0,0,0,0,.07s0,0,0,.06a.09.09,0,0,0,.05,0l.06,0h.06l.06,0,.05,0,.06,0Zm.19.56h-.19V21l-.07.06-.07,0-.08,0h-.21l-.08-.05a.35.35,0,0,1,0-.08.3.3,0,0,1,0-.1.23.23,0,0,1,0-.11.47.47,0,0,1,.06-.09l.1-.07.12-.05.14,0,.13,0v-.06a.36.36,0,0,0,0-.11.15.15,0,0,0,0-.07l-.06,0h-.16l0,0a.08.08,0,0,0,0,.05s0,0,0,0v.05s0,0,0,0l0,0h-.09l0,0a.05.05,0,0,1,0,0,.06.06,0,0,1,0,0,.16.16,0,0,1,0-.09.27.27,0,0,1,.08-.07l.13-.05.15,0,.16,0a.23.23,0,0,1,.1.05.16.16,0,0,1,.06.08.36.36,0,0,1,0,.11Z"/><path class="cls-2" d="M11.26,20.21h.19v.18a.19.19,0,0,1,.06-.07l.06-.07.08,0,.07,0h.06l.05,0,0,0a.11.11,0,0,1,0,.12l-.08,0h-.09l0,0h-.08l0,0,0,.05a.21.21,0,0,0,0,.06v.66h-.19Z"/><path class="cls-2" d="M12.2,19.72h.05l0,0s0,0,0,0a0,0,0,0,1,0,0s0,0,0,0l0,0,0,0h-.09l0,0,0,0s0,0,0,0v0l0,0,0,0h0m.1,1.45a1,1,0,0,1,0,.18.56.56,0,0,1,0,.12.22.22,0,0,1-.05.08.2.2,0,0,1-.08,0l-.09,0h-.19l-.06,0,0,0a.09.09,0,0,1,0-.05.14.14,0,0,1,0-.06l.08,0h0l0,0s0,0,0,0l0,0,0,0h.08s0,0,0,0a.08.08,0,0,0,0-.05.17.17,0,0,0,0-.08V20.25l.13-.06h.06Z"/><path class="cls-2" d="M13.17,20.61l-.09,0-.09,0-.08.05-.07.05,0,.06a.14.14,0,0,0,0,.06s0,.05,0,.07a.21.21,0,0,0,0,.06.09.09,0,0,0,.05,0l.06,0H13l.06,0,0,0,.06,0Zm.19.56h-.19V21l-.07.06-.07,0-.09,0h-.21l-.07-.05a.35.35,0,0,1-.05-.08.3.3,0,0,1,0-.1.23.23,0,0,1,0-.11.24.24,0,0,1,.06-.09l.1-.07.12-.05.13,0,.14,0v-.06a.36.36,0,0,0,0-.11l0-.07-.06,0H12.9l-.05,0a.08.08,0,0,0,0,.05.09.09,0,0,0,0,0v.05a.05.05,0,0,1,0,0s0,0,0,0h-.08s0,0,0,0l0,0v0a.16.16,0,0,1,0-.09.27.27,0,0,1,.08-.07l.13-.05.15,0,.16,0a.31.31,0,0,1,.1.05.16.16,0,0,1,.06.08.36.36,0,0,1,0,.11Z"/><path class="cls-2" d="M13.91,20.39a.43.43,0,0,1,.18-.15.41.41,0,0,1,.19,0l.09,0a.27.27,0,0,1,.08.07.19.19,0,0,1,.05.09.43.43,0,0,1,0,.11v.69h-.19v-.65a.27.27,0,0,0,0-.15.16.16,0,0,0-.11-.05h-.07l-.07,0-.07,0-.06.06v.71h-.2v-1.4l.14-.05h.06Z"/><rect class="cls-2" x="15.53" y="19.93" width="0.21" height="1.25"/><path class="cls-2" d="M16.11,20.21h.19v.18a.6.6,0,0,1,.18-.15.45.45,0,0,1,.19,0l.1,0a.23.23,0,0,1,.07.07.2.2,0,0,1,.06.09.43.43,0,0,1,0,.11v.69h-.2v-.65a.21.21,0,0,0,0-.15.16.16,0,0,0-.11-.05h-.06l-.07,0-.07,0-.07.06v.71h-.19Z"/><path class="cls-2" d="M17.75,21.05a.36.36,0,0,1-.1.11.41.41,0,0,1-.16,0h-.08a.1.1,0,0,1-.06-.05.16.16,0,0,1,0-.07s0-.06,0-.09v-.68h-.17v-.05l.14,0a.3.3,0,0,0,.08-.08.43.43,0,0,0,0-.12.57.57,0,0,0,0-.14h0v.33h.22v.08h-.22V21s0,0,0,0l0,0,0,0h.09l.05,0Z"/><path class="cls-2" d="M18.58,20.52a.16.16,0,0,0,0-.1.22.22,0,0,0,0-.08.24.24,0,0,0-.08-.06l-.1,0-.08,0a.2.2,0,0,0-.07.06.22.22,0,0,0-.05.08.3.3,0,0,0,0,.1Zm-.19.67a.57.57,0,0,1-.18,0,.56.56,0,0,1-.15-.1.5.5,0,0,1-.14-.33.78.78,0,0,1,0-.22,1,1,0,0,1,.1-.17.45.45,0,0,1,.34-.15.48.48,0,0,1,.18,0l.13.09a.38.38,0,0,1,.09.13.41.41,0,0,1,0,.16H18.1a.57.57,0,0,0,0,.18.61.61,0,0,0,.07.14.31.31,0,0,0,.11.09.2.2,0,0,0,.13,0l.12,0,.11-.05a.6.6,0,0,0,.08-.08.36.36,0,0,0,0-.09l.06,0-.07.14-.11.11a.57.57,0,0,1-.13.08.39.39,0,0,1-.15,0"/><path class="cls-2" d="M19.13,20.21h.19v.18l.06-.07a.23.23,0,0,1,.07-.07l.07,0,.07,0h.06l.05,0,0,0a.11.11,0,0,1,0,.12.15.15,0,0,1-.08,0h-.08l0,0h-.07l0,0a.1.1,0,0,0,0,.05.21.21,0,0,0,0,.06v.66h-.19Z"/><path class="cls-2" d="M20,20.21h.19v.18a.6.6,0,0,1,.18-.15.41.41,0,0,1,.19,0l.09,0a.27.27,0,0,1,.08.07.19.19,0,0,1,.05.09.22.22,0,0,1,0,.11v.69h-.19v-.65a.21.21,0,0,0,0-.15.16.16,0,0,0-.11-.05h-.07l-.07,0-.07,0-.06.06v.71H20Z"/><path class="cls-2" d="M21.61,20.61l-.09,0a.2.2,0,0,1-.08,0l-.08.05a.18.18,0,0,0-.07.05l-.05.06a.13.13,0,0,0,0,.06.15.15,0,0,0,0,.07l0,.06s0,0,.05,0l.06,0h.06l.06,0a.1.1,0,0,0,.05,0l.06,0Zm.19.56h-.19V21l-.07.06-.07,0a.2.2,0,0,1-.08,0h-.21l-.08-.05a.35.35,0,0,1-.05-.08.31.31,0,0,1,0-.1.22.22,0,0,1,0-.11l.07-.09.1-.07.12-.05.13,0,.13,0v-.06a.37.37,0,0,0,0-.11.16.16,0,0,0,0-.07l-.06,0h-.15l-.05,0,0,.05v0a.09.09,0,0,1,0,.05s0,0,0,0l0,0h-.09l0,0a.05.05,0,0,1,0,0,.06.06,0,0,1,0,0,.16.16,0,0,1,0-.09.22.22,0,0,1,.09-.07.33.33,0,0,1,.12-.05l.15,0,.16,0,.11.05a.22.22,0,0,1,.05.08.2.2,0,0,1,0,.11Z"/><path class="cls-2" d="M22.67,21.05a.27.27,0,0,1-.1.11.35.35,0,0,1-.16,0h-.08l-.06-.05a.09.09,0,0,1,0-.07.29.29,0,0,1,0-.09v-.68h-.16v-.05l.13,0a.34.34,0,0,0,.09-.08.43.43,0,0,0,0-.12l0-.14h.06v.33h.21v.08h-.21V21l0,0s0,0,0,0h.1s0,0,0,0Z"/><path class="cls-2" d="M22.9,20.25l.13-.06h.06v1H22.9Zm.09-.53h0a.05.05,0,0,1,0,0s0,0,0,0a0,0,0,0,1,0,0s0,0,0,0l0,0,0,0H23l0,0,0,0s0,0,0,0a0,0,0,0,1,0,0l0,0,0,0h0"/><path class="cls-2" d="M23.93,21.12a.19.19,0,0,0,.1,0,.18.18,0,0,0,.08-.07.43.43,0,0,0,.05-.12.32.32,0,0,0,0-.14,1.15,1.15,0,0,0,0-.19l-.06-.16A.29.29,0,0,0,24,20.3a.34.34,0,0,0-.16,0,.16.16,0,0,0-.09,0,.3.3,0,0,0-.08.08.37.37,0,0,0-.05.11.32.32,0,0,0,0,.14.58.58,0,0,0,0,.19.43.43,0,0,0,.06.17.27.27,0,0,0,.11.1.21.21,0,0,0,.14,0m0,.07a.64.64,0,0,1-.2,0,.5.5,0,0,1-.17-.11.4.4,0,0,1-.1-.15.43.43,0,0,1,0-.19.42.42,0,0,1,0-.2.48.48,0,0,1,.1-.17.71.71,0,0,1,.17-.11.65.65,0,0,1,.2,0,.45.45,0,0,1,.2,0,.37.37,0,0,1,.16.1.33.33,0,0,1,.11.15.41.41,0,0,1,0,.19.54.54,0,0,1-.15.37.31.31,0,0,1-.16.11.45.45,0,0,1-.2,0"/><path class="cls-2" d="M24.68,20.21h.19v.18a.53.53,0,0,1,.19-.15.41.41,0,0,1,.19,0l.09,0a.27.27,0,0,1,.08.07.19.19,0,0,1,0,.09.43.43,0,0,1,0,.11v.69H25.3v-.65a.21.21,0,0,0-.05-.15.13.13,0,0,0-.11-.05h-.06l-.07,0-.07,0-.07.06v.71h-.19Z"/><path class="cls-2" d="M26.33,20.61l-.09,0-.08,0-.09.05-.06.05-.05.06a.14.14,0,0,0,0,.06A.14.14,0,0,0,26,21s0,0,0,.06,0,0,.05,0l.06,0h.06l.06,0,.05,0,.06,0Zm.19.56h-.19V21l-.07.06-.07,0-.08,0H25.9l-.08-.05a.35.35,0,0,1-.05-.08.3.3,0,0,1,0-.1.23.23,0,0,1,0-.11.47.47,0,0,1,.06-.09l.1-.07.12-.05.14,0,.13,0v-.06a.36.36,0,0,0,0-.11.15.15,0,0,0,0-.07l-.06,0h-.16l0,0a.08.08,0,0,0,0,.05s0,0,0,0v.05s0,0,0,0l0,0h-.09l0,0a.05.05,0,0,1,0,0,.06.06,0,0,1,0,0,.16.16,0,0,1,0-.09.27.27,0,0,1,.08-.07l.13-.05.15,0,.16,0a.23.23,0,0,1,.1.05.16.16,0,0,1,.06.08.36.36,0,0,1,0,.11Z"/><polygon class="cls-2" points="27.08 21.17 26.89 21.17 26.89 19.77 27.02 19.72 27.08 19.72 27.08 21.17"/><path class="cls-1" d="M8.44,22.1l-.17.07-.14.11a.64.64,0,0,0-.1.13.77.77,0,0,0-.07.16.88.88,0,0,0,0,.17,1,1,0,0,0,0,.17l.06.15a1,1,0,0,0,.24.24,1.15,1.15,0,0,0,.17.06.64.64,0,0,0,.2,0,.58.58,0,0,0,.19,0L9,23.29l.12-.1.09-.13L9.1,23a.61.61,0,0,1-.07.1.26.26,0,0,1-.09.09.41.41,0,0,1-.11.07.31.31,0,0,1-.13,0,.65.65,0,0,1-.2,0,.5.5,0,0,1-.17-.11A.78.78,0,0,1,8.22,23a.71.71,0,0,1,0-.47.78.78,0,0,1,.11-.18.54.54,0,0,1,.37-.15.34.34,0,0,1,.22.07.58.58,0,0,1,.18.22l.09-.06-.09-.12L9,22.18a.35.35,0,0,0-.15-.07.57.57,0,0,0-.18,0l-.2,0"/><g class="cls-3"><rect class="cls-1" x="7.94" y="22.08" width="1.25" height="1.31"/></g><path class="cls-1" d="M9.6,21.9H9.54L9.4,22v1.4h.2v-.72l.06-.05.07-.05.07,0h.07a.16.16,0,0,1,.11.05.22.22,0,0,1,0,.15v.66h.19v-.69a.5.5,0,0,0,0-.12.41.41,0,0,0,0-.09.16.16,0,0,0-.08-.06.16.16,0,0,0-.09,0,.41.41,0,0,0-.19.05.52.52,0,0,0-.18.15Z"/><path class="cls-1" d="M10.54,21.9h0l0,0s0,0,0,0,0,0,0,0a0,0,0,0,0,0,0s0,0,0,0l0,0h.09l0,0s0,0,0,0,0,0,0,0,0,0,0,0l0,0,0,0h0m.09.47h-.05l-.14.06v.93h.19Z"/><polygon class="cls-1" points="11.07 21.9 11.01 21.9 10.88 21.96 10.88 23.36 11.07 23.36 11.07 21.9"/><path class="cls-1" d="M12.17,21.9h-.06L12,22v.5l-.1-.06a.21.21,0,0,0-.12,0l-.13,0-.12.06-.11.08-.08.11-.05.12a.53.53,0,0,0,0,.13.63.63,0,0,0,0,.19.71.71,0,0,0,.08.15.45.45,0,0,0,.13.11.47.47,0,0,0,.16,0h.08l.09,0,.08,0a.18.18,0,0,0,.07,0v.12h.19Zm-.4,1.37a.27.27,0,0,1-.12,0,.22.22,0,0,1-.09-.1.46.46,0,0,1-.07-.14.47.47,0,0,1,0-.17.36.36,0,0,1,0-.15.31.31,0,0,1,.06-.13.3.3,0,0,1,.08-.08l.11,0h.09a.2.2,0,0,1,.07.06.12.12,0,0,1,.06.08.3.3,0,0,1,0,.1v.47a.08.08,0,0,1,0,0l0,0-.06,0h-.06"/><path class="cls-1" d="M12.86,22.37l-.08,0-.07,0-.06.07a.16.16,0,0,0-.06.08v-.19H12.4v1h.19v-.67l0-.06,0-.05,0,0h.11l0,0h.05a.11.11,0,0,0,.08,0,.09.09,0,0,0,0-.07s0,0,0,0l0,0-.05,0h-.06"/><path class="cls-1" d="M13.54,22.37a.58.58,0,0,0-.19,0,.44.44,0,0,0-.15.12.55.55,0,0,0-.1.17.66.66,0,0,0,0,.21.34.34,0,0,0,0,.18.31.31,0,0,0,.1.15.4.4,0,0,0,.15.1.37.37,0,0,0,.18,0,.4.4,0,0,0,.15,0,.57.57,0,0,0,.13-.08.57.57,0,0,0,.11-.11A.61.61,0,0,0,14,23l-.06,0a.3.3,0,0,1,0,.08.6.6,0,0,1-.08.08l-.11.05-.12,0a.28.28,0,0,1-.13,0,.36.36,0,0,1-.11-.1.31.31,0,0,1-.07-.14.57.57,0,0,1,0-.18H14a.4.4,0,0,0,0-.15.3.3,0,0,0-.09-.13.38.38,0,0,0-.13-.09.53.53,0,0,0-.18,0m.19.33h-.48a.38.38,0,0,1,0-.1.22.22,0,0,1,.05-.08.18.18,0,0,1,.07-.05.12.12,0,0,1,.08,0,.16.16,0,0,1,.1,0l.08.05a.22.22,0,0,1,.05.08.18.18,0,0,1,0,.1"/><path class="cls-1" d="M14.74,22.37a.41.41,0,0,0-.19.05.8.8,0,0,0-.18.15v-.18h-.19v1h.19v-.72l.06-.05.07-.05.07,0h.07a.16.16,0,0,1,.11.05.22.22,0,0,1,0,.15v.66H15v-.69a.25.25,0,0,0,0-.12.41.41,0,0,0-.05-.09.16.16,0,0,0-.08-.06.16.16,0,0,0-.09,0"/><path class="cls-1" d="M15.29,22h0l-.05,0a.05.05,0,0,0,0,0,.06.06,0,0,0,0,0s0,0,0,0,0,0,0,0l0,0h.14a.06.06,0,0,1,0,0,.17.17,0,0,1,0,.07l0,.06-.06.05s-.05,0-.08,0v.05a.23.23,0,0,0,.11,0l.09-.06a.36.36,0,0,0,.07-.1.37.37,0,0,0,0-.12.17.17,0,0,0,0-.07.09.09,0,0,0,0-.06.12.12,0,0,0-.05,0h-.06"/><path class="cls-1" d="M15.86,22.37l-.13,0-.11.06a.2.2,0,0,0-.06.09.17.17,0,0,0,0,.1.36.36,0,0,0,0,.11l.06.08.08.06.1.05.09,0L16,23l.06.06a.19.19,0,0,1,0,.08s0,0,0,0l0,.05-.06,0h-.15l-.07,0-.06-.06-.07-.08-.08.07a.38.38,0,0,0,.09.09l.09.05a.16.16,0,0,0,.09,0h.09a.41.41,0,0,0,.16,0,.24.24,0,0,0,.11-.06.16.16,0,0,0,.07-.09.22.22,0,0,0,0-.22.24.24,0,0,0-.06-.08l-.09-.06L16,22.79l-.1,0-.09-.05-.06-.06a.11.11,0,0,1,0-.07.08.08,0,0,1,0-.05.08.08,0,0,1,0,0s0,0,0,0h.08a.23.23,0,0,1,.14,0,.44.44,0,0,1,.13.14l.07-.07a.38.38,0,0,0-.09-.09L16,22.41s-.05,0-.08,0h-.09"/><polygon class="cls-1" points="17.83 22.11 17.01 22.11 17.01 23.36 17.22 23.36 17.22 22.72 17.66 22.72 17.66 22.64 17.22 22.64 17.22 22.19 17.83 22.19 17.83 22.11"/><path class="cls-1" d="M18.05,21.9h0l0,0,0,0s0,0,0,0,0,0,0,0,0,0,0,0l0,0h.08l0,0s0,0,0,0a0,0,0,0,0,0,0s0,0,0,0,0,0,0,0a.05.05,0,0,0,0,0h0m.1.47h-.06l-.13.06v.93h.19Z"/><polygon class="cls-1" points="18.58 21.9 18.53 21.9 18.39 21.96 18.39 23.36 18.58 23.36 18.58 21.9"/><path class="cls-1" d="M20,22.37l-.11,0-.11,0a.31.31,0,0,0-.09.07.27.27,0,0,0-.07.08.19.19,0,0,0,0-.08.23.23,0,0,0-.07-.07.2.2,0,0,0-.08,0l-.08,0-.1,0-.1,0-.09.07-.08.07v-.18h-.2v1H19v-.72s0,0,0-.05l.07,0a.11.11,0,0,1,.07,0l.08,0,.07,0,0,0a.16.16,0,0,1,0,.07.17.17,0,0,1,0,.07v.66h.2v-.72l0-.05.07-.05.08,0h.08l.06,0,.06,0a.43.43,0,0,1,0,.07.17.17,0,0,1,0,.07v.66h.19v-.68a.25.25,0,0,0,0-.12.31.31,0,0,0-.05-.1l-.09-.06a.17.17,0,0,0-.1,0"/><polygon class="cls-1" points="21.9 22.11 21.09 22.11 21.09 23.36 21.3 23.36 21.3 22.72 21.73 22.72 21.73 22.64 21.3 22.64 21.3 22.19 21.9 22.19 21.9 22.11"/><path class="cls-1" d="M22.41,22.37a.58.58,0,0,0-.19,0,.44.44,0,0,0-.15.12.55.55,0,0,0-.1.17.66.66,0,0,0,0,.21.34.34,0,0,0,0,.18.48.48,0,0,0,.43.29.4.4,0,0,0,.15,0,.57.57,0,0,0,.13-.08.38.38,0,0,0,.11-.11.61.61,0,0,0,.07-.14l-.06,0a.3.3,0,0,1,0,.08.3.3,0,0,1-.08.08l-.11.05-.12,0a.28.28,0,0,1-.13,0,.52.52,0,0,1-.11-.1.46.46,0,0,1-.07-.14.57.57,0,0,1,0-.18h.72a.4.4,0,0,0,0-.15.44.44,0,0,0-.22-.22.48.48,0,0,0-.18,0m.19.33h-.47a.36.36,0,0,1,0-.1.22.22,0,0,1,.05-.08l.07-.05a.13.13,0,0,1,.08,0,.16.16,0,0,1,.1,0l.08.05a.22.22,0,0,1,0,.08.18.18,0,0,1,0,.1"/><path class="cls-1" d="M23.35,22.37l-.13,0-.11.06a.22.22,0,0,0-.07.09.3.3,0,0,0,0,.1.36.36,0,0,0,0,.11l.06.08.08.06.1.05.09,0,.09.05.05.06a.11.11,0,0,1,0,.08s0,0,0,0l0,.05-.05,0h-.15l-.07,0-.06-.06a.27.27,0,0,1-.07-.08L23,23.2a.38.38,0,0,0,.09.09l.09.05a.16.16,0,0,0,.09,0h.09a.41.41,0,0,0,.16,0,.24.24,0,0,0,.11-.06.16.16,0,0,0,.07-.09.31.31,0,0,0,0-.22l-.06-.08-.09-.06-.11-.05-.1,0-.09-.05a.17.17,0,0,1-.06-.06.11.11,0,0,1,0-.07.08.08,0,0,1,0-.05l0,0,.06,0h.08a.23.23,0,0,1,.14,0,.33.33,0,0,1,.12.14l.07-.07a.36.36,0,0,0-.08-.09l-.08-.05-.08,0h-.09"/><path class="cls-1" d="M24.17,22.07h-.05a.65.65,0,0,1,0,.13.22.22,0,0,1,0,.12.3.3,0,0,1-.08.08.28.28,0,0,1-.13,0v0H24v.68s0,.07,0,.09a.2.2,0,0,0,0,.08.09.09,0,0,0,.06,0l.08,0a.42.42,0,0,0,.16,0,.36.36,0,0,0,.1-.11l-.05,0s0,0,0,0l-.06,0h0l0,0,0,0s0,0,0,0v-.68h.22v-.08h-.22Z"/><path class="cls-1" d="M24.65,21.9h0l0,0s0,0,0,0,0,0,0,0a0,0,0,0,0,0,0s0,0,0,0l0,0h.09l0,0s0,0,0,0,0,0,0,0,0,0,0,0l0,0,0,0h0m.09.47h0l-.14.06v.93h.19Z"/><polygon class="cls-1" points="25.82 22.39 25.73 22.39 25.41 23.12 25.07 22.39 24.87 22.39 25.32 23.37 25.39 23.37 25.82 22.39"/><path class="cls-1" d="M26.31,22.37l-.15,0-.13.05a.27.27,0,0,0-.08.07.16.16,0,0,0,0,.09s0,0,0,0a.05.05,0,0,0,0,0s0,0,0,0h.09l0,0a.05.05,0,0,0,0,0v-.05a.43.43,0,0,0,0,0s0,0,0-.05l.05,0h.16l.06,0a.15.15,0,0,1,0,.07.36.36,0,0,1,0,.11v.06l-.14,0-.13,0-.12.06-.1.07a.15.15,0,0,0-.06.09.2.2,0,0,0,0,.11.29.29,0,0,0,0,.09.22.22,0,0,0,.05.08l.08.05.1,0,.1,0,.09,0,.07,0a.18.18,0,0,1,.07-.05v.13h.19v-.73a.43.43,0,0,0,0-.11.21.21,0,0,0-.06-.08.23.23,0,0,0-.1-.05l-.16,0m-.08.89h-.06a.1.1,0,0,1-.05,0s0,0,0-.06a.14.14,0,0,1,0-.06.14.14,0,0,1,0-.07l.05-.06s0,0,.06-.05l.08-.05.09,0a.16.16,0,0,1,.09,0v.36l-.06,0,0,0-.06,0h-.06"/><polygon class="cls-1" points="27.1 21.9 27.05 21.9 26.91 21.96 26.91 23.36 27.1 23.36 27.1 21.9"/><path class="cls-1" d="M4.32,10c.55,2.51-.32,5-.82,7.45a10.07,10.07,0,0,0-.22,2.26,5.34,5.34,0,0,0,.43,2.16.2.2,0,0,0,.13.08s.12,0,.1,0a6.75,6.75,0,0,1-.35-3.59A16.61,16.61,0,0,1,4,16.49c.14-.62.29-1.24.42-1.86a10.89,10.89,0,0,0,.18-4.58c0-.07-.24-.11-.23-.05Z"/><path class="cls-1" d="M4.56,7.75a.64.64,0,0,1,.54-.68.65.65,0,0,1,.61.63.58.58,0,1,1-1.15,0M2.39,6.51c0-.32.16-.67.48-.68a.61.61,0,0,1,.67.63.58.58,0,0,1-.55.6.57.57,0,0,1-.6-.55m4.23-.2a.58.58,0,1,1,.6.55.57.57,0,0,1-.6-.55M3.81,5.22A1.25,1.25,0,0,1,4.92,3.89,1.36,1.36,0,0,1,6.28,5.1,1.24,1.24,0,0,1,5.15,6.4,1.31,1.31,0,0,1,3.81,5.22M1.91,4a.64.64,0,0,1,.54-.68A.66.66,0,0,1,3.06,4a.57.57,0,0,1-.55.6A.57.57,0,0,1,1.91,4m4.72-.23a.64.64,0,0,1,.59-.64.61.61,0,0,1,.61.59c0,.5-.27.61-.59.63a.61.61,0,0,1-.61-.58M4.31,2.58a.58.58,0,0,1,1.15-.05.58.58,0,0,1-.55.6.57.57,0,0,1-.6-.55M1.22,5.34A4.17,4.17,0,0,0,5.38,9.19,4,4,0,0,0,8.94,5,3.92,3.92,0,0,0,5,1.18a4.12,4.12,0,0,0-3.8,4.16"/><path class="cls-4" d="M10.05,5.24a4.74,4.74,0,0,0-.9-2.54,4.78,4.78,0,0,0-2.1-1.62,4.9,4.9,0,0,0-5.16,1A4.67,4.67,0,0,0,.57,4.36,4.58,4.58,0,0,0,.73,7.1a4.83,4.83,0,0,0,4.11,3.08h.07c0,.22.06.44.08.65a17,17,0,0,1,0,1.89c0,1.58-.18,3.16-.3,4.74s-.24,3-.24,4.53a7.75,7.75,0,0,0,.16,1.92c0,.05.21.08.2,0a5.84,5.84,0,0,1-.16-1.44c0-.67,0-1.34,0-2,.08-1.61.22-3.22.34-4.82a42.36,42.36,0,0,0,.16-4.36c0-.33,0-.66-.09-1,0-.05,0-.09,0-.13A4.89,4.89,0,0,0,9.45,7.76,4.7,4.7,0,0,0,10.05,5.24Zm-1,2.57a4.57,4.57,0,0,1-2,1.71A4.41,4.41,0,0,1,5,9.91c0-.1-.07-.21-.11-.31s-.21-.07-.19,0a3,3,0,0,1,.11.32A4.62,4.62,0,0,1,2.06,8.65a4.4,4.4,0,0,1-1-5,4.73,4.73,0,0,1,1.71-2A4.71,4.71,0,0,1,5.42,1,4.57,4.57,0,0,1,9.52,4a4.35,4.35,0,0,1,.26,1.29A4.48,4.48,0,0,1,9.1,7.81Z"/><path class="cls-1" d="M9.52,4.57a4.29,4.29,0,0,1-.71,2.55,4.39,4.39,0,0,1-7,.38,4.22,4.22,0,0,1-.31-5A4.41,4.41,0,0,1,6.27.65,4.45,4.45,0,0,1,8.5,2a4.29,4.29,0,0,1,1,2.43.49.49,0,0,0,0,.12c0,.17.28.17.27,0A4.47,4.47,0,0,0,8.87,2a4.66,4.66,0,0,0-7.2-.21A4.55,4.55,0,0,0,.59,4.27,4.47,4.47,0,0,0,1.12,7,4.65,4.65,0,0,0,9.63,6a4.25,4.25,0,0,0,.16-1.42C9.79,4.39,9.51,4.39,9.52,4.57Z"/><path class="cls-5" d="M9.77,4.52A4.8,4.8,0,0,0,8.87,2,4.68,4.68,0,0,0,6.77.33,4.76,4.76,0,0,0,1.69,1.39a4.75,4.75,0,0,0,3.12,8.1h.35s0,0,0,0a4.59,4.59,0,0,1,.26,1.21c.06.61.08,1.23.09,1.84,0,1.57,0,3.14-.1,4.7s-.12,3.09-.11,4.64c0,.48,0,1,0,1.45a7.36,7.36,0,0,0,.14,1.05c0,.06.21,0,.2,0A7.13,7.13,0,0,1,5.51,23c0-.65,0-1.3,0-2,0-1.59.09-3.18.14-4.78s.1-3,0-4.51c0-.45,0-.91-.11-1.35a3.55,3.55,0,0,0-.23-.92h0A4.82,4.82,0,0,0,9.27,6.88,4.9,4.9,0,0,0,9.77,4.52Zm-.95,2.6a4.48,4.48,0,0,1-2,1.71,4.43,4.43,0,0,1-2.69.3A4.48,4.48,0,0,1,1,2.84,4.48,4.48,0,0,1,2.75.91,4.43,4.43,0,0,1,5.38.29,4.46,4.46,0,0,1,9.49,4.52,4.56,4.56,0,0,1,8.82,7.12Z"/><path class="cls-6" d="M9.23,5a4.5,4.5,0,0,0-3.07-4A4.81,4.81,0,0,0,3.35.83,4.52,4.52,0,0,0,0,4.66,4.49,4.49,0,0,0,.55,7.32,4.54,4.54,0,0,0,2.43,9.15,4.79,4.79,0,0,0,5,9.66a8,8,0,0,1,1,1.52,6.78,6.78,0,0,1,.83,2.37,2.92,2.92,0,0,1-.08,1.14,2.19,2.19,0,0,1-.72,1.05,3,3,0,0,0-.67-1.29c-.24-.26-.7-.5-1-.16a1,1,0,0,0-.18.68,1.28,1.28,0,0,0,.42.84,1.1,1.1,0,0,0,.92.27A1.42,1.42,0,0,0,5.92,16a5,5,0,0,1,0,2.07,5.37,5.37,0,0,1-.58,1.55c-.27.52-.63,1-.89,1.51A3.46,3.46,0,0,0,4,23.24a2,2,0,0,0,.7,1.18,2.38,2.38,0,0,0,.89.5.22.22,0,0,0,.14,0s0-.05,0-.06a2.21,2.21,0,0,1-.52-.24,2.21,2.21,0,0,1-.85-.89,2.54,2.54,0,0,1-.07-1.82,5.72,5.72,0,0,1,.59-1.31c.16-.26.34-.51.49-.77a8.36,8.36,0,0,0,.4-.79,5.36,5.36,0,0,0,.36-2.8c0-.12,0-.24-.07-.37a2.52,2.52,0,0,0,.57-.56A2.65,2.65,0,0,0,7,13.1,7.84,7.84,0,0,0,6.14,11a8.49,8.49,0,0,0-.9-1.34A4.69,4.69,0,0,0,7.65,8.58a4.6,4.6,0,0,0,1.42-2.2A4.62,4.62,0,0,0,9.23,5ZM5,15.89a1.23,1.23,0,0,1-.54-.79,1,1,0,0,1,.12-.76.27.27,0,0,1,.15-.13h0l.1,0a1.27,1.27,0,0,1,.49.43,2.9,2.9,0,0,1,.43.84,2.47,2.47,0,0,1,.11.36A.84.84,0,0,1,5,15.89ZM8.17,7.56a4.31,4.31,0,0,1-2,1.67,4.09,4.09,0,0,1-2.63.15A4.34,4.34,0,0,1,1.34,7.94,4.46,4.46,0,0,1,1,2.82a4.42,4.42,0,0,1,2-1.7A4.09,4.09,0,0,1,5.66.94a4.38,4.38,0,0,1,3.2,3.9.49.49,0,0,1,0,.12A4.44,4.44,0,0,1,8.17,7.56Z"/></g></g></svg>