<svg xmlns="http://www.w3.org/2000/svg" viewBox="0 0 27.13 18.01"><defs><style>.cls-1{fill:#d09847;}.cls-2{fill:#2f2b2b;}</style></defs><title>6</title><g id="Layer_2" data-name="Layer 2"><g id="Layer_1-2" data-name="Layer 1"><g id="U8Klex"><path class="cls-1" d="M7.84,7.87a7.16,7.16,0,0,1,.82-.53c.48-.31,1-.59,1.45-.9a2.39,2.39,0,0,1,1.16-.36A7.54,7.54,0,0,1,15,6.76,13.58,13.58,0,0,1,17.11,8a10.36,10.36,0,0,0,3.56,1.58A4.12,4.12,0,0,0,25.14,8a9.23,9.23,0,0,0,1.73-3.76c.06-.22.1-.43.15-.64l0,0c0,.1,0,.19,0,.28A7.38,7.38,0,0,1,25.83,9a7.13,7.13,0,0,1-2.62,2.19,5.88,5.88,0,0,1-2.2.68,5.08,5.08,0,0,1-2.46-.43A13.36,13.36,0,0,1,16,9.79a14.58,14.58,0,0,0-1.73-1.17,6.08,6.08,0,0,0-1.88-.55,20.56,20.56,0,0,0-2.6-.21c-.64,0-1.28,0-1.92,0Z"/><path class="cls-1" d="M0,6.26A4.26,4.26,0,0,1,.48,5.17,4.73,4.73,0,0,1,3.87,2.94a6.88,6.88,0,0,1,3.22.15,4.62,4.62,0,0,1,3,2.69c0,.12,0,.19-.08.26L7.74,7.49a.67.67,0,0,0-.12.06,3.18,3.18,0,0,0-.43-1.49A3,3,0,0,0,5.13,4.64a5.2,5.2,0,0,0-5,1.51A.24.24,0,0,1,0,6.26Z"/><path class="cls-1" d="M26.76,4.22a7.36,7.36,0,0,1-.24.87,8.54,8.54,0,0,1-1.45,2.85,4.08,4.08,0,0,1-2.38,1.55,4.81,4.81,0,0,1-2-.05A11.66,11.66,0,0,1,16.75,7.6,9.89,9.89,0,0,0,13.4,6.11a6.94,6.94,0,0,0-1.64-.19l-.08,0a6,6,0,0,1,1.34,0,8.94,8.94,0,0,1,4.11,1.44,21.08,21.08,0,0,0,2.31,1.31,5.32,5.32,0,0,0,2.1.55,3.85,3.85,0,0,0,2.82-1.08,8.2,8.2,0,0,0,1.71-2.37,13.7,13.7,0,0,0,.6-1.36A.16.16,0,0,1,26.76,4.22Z"/><path class="cls-1" d="M7.32.63a.44.44,0,0,0,.19.51,5.27,5.27,0,0,0,1.09.54,19.69,19.69,0,0,0,2.11.64,5.76,5.76,0,0,1,1.39.61,1.31,1.31,0,0,1,.63.87.87.87,0,0,1-.54,1,.42.42,0,0,1-.51-.16.39.39,0,0,1,.06-.48.42.42,0,0,1,.53-.05l.12.09a.45.45,0,0,0-.18-.52,4.19,4.19,0,0,0-.59-.32,10.92,10.92,0,0,0-2.09-.7,6.28,6.28,0,0,1-1.89-.75A1.37,1.37,0,0,1,7,1a.88.88,0,0,1,.5-1A.42.42,0,0,1,8,.19.36.36,0,0,1,8,.68a.43.43,0,0,1-.56,0S7.36.63,7.32.63Z"/><path class="cls-2" d="M2.25,14.71H3.57c.06,0,.07,0,.07-.07a.47.47,0,0,0-.46-.54H2.71c.1-.19.19-.36.29-.53s.11,0,.19,0L3,13.94h.16a.64.64,0,0,1,.69.63c0,.11,0,.15.16.15.4,0,.4,0,.4-.41V14s0-.1.06-.1.09,0,.09.1a5.35,5.35,0,0,1,0,.69h.34c.17,0,.25-.07.26-.25s0-.29,0-.43,0-.11.07-.11.08.05.08.1a3.87,3.87,0,0,1,0,.68h0c.37,0,.38,0,.38-.38V14c0-.06,0-.09.08-.09s.08,0,.08.09a4,4,0,0,1,0,.69h0c.36,0,.4,0,.4-.38V14s0-.09.07-.09.07,0,.07.08,0,.4,0,.6a.24.24,0,0,1-.25.25H1.81c-.21,0-.4,0-.47-.29a.38.38,0,0,1-.46.1.49.49,0,0,1-.23-.48.44.44,0,0,1,.5-.48c.33,0,.33,0,.33.33,0,.12,0,.25,0,.38a.25.25,0,0,0,.15.26.53.53,0,0,0,.41,0c.07,0,.07-.11.07-.18V14s0-.1.08-.1.07.06.07.11A3.89,3.89,0,0,1,2.25,14.71Zm-.92-.6v-.2s0-.06,0-.07A.4.4,0,0,0,.86,14a.5.5,0,0,0,0,.5.22.22,0,0,0,.22.13.23.23,0,0,0,.2-.16A.75.75,0,0,0,1.33,14.11Z"/><path class="cls-2" d="M19.5,14.63a.68.68,0,0,1-.8.55.74.74,0,0,1-.53-.86c0-.05,0-.07.08-.07s.07,0,.06.08a1.55,1.55,0,0,0,0,.31.49.49,0,0,0,.45.4.53.53,0,0,0,.54-.33.27.27,0,0,0-.18-.41c-.07,0,0-.06,0-.09s0-.05.08-.05a.41.41,0,0,1,.38.27.54.54,0,0,0,.76.23c-.28-.28-.32-.57-.11-.77a.49.49,0,0,1,.67,0,.51.51,0,0,1-.17.73.22.22,0,0,0,.17.05h.39c.16,0,.23-.07.23-.21s0-.33,0-.49,0-.09.07-.09.07,0,.07.09v.7H22c.18,0,.26-.07.27-.26s0-.28,0-.41,0-.12.07-.12.07.07.07.12c0,.2,0,.41,0,.61,0,0,0,0,0,0a.65.65,0,0,0,.31,0c.08,0,.1-.1.1-.17s0-.34,0-.51,0-.1.06-.1S23,14,23,14a3.75,3.75,0,0,1,0,.58c0,.08,0,.12.1.12.29,0,.32,0,.32-.32V14s0-.09.08-.09.08,0,.08.09,0,.37,0,.56-.11.29-.34.29H21.8a3.68,3.68,0,0,1-.94,0,2.68,2.68,0,0,0-.85,0A.51.51,0,0,1,19.5,14.63Zm1.31-.44a.29.29,0,0,0-.57,0c0,.16.18.38.29.38S20.81,14.34,20.81,14.19Z"/><path class="cls-2" d="M13.33,14.7h0c.17,0,.38.06.48,0s0-.3,0-.46v-.61s0-.1.06-.1.08,0,.08.1,0,.26,0,.39v.41a1.89,1.89,0,0,1,.25-.33.6.6,0,0,1,.61-.14.52.52,0,0,1,.3.47c.05.44.05.44-.39.44H12.93a.45.45,0,0,1-.43-.24.65.65,0,0,1-.62.56.67.67,0,0,1-.71-.64,1.62,1.62,0,0,0,0-.22c0-.06,0-.08.08-.08s.08,0,.07.08a1.23,1.23,0,0,0,0,.33.49.49,0,0,0,.49.38.53.53,0,0,0,.52-.38.27.27,0,0,0-.19-.36c-.06,0-.06,0-.06-.09s.05-.05.09-.05a.43.43,0,0,1,.38.29c.11.25.16.27.43.26s.2-.06.2-.19,0-.32,0-.48,0-.12.08-.12.07.07.07.11A3,3,0,0,1,13.33,14.7Zm.66,0h.72c.34,0,.37-.05.27-.37l0-.05a.32.32,0,0,0-.48-.19A1,1,0,0,0,14,14.71Z"/><path class="cls-2" d="M7,14.71l-.26-1c.1,0,.16,0,.19.1s.13.53.2.8c0,.05,0,.11.08.11s.14,0,.18-.09a.32.32,0,0,0,0-.17v-.81c0-.06,0-.13.07-.12s.08.05.08.11c0,.35,0,.71,0,1.08H8.89c.07,0,.08,0,.08-.08a.49.49,0,0,0-.49-.54H8l.31-.54c0-.06.1,0,.19,0l-.22.39c0,.05.08,0,.12,0a.64.64,0,0,1,.71.64c0,.1,0,.14.15.14.4,0,.41,0,.41-.41v-.69s0-.1.07-.1.08,0,.08.1c0,.3,0,.59,0,.88s-.1.36-.36.36H6.74s-.1,0-.1-.07.05-.08.1-.08Z"/><path class="cls-2" d="M24.36,14.87l-.27,0a.46.46,0,0,1-.33-.57.43.43,0,0,1,.51-.35.32.32,0,0,1,.27.31c0,.12,0,.24,0,.37s0,.11.11.1h.08a.75.75,0,0,0,.3,0c.11,0,0-.17,0-.26a.43.43,0,0,1,.41-.34.39.39,0,0,1,.42.28.51.51,0,0,1-.16.59.42.42,0,0,1-.53,0,.26.26,0,0,0-.18-.07,1.15,1.15,0,0,1-.26,0c-.14,0-.26,0-.32.16a.33.33,0,0,1-.27.16s-.08,0-.08,0,0-.09.05-.1A.22.22,0,0,0,24.36,14.87Zm1.41-.31c0-.21-.1-.33-.26-.33s-.26.14-.26.34.1.33.26.33S25.77,14.78,25.77,14.56Zm-1.37-.1v-.17a.24.24,0,0,0-.17-.23.22.22,0,0,0-.26.11.38.38,0,0,0,0,.42.34.34,0,0,0,.38.12c.1-.05,0-.14,0-.21Z"/><path class="cls-1" d="M3.13,17.16a.4.4,0,0,1,.26.44.38.38,0,0,1-.33.36,3.83,3.83,0,0,1-.68,0c-.07,0-.08,0-.08-.09V16.49c0-.08,0-.1.1-.1s.32,0,.48,0a.42.42,0,0,1,.43.26A.45.45,0,0,1,3.13,17.16Zm-.66.37v.24c0,.05,0,.09.07.08a1.62,1.62,0,0,0,.49,0,.25.25,0,0,0,.19-.26.26.26,0,0,0-.17-.29.65.65,0,0,0-.27-.05C2.47,17.22,2.47,17.22,2.47,17.53Zm0-.72V17s0,.09.07.08a1.86,1.86,0,0,0,.41,0,.26.26,0,0,0,.22-.29.25.25,0,0,0-.25-.24l-.14,0C2.47,16.5,2.47,16.5,2.47,16.81Z"/><path class="cls-1" d="M12.19,17.15a.42.42,0,0,1,.27.38.4.4,0,0,1-.34.44,5.3,5.3,0,0,1-.69,0c-.06,0-.06,0-.06-.09V16.47c0-.07,0-.08.1-.08s.34,0,.51,0a.4.4,0,0,1,.4.27A.42.42,0,0,1,12.19,17.15Zm-.37.71a.8.8,0,0,0,.29,0,.31.31,0,0,0,.1-.5c-.1-.08-.54-.17-.63-.09s0,.23-.05.34v0C11.53,17.86,11.53,17.86,11.82,17.86Zm-.29-1.05V17s0,.08.05.08a1.25,1.25,0,0,0,.51,0,.24.24,0,0,0,.14-.28.22.22,0,0,0-.19-.22,1.25,1.25,0,0,0-.19,0C11.53,16.49,11.53,16.49,11.53,16.81Z"/><path class="cls-1" d="M8.11,17.19c0-.21,0-.42,0-.63,0-.06,0-.17.08-.17s.08.11.09.18,0,.28,0,.43,0,.11.1.1H9c.1,0,.12,0,.12-.12s0-.32,0-.49,0-.1.08-.1.08.05.08.11v1.39c0,.05,0,.1-.08.1s-.09,0-.09-.1,0-.34,0-.51,0-.14-.13-.13H8.39c-.09,0-.11,0-.11.11v.51c0,.06,0,.12-.08.12s-.09,0-.09-.12Z"/><path class="cls-2" d="M16,14.87l-.27,0a.46.46,0,0,1-.33-.57.42.42,0,0,1,.52-.35.32.32,0,0,1,.25.28,2.75,2.75,0,0,1,0,.41c0,.05,0,.1.07.09h.33c.14,0,.17-.12.17-.23s0-.3,0-.45,0-.11.08-.11.06.06.07.11,0,.34,0,.52a.27.27,0,0,1-.3.31h-.16c-.15,0-.29,0-.35.17s-.16.13-.26.15-.08,0-.08,0,0-.08.05-.09A.22.22,0,0,0,16,14.87Zm0-.41h0v-.18a.21.21,0,0,0-.17-.22.21.21,0,0,0-.25.12.39.39,0,0,0,0,.39.32.32,0,0,0,.39.14c.12,0,0-.15.05-.22S16.05,14.47,16.05,14.46Z"/><path class="cls-1" d="M6.39,17.19c0-.22,0-.45,0-.67s0-.14.14-.13a4.35,4.35,0,0,1,.51,0,.88.88,0,0,1,.27.1.87.87,0,0,1,.26.94A.58.58,0,0,1,7,18c-.18,0-.37,0-.55,0s-.09,0-.09-.11Zm.16,0v.38c0,.32,0,.32.32.3a.52.52,0,0,0,.53-.36,1.08,1.08,0,0,0,0-.59A.49.49,0,0,0,7,16.55c-.12,0-.24,0-.37,0s-.11,0-.11.12S6.55,17,6.55,17.17Z"/><path class="cls-2" d="M21.17,16.37a.45.45,0,0,1,.49.32s.05.09,0,.11-.11,0-.14-.06-.26-.26-.44-.22a.27.27,0,0,0-.23.23A.25.25,0,0,0,21,17l.41.13a.4.4,0,0,1,.28.47.36.36,0,0,1-.23.33.78.78,0,0,1-.58,0,.39.39,0,0,1-.24-.3s-.05-.09,0-.11.11,0,.14.06a.37.37,0,0,0,.52.24.28.28,0,0,0,.21-.25.26.26,0,0,0-.17-.28L21,17.21c-.28-.09-.39-.24-.35-.5S20.89,16.37,21.17,16.37Z"/><path class="cls-2" d="M25.16,16.37a.43.43,0,0,1,.48.31s.06.1,0,.12-.11,0-.14-.06a.34.34,0,0,0-.46-.22.27.27,0,0,0-.21.24A.23.23,0,0,0,25,17c.13.06.27.09.41.14a.41.41,0,0,1,.3.36.41.41,0,0,1-.38.48c-.34.07-.6,0-.67-.3,0,0-.06-.1,0-.13s.11,0,.14.06a.4.4,0,0,0,.61.19.28.28,0,0,0-.06-.49,2.55,2.55,0,0,0-.39-.13.37.37,0,0,1-.28-.26C24.59,16.61,24.79,16.37,25.16,16.37Z"/><path class="cls-2" d="M19.64,16.37a.44.44,0,0,1,.48.31s.06.1,0,.12-.11,0-.14-.06a.35.35,0,0,0-.49-.21.27.27,0,0,0-.17.23.23.23,0,0,0,.14.25l.42.14a.43.43,0,0,1,.28.58.16.16,0,0,1,0,.07.54.54,0,0,1-.54.21.45.45,0,0,1-.44-.29s-.09-.13,0-.17.11,0,.13.1a.29.29,0,0,0,.28.22.38.38,0,0,0,.38-.12.27.27,0,0,0-.08-.42,2.42,2.42,0,0,0-.35-.12c-.29-.08-.41-.24-.37-.49S19.35,16.37,19.64,16.37Z"/><path class="cls-2" d="M23.08,17.18a.84.84,0,0,0,.08.41.46.46,0,0,0,.44.28.41.41,0,0,0,.43-.29c0-.1.08-.09.14-.07s0,.09,0,.13a.57.57,0,0,1-.55.37.56.56,0,0,1-.59-.3,1,1,0,0,1,0-1,.62.62,0,0,1,.6-.34.55.55,0,0,1,.54.37s.07.11,0,.14-.11,0-.14-.08a.39.39,0,0,0-.34-.28.46.46,0,0,0-.47.21A.83.83,0,0,0,23.08,17.18Z"/><path class="cls-2" d="M14.45,17.18a1.08,1.08,0,0,1,.12-.5.64.64,0,0,1,.64-.31.54.54,0,0,1,.5.38s.07.1,0,.12-.11,0-.13-.06a.42.42,0,0,0-.46-.3.47.47,0,0,0-.43.35,1,1,0,0,0,0,.67.47.47,0,0,0,.44.34.43.43,0,0,0,.46-.3c0-.08.07-.08.13-.06s0,.09,0,.12a.58.58,0,0,1-.53.38.63.63,0,0,1-.61-.28A.94.94,0,0,1,14.45,17.18Z"/><path class="cls-1" d="M5,17a4.09,4.09,0,0,1,0,.58c0,.26-.2.38-.5.4A.52.52,0,0,1,4,17.64a1.29,1.29,0,0,1,0-.39v-.76s0-.1.08-.1.07.05.07.11c0,.31,0,.62,0,.93a.38.38,0,0,0,.31.41.35.35,0,0,0,.47-.3,7.22,7.22,0,0,0,0-.93v-.13c0-.05,0-.09.08-.09s.08,0,.08.09Z"/><path class="cls-1" d="M1.92,18c-.12,0-.18,0-.2-.09v0c-.06-.12-.05-.32-.16-.35a1.61,1.61,0,0,0-.54,0c-.06,0-.07,0-.08.08a1.73,1.73,0,0,0-.11.32c0,.11-.09.13-.2.09.18-.5.36-1,.55-1.5a.09.09,0,0,1,.09-.08.08.08,0,0,1,.09.06Zm-.66-1.36c-.08.24-.15.45-.23.66s0,.08.07.08a1.71,1.71,0,0,1,.32,0c.08,0,.1,0,.07-.1S1.35,16.84,1.26,16.61Z"/><path class="cls-2" d="M18.74,18c-.11,0-.16,0-.2-.09s-.05-.32-.17-.38-.28,0-.42,0a.18.18,0,0,0-.24.16c0,.08-.06.15-.07.23s-.09.15-.2.1c.18-.5.36-1,.55-1.49,0-.05,0-.1.09-.09s.08,0,.1.07C18.36,17,18.55,17.47,18.74,18Zm-.66-1.37-.25.74h.51Z"/><path class="cls-1" d="M11,17.94a0,0,0,0,1-.05,0c-.06,0-.11,0-.13-.07s-.09-.23-.13-.35a.11.11,0,0,0-.13-.09h-.25c-.33,0-.24-.06-.36.27a1.46,1.46,0,0,0-.07.19.1.1,0,0,1-.14,0c-.05,0,0-.06,0-.09.18-.48.35-.95.52-1.42,0,0,0-.08.1-.08s.08,0,.1.08L11,17.9Zm-.65-1.33c-.08.23-.15.44-.23.64s0,.1.07.1a1.82,1.82,0,0,1,.33,0c.07,0,.09,0,.06-.09S10.41,16.85,10.33,16.61Z"/><path class="cls-2" d="M16.24,17.19V16.5s0-.11.07-.11.09.05.09.12v1.21c0,.11,0,.14.13.14h.54c.05,0,.12,0,.12.06s-.06.07-.11.07h-.74c-.09,0-.1,0-.1-.11S16.24,17.42,16.24,17.19Z"/><path class="cls-2" d="M22.22,17.18v-.7c0-.07,0-.1.09-.1s.11,0,.1.09V17.9c0,.08,0,.09-.1.09s-.09,0-.09-.1Z"/><path class="cls-1" d="M13.17,17.2c0,.23,0,.45,0,.67s0,.12-.11.12S13,18,13,17.88V16.49c0-.07,0-.11.1-.11s.1,0,.1.12C13.16,16.73,13.17,17,13.17,17.2Z"/><path class="cls-2" d="M10.31,14.2v.57c0,.06,0,.11-.08.11s-.08,0-.08-.1v-1.2c0-.06,0-.09.08-.09s.08,0,.08.1Z"/><path class="cls-2" d="M17.31,14.2v.56c0,.05,0,.11-.07.11s-.08,0-.08-.11V13.61c0-.06,0-.09.07-.09s.08,0,.08.08Z"/><path class="cls-2" d="M17.24,13.43h-.09c-.1,0-.1,0,0-.1s0-.06,0-.09a.17.17,0,0,1,.25-.13s.08.06.06.1-.06,0-.09,0a.09.09,0,0,0-.11,0,.14.14,0,0,0,0,.11.06.06,0,0,0,.08.05h.06s.09,0,.09,0-.06,0-.09,0Z"/><path class="cls-2" d="M11.91,15.44s0-.09.07-.09.09,0,.09.09,0,.09-.09.09S11.9,15.5,11.91,15.44Z"/><path class="cls-2" d="M20.75,13.54c0,.05,0,.07-.08.07s-.08,0-.08-.1,0-.08.09-.08S20.74,13.48,20.75,13.54Z"/><path class="cls-2" d="M21.39,15.1c0,.05,0,.08-.08.07s-.08,0-.08-.09,0-.08.09-.08S21.38,15.05,21.39,15.1Z"/><path class="cls-2" d="M4.37,15.08c0-.05,0-.09.07-.08s.08,0,.08.08,0,.09-.08.09S4.37,15.13,4.37,15.08Z"/><path class="cls-2" d="M2.18,15c.07,0,.1,0,.09.07s0,.1-.08.1-.07,0-.07-.08S2.11,15,2.18,15Z"/><path class="cls-2" d="M1.12,13.48c0,.06,0,.09-.08.09s-.08,0-.08-.09,0-.09.08-.09S1.13,13.42,1.12,13.48Z"/><path class="cls-2" d="M20.32,13.51s0-.09.07-.08.09,0,.09.08,0,.1-.09.1S20.32,13.57,20.32,13.51Z"/><path class="cls-2" d="M14.71,13.66c0,.06,0,.11-.07.11s-.09,0-.09-.09,0-.09.08-.09S14.71,13.62,14.71,13.66Z"/><path class="cls-2" d="M13.36,15.1c0,.07,0,.07-.09.07s-.07-.05-.07-.1,0-.07.09-.07S13.36,15.05,13.36,15.1Z"/><path class="cls-2" d="M1.32,13.4c.08,0,.07,0,.07.09s0,.08-.07.08-.08,0-.08-.09S1.25,13.38,1.32,13.4Z"/><path class="cls-2" d="M11.79,15.44c0,.07,0,.09-.08.09s-.06-.06-.06-.11,0-.07.07-.07S11.79,15.39,11.79,15.44Z"/><path class="cls-2" d="M21.58,15.17c-.08,0-.07,0-.07-.09s0-.08.06-.08.08,0,.08.08S21.65,15.18,21.58,15.17Z"/><path class="cls-2" d="M16.93,15.07s0,.1-.07.1-.08,0-.08-.09,0-.08.06-.08S16.94,15,16.93,15.07Z"/><path class="cls-2" d="M4.18,15.17c-.08,0-.08,0-.08-.09s0-.09.08-.08.07,0,.07.08S4.25,15.19,4.18,15.17Z"/><path class="cls-2" d="M1.93,15C2,15,2,15,2,15.08s0,.09-.07.09-.08,0-.08-.09S1.86,15,1.93,15Z"/><path class="cls-1" d="M7.84,7.88l0,0h0l0,0Z"/></g></g></g></svg>