<svg xmlns="http://www.w3.org/2000/svg" viewBox="0 0 23.07 7.47"><defs><style>.cls-1{fill:#fff;}.cls-2{fill:#010101;}</style></defs><title>7</title><g id="Layer_2" data-name="Layer 2"><g id="Layer_1-2" data-name="Layer 1"><rect width="23.07" height="6.13"/><g id="eoRflp"><path class="cls-1" d="M11.64,1.35c0-.15,0-.16.12-.16.57,0,1.14,0,1.71,0a.89.89,0,0,1,.87.63A1,1,0,0,1,13.87,3l-.22.13c.07.11.13.23.21.34.26.37.51.74.79,1.09a2.08,2.08,0,0,0,.36.29l0,0V5a1.11,1.11,0,0,1-1.09-.44,10.67,10.67,0,0,1-.57-.91.63.63,0,0,0-.73-.32.29.29,0,0,0,0,.09c0,.34,0,.68,0,1s.08.31.3.34l.19,0V5H11.61V4.81a1.38,1.38,0,0,1,.2,0c.22,0,.31-.11.32-.33,0-.92,0-1.84,0-2.75,0-.22-.08-.3-.27-.31Zm1,1.79.63-.05a.52.52,0,0,0,.2-.09,1,1,0,0,0,.29-1.2.79.79,0,0,0-.81-.41c-.27,0-.32.05-.32.31V3S12.63,3.07,12.63,3.14Z"/><path class="cls-1" d="M5.33,2.89h.85c.15,0,.24-.1.27-.26l0-.15h.17v1.1H6.49c0-.06,0-.12,0-.19a.28.28,0,0,0-.26-.24H5.33a.2.2,0,0,0,0,.07c0,.4,0,.79,0,1.19a.3.3,0,0,0,.32.35,6.77,6.77,0,0,0,.78,0,.47.47,0,0,0,.41-.25c.09-.15.16-.3.25-.46h.16c0,.23-.09.46-.14.69S7.05,5,6.8,5H4.38c-.12,0-.17,0-.13-.16l.31,0A.25.25,0,0,0,4.8,4.5a1.94,1.94,0,0,0,0-.24V1.75c0-.31-.09-.36-.4-.38-.07,0-.11,0-.11-.09s.05-.09.11-.09H6.81l.1,0L7,2l-.15,0-.15-.4a.35.35,0,0,0-.33-.25l-.87,0c-.06,0-.12,0-.12.1C5.32,2,5.33,2.42,5.33,2.89Z"/><path class="cls-1" d="M1.08,1.21l0,0c.59,0,1.17,0,1.76,0a.92.92,0,0,1,.87.53A1.16,1.16,0,0,1,3,3.39a1.29,1.29,0,0,1-.8,0,.49.49,0,0,0-.14,0s0,0,0,0c0,.35,0,.7,0,1.05s.09.3.31.32l.24,0V5H1V4.81l.24,0a.26.26,0,0,0,.25-.26,1.94,1.94,0,0,0,0-.24V1.85a1.94,1.94,0,0,0,0-.24c0-.16-.12-.24-.33-.24S1.05,1.32,1.08,1.21ZM2,2.35H2C2,2.57,2,2.79,2,3s0,.16.15.17l.38,0a.71.71,0,0,0,.66-.48,1.23,1.23,0,0,0,0-.76.66.66,0,0,0-.47-.51,1.48,1.48,0,0,0-.47-.06c-.21,0-.28.07-.28.29S2,2.12,2,2.35Z"/><path class="cls-1" d="M22,4.82V5H20.62c0-.14,0-.16.11-.18s.29-.1.2-.35-.18-.48-.26-.72c0-.08-.06-.12-.16-.12-.33,0-.67,0-1,0a.14.14,0,0,0-.16.11c-.07.24-.15.47-.23.7s0,.34.23.38l.14,0c0,.15,0,.16-.12.16H18.25c0-.13,0-.19.13-.2a.41.41,0,0,0,.37-.28c.14-.33.28-.66.41-1L20,1.28a.21.21,0,0,1,.24-.16c.08.23.17.47.25.71l.88,2.44C21.56,4.68,21.59,4.69,22,4.82Zm-2.54-1.5h1.05L20,1.89h0Z"/><path class="cls-1" d="M8.76,4.81V5H7.5c0-.1,0-.17.11-.18A.47.47,0,0,0,8,4.44c.23-.56.46-1.13.68-1.69s.39-1,.57-1.46a.23.23,0,0,1,.25-.17l.21.58c.31.86.62,1.73.94,2.6.15.4.17.41.6.51a.17.17,0,0,1,0,.07s0,0,0,.08H9.87V4.8l.22,0c.11,0,.17-.09.13-.2-.1-.31-.21-.61-.33-.91a.11.11,0,0,0-.09,0c-.36,0-.72,0-1.07,0a.12.12,0,0,0-.1.06c-.1.28-.19.55-.28.82s0,.25.17.29Zm0-1.49h1L9.3,1.89h0Z"/><path class="cls-1" d="M15.24,1.36V1.2h1.37c.14,0,.15,0,.12.16l-.26,0a.22.22,0,0,0-.21.21,1.41,1.41,0,0,0,0,.28V4.24c0,.42.09.51.51.52h.44a.58.58,0,0,0,.49-.31L17.88,4c.17,0,.17,0,.13.17l-.15.68a.13.13,0,0,1-.1.08H15.21V4.81l.29,0a.24.24,0,0,0,.22-.25c0-.11,0-.21,0-.32V1.77c0-.32-.08-.39-.4-.41Z"/></g><path class="cls-2" d="M9.82,6.55H10c.41,0,.55.21.55.44a.47.47,0,0,1-.54.49l-.19,0Zm.09.83H10A.39.39,0,0,0,10.45,7c0-.21-.13-.36-.45-.36H9.91Z"/><path class="cls-2" d="M11.31,7.44l-.23,0c-.19,0-.3-.07-.3-.23V6.79h.09v.44c0,.13.1.16.2.16h.15V6.79h.09Z"/><path class="cls-2" d="M11.6,6.42h.09v.39a.32.32,0,0,1,.16,0,.31.31,0,0,1,.34.34.34.34,0,0,1-.38.35.52.52,0,0,1-.21,0Zm.09,1,.12,0a.26.26,0,0,0,.29-.27.24.24,0,0,0-.25-.26.35.35,0,0,0-.16,0Z"/><path class="cls-2" d="M12.77,7a.12.12,0,0,0-.14-.13.41.41,0,0,0-.19,0V6.83a.42.42,0,0,1,.2,0c.14,0,.22.06.22.2v.46a.62.62,0,0,1-.19,0c-.17,0-.29,0-.29-.19s.12-.2.32-.2h.07Zm0,.15H12.7c-.13,0-.23,0-.23.13s.09.12.21.12h.09Z"/><path class="cls-2" d="M13.12,6.59a.07.07,0,0,1,.07-.07.07.07,0,0,1,.06.07.06.06,0,0,1-.06.06A.07.07,0,0,1,13.12,6.59Zm.11.86h-.09V6.79h.09Z"/></g></g></svg>