<svg xmlns="http://www.w3.org/2000/svg" viewBox="0 0 39.35 3.94"><defs><style>.cls-1{fill:#eb2227;}</style></defs><title>8</title><g id="Layer_2" data-name="Layer 2"><g id="Layer_1-2" data-name="Layer 1"><path class="cls-1" d="M0,1.55V.11H4.6V1.55H4C4,1,3.75.64,3,.64V3.08c0,.13.1.22.27.22h.42v.53H1V3.3h.43c.17,0,.27-.09.27-.22V.64c-.8,0-1,.35-1,.91Z"/><path class="cls-1" d="M8.57,1.66V.8c0-.11-.1-.16-.27-.16H8V.11h2.56V.64h-.43c-.17,0-.27.08-.27.22V3.09c0,.15.1.21.27.21h.42v.53H8V3.3H8.3c.17,0,.27,0,.27-.18v-1H7.05v1c0,.14.09.2.26.2H7.6v.53H5.05V3.3h.42c.17,0,.27-.09.27-.22V.79c0-.1-.1-.15-.27-.15H5V.11H7.6V.64H7.31c-.17,0-.26,0-.26.23v.79Z"/><path class="cls-1" d="M16,2c0,1.18-1,2-2.51,2s-2.51-.79-2.51-2,1-2,2.51-2S16,.79,16,2ZM12.44,2c0,1,.32,1.41,1,1.41s1-.45,1-1.41-.32-1.41-1-1.41S12.44,1,12.44,2Z"/><path class="cls-1" d="M18.72.11l.8,2.27h0L20.35.11h2.46V.64h-.37c-.18,0-.28.08-.28.22V3.08c0,.13.1.22.28.22h.37v.53H20.3V3.3h.29c.17,0,.27-.09.27-.22V.78h0L19.76,3.83h-1L17.67.72h0V3.08c0,.13.09.22.26.22h.3v.53h-2V3.3h.42c.17,0,.27-.09.27-.22V.86c0-.14-.1-.22-.27-.22h-.42V.11Z"/><path class="cls-1" d="M27.39,1.45h-.64A1.29,1.29,0,0,0,25.4.56c-.4,0-.78.1-.78.47,0,.69,3,.13,3,1.69,0,.87-1,1.22-1.91,1.22a3.11,3.11,0,0,1-1.51-.39L24,3.83h-.58V2.41h.64c.09.57.69,1,1.51,1,.36,0,.8-.16.8-.47,0-.78-3-.15-3-1.71,0-.9,1-1.2,2-1.2a2.92,2.92,0,0,1,1.31.37l.13-.25h.57Z"/><path class="cls-1" d="M28,.11h2.7V.64h-.43c-.17,0-.27.08-.27.22V2.78c0,.35.25.6.81.6.8,0,.94-.28.94-1V.86c0-.14-.1-.22-.27-.22h-.41V.11h2.11V.64h-.41c-.17,0-.27.08-.27.22V2.61c0,.8-.54,1.33-1.83,1.33s-2-.36-2-1.28V.86c0-.14-.1-.22-.27-.22H28Z"/><path class="cls-1" d="M38.15,3.83h-.88L35.34,1.09h0v2c0,.13.09.22.27.22H36v.52H33.88V3.31h.42c.18,0,.27-.09.27-.22V.87c0-.14-.09-.22-.27-.22h-.43V.12H36.1l1.8,2.54h0V.87c0-.14-.1-.22-.27-.22h-.42V.12h2.13V.65h-.41c-.18,0-.27.08-.27.22V3.1a.17.17,0,0,0,.18.2h.4v.53H38.16"/></g></g></svg>