<svg xmlns="http://www.w3.org/2000/svg" viewBox="0 0 28.58 20.55"><defs><style>.cls-1{fill:#831a26;}</style></defs><title>9</title><g id="Layer_2" data-name="Layer 2"><g id="Layer_1-2" data-name="Layer 1"><g id="ZR9jtG"><path class="cls-1" d="M28.58,5.85a3.11,3.11,0,0,1-1.93.94A12.44,12.44,0,0,1,23.26,7c-.9-.06-1.81-.12-2.7-.25-1.79-.27-3.58-.6-5.37-.88-1.3-.22-2.61-.43-3.93-.6C10.49,5.12,9.7,5.08,8.92,5S7.67,5,7.05,5a16.12,16.12,0,0,0-2.94.31l-.17,0,.18,1.15L5.2,6.25A17.2,17.2,0,0,1,9,6a32,32,0,0,1,4.78.55l4.34.8a35.4,35.4,0,0,0,3.54.48,16.08,16.08,0,0,0,2.86,0,6,6,0,0,0,1.81-.42l0,0c-.17.12-.33.25-.51.36A5.19,5.19,0,0,1,24,8.4a17.48,17.48,0,0,1-4,.19,28.42,28.42,0,0,1-3.57-.37c-.78-.13-1.56-.32-2.35-.46-1-.17-1.95-.32-2.93-.45A18.92,18.92,0,0,0,7.7,7.2a14.81,14.81,0,0,0-3.23.52c-.09,0-.13.06-.1.17s.1.45.15.69l.12,0a10.57,10.57,0,0,1,2.23-.42,16.72,16.72,0,0,1,2.83,0c1,.08,2,.2,3,.36,1.68.27,3.36.6,5,.89a24,24,0,0,0,3.58.36A8.82,8.82,0,0,0,24,9.47a3,3,0,0,0,.42-.14,2.37,2.37,0,0,1-.8.51,6.85,6.85,0,0,1-2,.46,15.51,15.51,0,0,1-2.89,0c-.92-.06-1.85-.14-2.77-.27-1.07-.16-2.13-.42-3.2-.59-.86-.13-1.73-.24-2.59-.3s-1.62,0-2.43,0a11.94,11.94,0,0,0-2.84.46l-.07,0,.26.91c.34-.1.65-.2,1-.28A12.46,12.46,0,0,1,9.13,10a20,20,0,0,1,3.08.31l4.18.74a21.76,21.76,0,0,0,3.68.37,6.23,6.23,0,0,0,2.31-.33h0a2.46,2.46,0,0,1-.76.45,6.16,6.16,0,0,1-1.53.34,16.89,16.89,0,0,1-3.1,0,25.39,25.39,0,0,1-3.57-.52A17.93,17.93,0,0,0,10.29,11c-.76,0-1.53-.05-2.3,0a9.76,9.76,0,0,0-2.56.45l-.1,0,.34.85.81-.24a9.62,9.62,0,0,1,2.57-.24,28.59,28.59,0,0,1,4.42.57c1.07.2,2.15.37,3.23.52A9.48,9.48,0,0,0,19,13c.34,0,.68-.13,1-.18-.21.11-.41.23-.62.32a4.78,4.78,0,0,1-1.58.32c-.51,0-1,0-1.54,0a20,20,0,0,1-3.77-.49,18.32,18.32,0,0,0-2.87-.37,11.17,11.17,0,0,0-3.26.29L6,13a4.55,4.55,0,0,0,.81,1.16c.06,0,.1.09,0,.16a3.86,3.86,0,0,1-1-.81,2.23,2.23,0,0,1-.19-.24c-.06-.11-.14-.1-.24-.05A4.16,4.16,0,0,0,4.17,14a2.15,2.15,0,0,1,1-1.45l-.48-.89a5.14,5.14,0,0,0-1.63,1,2.61,2.61,0,0,1,1-1.56L4.32,11s.06-.08,0-.11c-.11-.31-.23-.63-.36-.95a6.58,6.58,0,0,0-2.14,1.29l0,0c.08-.21.15-.43.24-.64A3.26,3.26,0,0,1,3.54,9c.13-.07.18-.14.12-.29s-.13-.44-.2-.68A7.11,7.11,0,0,0,1,9.61l.07-.23a3.77,3.77,0,0,1,2-2.4.14.14,0,0,0,.09-.18c-.09-.37-.17-.75-.25-1.14a5.79,5.79,0,0,0-1.65.82A4,4,0,0,0,0,7.83H0c0-.25,0-.49.05-.74a6.18,6.18,0,0,1,.84-2.6A4.4,4.4,0,0,1,2.34,3a.17.17,0,0,0,.09-.19C2.33,2,2.22,1.21,2.12.39q0-.18,0-.39l.62.4c.19.12.38.25.58.36a.33.33,0,0,1,.17.3l.12,1.29s0,.07,0,.11l.6-.13a9.65,9.65,0,0,1,2.52-.09,36.35,36.35,0,0,1,7.21,1.55c1.56.45,3.12.93,4.69,1.38A37.3,37.3,0,0,0,23,6.08a15.74,15.74,0,0,0,2.66.22,9.14,9.14,0,0,0,2.79-.44l.17,0Z"/><path class="cls-1" d="M15.43,20.55l-.26-.1a1.16,1.16,0,0,1-.62-.79,1.6,1.6,0,0,1,.06-1,1.05,1.05,0,0,1,1-.71,1,1,0,0,1,1.06.69,1.49,1.49,0,0,1-.2,1.53,1.23,1.23,0,0,1-.62.37Zm1-1.29a7.22,7.22,0,0,0-.2-.74.63.63,0,0,0-.62-.41.65.65,0,0,0-.62.4A1.74,1.74,0,0,0,15,20a.67.67,0,0,0,.62.41.62.62,0,0,0,.61-.4A6.25,6.25,0,0,0,16.47,19.26Z"/><path class="cls-1" d="M9.39,19.21l.15,0a.52.52,0,0,1,.41.49.58.58,0,0,1-.31.6.79.79,0,0,1-.34.1c-.36,0-.72,0-1.1,0,0,0,0-.09,0-.14V18.53c0-.28,0-.38-.34-.45,0,0,.05,0,.07,0,.45,0,.91,0,1.36,0a.57.57,0,0,1,.54.61.52.52,0,0,1-.34.47Zm-.81.08s0,0,0,.05c0,.29,0,.59,0,.88a.14.14,0,0,0,.09.09,3.08,3.08,0,0,0,.61,0,.41.41,0,0,0,.34-.46.43.43,0,0,0-.35-.46A4.81,4.81,0,0,0,8.58,19.29Zm-.05-.12a3.33,3.33,0,0,0,.56-.05.49.49,0,0,0,.38-.44.45.45,0,0,0-.35-.46,2.15,2.15,0,0,0-.51,0s-.08,0-.08.08Z"/><path class="cls-1" d="M3.23,20.46V18.58a1.21,1.21,0,0,0,0-.19c0-.22-.06-.26-.28-.29l-.07,0s.06,0,.08,0a12.46,12.46,0,0,1,1.37,0,1.08,1.08,0,0,1,1,1.19,1.14,1.14,0,0,1-1.07,1.18C3.91,20.48,3.58,20.46,3.23,20.46Zm.35-1.21c0,.31,0,.62,0,.93a.16.16,0,0,0,.07.12,1,1,0,0,0,.86-.15,1.12,1.12,0,0,0,.38-1.07,1,1,0,0,0-1.17-.9c-.11,0-.16.07-.15.19C3.59,18.66,3.58,19,3.58,19.25Z"/><path class="cls-1" d="M21.1,18.05l.09,0c.37,0,.75,0,1.12,0a.89.89,0,0,1,.32.08.57.57,0,0,1,.36.59.56.56,0,0,1-.39.54l-.22.08c.22.32.43.64.65.94a.54.54,0,0,0,.2.1l.05.06-.06,0a.51.51,0,0,1-.53-.12A2.19,2.19,0,0,1,22.4,20a5.09,5.09,0,0,1-.32-.54c-.07-.13-.16-.11-.26-.09s-.05.07-.05.11c0,.28,0,.56,0,.85v.15h-.34v-2C21.42,18.18,21.4,18.15,21.1,18.05Zm.66.63V19c0,.22,0,.22.23.24a.57.57,0,0,0,.61-.42.48.48,0,0,0-.17-.48.64.64,0,0,0-.61-.12s-.05.07-.05.1S21.76,18.55,21.76,18.68Z"/><path class="cls-1" d="M17.6,20.47h-.33V18.52c0-.32,0-.36-.38-.45A.54.54,0,0,1,17,18c.37,0,.75,0,1.12,0a.7.7,0,0,1,.67.92.74.74,0,0,1-.77.51H17.6Zm0-1.18a.59.59,0,0,0,.75-.86.58.58,0,0,0-.66-.24s-.09.06-.09.09C17.59,18.62,17.6,19,17.6,19.29Z"/><path class="cls-1" d="M20.75,18.61l0-.09a.35.35,0,0,0-.35-.33c-.26,0-.51,0-.77,0v.94h1v.14h-.86c-.1,0-.14,0-.14.13,0,.3,0,.6,0,.89.29,0,.56,0,.84,0a.46.46,0,0,0,.38-.29l.06-.1h0s0,.06,0,.08c-.17.46-.12.48-.62.48h-1V18.52c0-.35,0-.37-.38-.45L19,18c.5,0,1,0,1.51,0,.21,0,.3.1.3.31v.26Z"/><path class="cls-1" d="M23.33,20.45l.27-.65.69-1.62a.61.61,0,0,1,.13-.15s.08.09.11.14c.23.56.45,1.11.68,1.66a.89.89,0,0,0,.5.61l-.1,0a.59.59,0,0,1-.66-.41.41.41,0,0,0-.5-.32,3.35,3.35,0,0,1-.55,0,.13.13,0,0,0-.16.1c-.06.17-.14.33-.2.49S23.45,20.5,23.33,20.45Zm1-1.89-.45,1.05h.89Z"/><path class="cls-1" d="M12.54,20.44a.56.56,0,0,1-.75-.37.39.39,0,0,0-.49-.31,3.15,3.15,0,0,1-.53,0,.15.15,0,0,0-.19.12c-.06.16-.14.31-.19.46s-.1.15-.22.11c.11-.28.23-.56.35-.84l.63-1.48a.29.29,0,0,1,.11-.11.43.43,0,0,1,.09.1l.74,1.79a1,1,0,0,0,.12.25,2.41,2.41,0,0,0,.24.21Zm-1-.82-.44-1.06-.45,1.06Z"/><path class="cls-1" d="M5.44,18.06a.79.79,0,0,1,.55,0,.46.46,0,0,1,.11.32c0,.39,0,.79,0,1.19a1.59,1.59,0,0,0,.06.37.51.51,0,0,0,.48.39,1.93,1.93,0,0,0,.34,0,.61.61,0,0,0,.5-.66c0-.49,0-1,0-1.47V18h.17c0,.61,0,1.21-.06,1.81,0,.42-.29.62-.74.65a1.55,1.55,0,0,1-.48,0,.67.67,0,0,1-.57-.55,4.34,4.34,0,0,1-.06-.62c0-.25,0-.51,0-.76S5.76,18.18,5.44,18.06Z"/><path class="cls-1" d="M13.35,20.47a1.41,1.41,0,0,1-.54,0,.21.21,0,0,1-.1-.15.92.92,0,0,1,0-.29V18.23c0-.21,0-.21.2-.2H13c0,.06,0,.11,0,.16v1.92c0,.22.07.26.29.29l0,0Z"/></g></g></g></svg>